<svg fill="none" xmlns="http://www.w3.org/2000/svg">
    <path id="FrameUp"
          d="M1879.5 42.9999L1895 41.4999L1894.5 0H0.5L-0.5 28.5L5.5 29.5L8.5 28.5L14 30.5L19.5 28.5H22L24 32L26.5 29.5C27.1667 29.1667 28.7 28.5 29.5 28.5H33.5L36 26.5C38.5 25.8333 43.6 24.3 44 23.5C44.4 22.7 47.5 24.1667 49 25H55.5C56.6667 26.1667 59.3 28.5 60.5 28.5C61.7 28.5 61.6667 31.5 61.5 33L64.5 29.5L66 27.5C67.8333 26.5 71.9 24.5 73.5 24.5C75.1 24.5 76.8333 25.8333 77.5 26.5L83 30.5C84.6667 30.1667 88.2 29.5 89 29.5C89.8 29.5 91 26.5 91.5 25L103.5 23.5L115 25L121.5 26.5V24.5L124 25L128.5 26.5L130.5 25H134L134.5 27.5L138 24.5L140 26.5L143 29.5L147.5 28.5L150.5 32L152.5 30.5L156 27.5H160H168L172.5 29.5L175.5 27.5L179.5 29.5L183.5 27.5L198.5 35.5L193.5 27.5L205.5 26.5L207 30.5H211.5L210.5 33H214.5V34.5L219 35.5L225 34.5V41.5L235.5 42.5H241.5V44.5L245 47L248.5 43.5L252.5 44.5L254 46L256 47L258.5 46H261H264L267 48L268.5 46H270L271.5 48L273 46H276.5V47H279L284.5 46H296L307 49H310L315.5 41.5L319 39L320.5 41.5L321.5 43.5L323.5 42.5L326 40L328 41.5H330.5V40H332.5H342L348 42.5V39H350.5H353H354.5H358.5L360.5 37.5H363.5L371 40H377L382 41.5L385.5 42.5L390.5 39L395.5 41.5L401.5 40L406.5 35L410.5 39H414L416.5 37.5H418.5L420.5 40L423.5 39L425 37.5L426.5 34L428.5 33L432 34L435.5 33L438.5 30H442L443 34H448L449.5 35H467.5L474.5 37.5L479.5 32L508.5 41.5L510 48.5L515 49.5L516 54.5L525.5 47H530.5H534H536.5L539 45.5V43L540 40L541 39C542.167 38.5 544.7 37.5 545.5 37.5C546.3 37.5 554.833 35.8333 559 35L575 32L577.5 34H580V32L582.5 31L586.5 30L591 31L593.5 30L595.5 28H599L601 29L603 28L604 26.5L607.5 29H609L614.5 28V26.5V22.5L616.5 21H619.5C620.3 21 622.167 22 623 22.5L625.5 21H627L629 19.5H632.5H636H639H642V16.5V14H644.5L646.5 13L647.5 10.5C647.167 9.83333 646.3 8.5 645.5 8.5C644.7 8.5 645.833 7.5 646.5 7L650 8.5L653 13H658.5V21L666.5 16.5V18L669 19.5L671 18H672L674 19.5L677 21H679.5H682.5L686 22.5L690.5 24L693.5 22.5L698 19.5H699.5L703 15V14L705.5 13L710 14L714.5 16.5L720 19.5L725.5 15L727.5 16.5L736.5 18L737.5 16.5H743L745 19.5H757.5L754.5 15L756.5 14L765 13L770 15L771.5 13L776 10.5H779H784.5L789 11.5L792 10.5H794.5H797.5L801.5 13H803L804.5 10.5H806.5H810.5L812 11.5L815 14L817.5 16L820.5 17.5L821.5 15L826 14L829 15L830 16L831.5 19.5L833 20.5L834.5 22V23.5L835 26H837.5L839 25L843 24L848 25L852.5 26L854.5 27L856.5 28L859.5 30.5H862.5H865.5C866.5 30.5 868.7 30.2 869.5 29C870.3 27.8 871.833 28.5 872.5 29L877.5 30.5H881H884L887 32H889.5L892.5 35H896.5L899 33.5H902.5L904 36H907V35H908.5V37.5H911.5L915.5 35L921 38.5L926.5 37.5L928 41.5L932.5 39.5H934.5V41.5L937 44L939 45L941.5 44L943 40.5L945 41.5H948.5L949.5 39.5L947.5 38.5V36H949.5L953.5 38.5L955.5 36H960V38.5H964.5V40.5H971.5V43L977.5 41.5L983 46.5H986L989 45L991.5 44L993 46.5L998 48L1003 43L1007.5 44L1009.5 48L1018 46.5H1019H1024.5L1026.5 48L1028.5 45L1033.5 46.5L1037 43L1041.5 41.5L1048 43L1065.5 33.5H1070.5L1074 37.5H1077L1083.5 31.5L1090 35L1091.5 30.5H1093L1094 31.5H1110L1111.5 37.5L1117.5 33.5L1127.5 38.5H1133.5H1134.5L1135.5 40.5L1137.5 39.5L1139.5 38.5H1142.5H1145V39.5L1147.5 41.5H1150.5H1152L1153.5 43H1157H1158.5L1162.5 41.5H1164L1165.5 44H1167.5H1169.5L1172 41.5L1173.5 40.5L1176 39.5H1179H1184L1187 38.5L1191 39.5H1193.5L1197 41.5L1199.5 43L1202 41.5L1203 40.5L1206.5 39.5H1210L1211 40.5H1212L1213.5 41.5L1216 43L1217.5 41.5H1220V45L1221 46.5L1222 45L1223 46.5H1224L1226 48H1227.5V47L1228 45L1229.5 44C1230 44 1231.1 43.8 1231.5 43C1231.9 42.2 1233.33 42.6667 1234 43L1237 44V46.5H1238H1241.5L1240 45L1241.5 43V41.5L1242.5 43H1246V41.5V40.5L1247.5 41.5H1249.5H1250.5L1251.5 44H1255H1257L1259.5 43L1261 44L1267 45H1268.5L1276.5 44H1277.5L1283.5 45L1288 43L1293.5 45H1299H1303.5L1306 43L1308.5 40.5H1311L1309.5 41.5L1311 45L1313 46.5L1315.5 48H1317.5V49.5L1315.5 50.5V52.5L1317.5 53.5H1319L1321.5 52.5L1322.5 51.5L1329.5 49.5H1335L1337 46.5L1338.5 45L1340 46.5L1343.5 49.5L1353 36.9999H1357H1361C1361.67 36.3333 1363.6 34.5 1366 32.5C1367.2 31.7 1367.83 32.1667 1368 32.5H1370.5H1372H1375.5L1378.5 33.5V35.9999L1379.5 36.9999H1383H1386H1388.5C1389.5 36.6666 1391.7 35.9999 1392.5 35.9999H1396.5L1400.5 35H1404.5L1407.5 33.5H1410.5C1411.3 33.5 1412.83 34.5 1413.5 35L1415 35.9999C1416.17 36.8333 1418.7 38.4999 1419.5 38.4999C1420.5 38.4999 1421.5 39.4999 1422.5 39.4999C1423.3 39.4999 1423.5 38.8333 1423.5 38.4999L1425.5 35.9999L1427.5 33.5H1429.5H1433H1437.5V32.5L1440.5 29.5H1442.5L1445 31H1450.5C1451.3 31 1450.83 30 1450.5 29.5L1451.5 27.5C1451.17 27 1450.5 25.8 1450.5 25C1450.5 24.2 1449.83 23 1449.5 22.5H1452.5H1454.5L1455.5 23.5L1456.5 26L1457.5 27.5L1458.5 29.5L1460 31L1460.5 33.5L1462.5 32.5C1462.83 32.1667 1463.7 31.5 1464.5 31.5H1467V32.5V33.5L1468 35.9999L1469.5 36.9999C1470.5 36.9999 1473.2 36.7999 1476 35.9999C1476.8 35.1999 1477.33 35.6666 1477.5 35.9999L1479.34 38.4999L1480 39.4999H1482.5L1484 36.9999H1486.5H1488.5H1491L1495.5 39.4999L1499.5 36.9999L1504.5 35.9999L1511.5 36.9999L1514.5 38.4999V36.9999H1518.5L1524 39.4999L1528 36.9999L1530 38.4999L1533 42.4999L1536.5 43.4999L1538 47.4999L1539.5 45.9999H1542.5L1547.5 48.4999L1551 44.4999L1553 47.4999L1555 49.4999H1557.5L1559 50.4999L1560 49.4999L1562 50.4999V48.4999L1564 49.4999L1565 48.4999L1569.5 47.4999L1572.5 45.9999L1575 43.4999L1579.5 42.4999L1582 40.4999L1588 39.4999H1592.5L1598.5 38.4999L1603.5 39.4999L1606 42.4999H1608H1614H1619.5L1623.5 44.4999L1629 45.9999H1630L1633 47.4999L1636 49.4999L1638 50.4999H1640L1644.5 51.9999L1649 52.9999L1650.5 53.9999L1652.5 54.9999H1653.5L1655 56.4999L1656.5 57.9999L1658.5 59.4999L1662.5 60.4999L1664 61.9999L1667 64.4999L1668 66.4999L1666 69L1674.5 71.5L1679 73L1681.5 74L1683 73V70H1684L1688 69L1691.5 67.4999L1695 65.4999C1695.83 65.1666 1697.7 64.4999 1698.5 64.4999H1699.5L1703 65.4999L1705 66.4999H1706.5V65.4999L1708 64.4999L1710.5 63.4999L1711.5 61.9999H1712.5H1713.5L1714.5 63.4999L1717 64.4999L1718.5 65.4999H1720L1721 63.4999L1722.5 61.9999L1726 59.4999L1728 57.9999H1734.5L1733.5 56.4999L1732 53.9999L1736.5 52.9999L1740 51.9999H1742L1744.5 50.4999L1748.5 49.4999L1751 50.4999L1753 51.9999L1754 52.9999L1755.5 53.9999L1756.5 54.9999H1757.5L1759.5 52.9999H1761.5L1762.5 53.9999L1764 54.9999H1765.5L1766.5 53.9999L1770 54.9999H1774L1775 53.9999L1776.5 51.9999L1778 49.4999L1781 48.4999H1784L1787.5 47.4999L1789.5 44.9999L1791 42.9999L1795 45.9999L1797 43.9999L1799 42.9999H1809.5H1812.5L1814 41.4999L1818 39.4999H1822H1827L1830.5 41.4999L1835.5 37.9999L1839.5 36.4999L1842 37.9999H1844H1849H1853H1855H1857.5L1860 39.4999L1862 41.4999L1863.5 39.4999L1867.5 37.9999L1869.5 39.4999H1872.5H1875.5L1879.5 42.9999Z" fill="#0d0e1b"/>
    <path id="FrameDown"
          d="M15 31.0001L-0.5 32.5001L0 74H1894L1895 45.5L1889 44.5L1886 45.5L1880.5 43.5L1875 45.5H1872.5L1870.5 42L1868 44.5C1867.33 44.8333 1865.8 45.5 1865 45.5H1861L1858.5 47.5C1856 48.1667 1850.9 49.7 1850.5 50.5C1850.1 51.3 1847 49.8333 1845.5 49H1839C1837.83 47.8333 1835.2 45.5 1834 45.5C1832.8 45.5 1832.83 42.5 1833 41L1830 44.5L1828.5 46.5C1826.67 47.5 1822.6 49.5 1821 49.5C1819.4 49.5 1817.67 48.1667 1817 47.5L1811.5 43.5C1809.83 43.8333 1806.3 44.5 1805.5 44.5C1804.7 44.5 1803.5 47.5 1803 49L1791 50.5L1779.5 49L1773 47.5V49.5L1770.5 49L1766 47.5L1764 49H1760.5L1760 46.5L1756.5 49.5L1754.5 47.5L1751.5 44.5L1747 45.5L1744 42L1742 43.5L1738.5 46.5H1734.5H1726.5L1722 44.5L1719 46.5L1715 44.5L1711 46.5L1696 38.5L1701 46.5L1689 47.5L1687.5 43.5H1683L1684 41H1680V39.5L1675.5 38.5L1669.5 39.5V32.5L1659 31.5H1653V29.5L1649.5 27L1646 30.5L1642 29.5L1640.5 28L1638.5 27L1636 28H1633.5H1630.5L1627.5 26L1626 28H1624.5L1623 26L1621.5 28H1618V27H1615.5L1610 28H1598.5L1587.5 25H1584.5L1579 32.5L1575.5 35L1574 32.5L1573 30.5L1571 31.5L1568.5 34L1566.5 32.5H1564V34H1562H1552.5L1546.5 31.5V35H1544H1541.5H1540H1536L1534 36.5H1531L1523.5 34H1517.5L1512.5 32.5L1509 31.5L1504 35L1499 32.5L1493 34L1488 39L1484 35H1480.5L1478 36.5H1476L1474 34L1471 35L1469.5 36.5L1468 40L1466 41L1462.5 40L1459 41L1456 44H1452.5L1451.5 40H1446.5L1445 39H1427L1420 36.5L1415 42L1386 32.5L1384.5 25.5L1379.5 24.5L1378.5 19.5L1369 27H1364H1360.5H1358L1355.5 28.5V31L1354.5 34L1353.5 35C1352.33 35.5 1349.8 36.5 1349 36.5C1348.2 36.5 1339.67 38.1667 1335.5 39L1319.5 42L1317 40H1314.5V42L1312 43L1308 44L1303.5 43L1301 44L1299 46H1295.5L1293.5 45L1291.5 46L1290.5 47.5L1287 45H1285.5L1280 46V47.5V51.5L1278 53H1275C1274.2 53 1272.33 52 1271.5 51.5L1269 53H1267.5L1265.5 54.5H1262H1258.5H1255.5H1252.5V57.5V60H1250L1248 61L1247 63.5C1247.33 64.1667 1248.2 65.5 1249 65.5C1249.8 65.5 1248.67 66.5 1248 67L1244.5 65.5L1241.5 61H1236V53L1228 57.5V56L1225.5 54.5L1223.5 56H1222.5L1220.5 54.5L1217.5 53H1215H1212L1208.5 51.5L1204 50L1201 51.5L1196.5 54.5H1195L1191.5 59V60L1189 61L1184.5 60L1180 57.5L1174.5 54.5L1169 59L1167 57.5L1158 56L1157 57.5H1151.5L1149.5 54.5H1137L1140 59L1138 60L1129.5 61L1124.5 59L1123 61L1118.5 63.5H1115.5H1110L1105.5 62.5L1102.5 63.5H1100H1097L1093 61H1091.5L1090 63.5H1088H1084L1082.5 62.5L1079.5 60L1077 58L1074 56.5L1073 59L1068.5 60L1065.5 59L1064.5 58L1063 54.5L1061.5 53.5L1060 52V50.5L1059.5 48H1057L1055.5 49L1051.5 50L1046.5 49L1042 48L1040 47L1038 46L1035 43.5H1032H1029C1028 43.5 1025.8 43.8 1025 45C1024.2 46.2 1022.67 45.5 1022 45L1017 43.5H1013.5H1010.5L1007.5 42H1005L1002 39H998L995.5 40.5H992L990.5 38H987.5V39H986V36.5H983L979 39L973.5 35.5L968 36.5L966.5 32.5L962 34.5H960V32.5L957.5 30L955.5 29L953 30L951.5 33.5L949.5 32.5H946L945 34.5L947 35.5V38H945L941 35.5L939 38H934.5V35.5H930V33.5H923V31L917 32.5L911.5 27.5H908.5L905.5 29L903 30L901.5 27.5L896.5 26L891.5 31L887 30L885 26L876.5 27.5H875.5H870L868 26L866 29L861 27.5L857.5 31L853 32.5L846.5 31L829 40.5H824L820.5 36.5H817.5L811 42.5L804.5 39L803 43.5H801.5L800.5 42.5H784.5L783 36.5L777 40.5L767 35.5H761H760L759 33.5L757 34.5L755 35.5H752H749.5V34.5L747 32.5H744H742.5L741 31H737.5H736L732 32.5H730.5L729 30H727H725L722.5 32.5L721 33.5L718.5 34.5H715.5H710.5L707.5 35.5L703.5 34.5H701L697.5 32.5L695 31L692.5 32.5L691.5 33.5L688 34.5H684.5L683.5 33.5H682.5L681 32.5L678.5 31L677 32.5H674.5V29L673.5 27.5L672.5 29L671.5 27.5H670.5L668.5 26H667V27L666.5 29L665 30C664.5 30 663.4 30.2 663 31C662.6 31.8 661.167 31.3333 660.5 31L657.5 30V27.5H656.5H653L654.5 29L653 31V32.5L652 31H648.5V32.5V33.5L647 32.5H645H644L643 30H639.5H637.5L635 31L633.5 30L627.5 29H626L618 30H617L611 29L606.5 31L601 29H595.5H591L588.5 31L586 33.5H583.5L585 32.5L583.5 29L581.5 27.5L579 26H577V24.5L579 23.5V21.5L577 20.5H575.5L573 21.5L572 22.5L565 24.5H559.5L557.5 27.5L556 29L554.5 27.5L551 24.5L541.5 37.0001H537.5H533.5C532.833 37.6667 530.9 39.5 528.5 41.5C527.3 42.3 526.667 41.8333 526.5 41.5H524H522.5H519L516 40.5V38.0001L515 37.0001H511.5H508.5H506C505 37.3334 502.8 38.0001 502 38.0001H498L494 39H490L487 40.5H484C483.2 40.5 481.667 39.5 481 39L479.5 38.0001C478.333 37.1667 475.8 35.5001 475 35.5001C474 35.5001 473 34.5001 472 34.5001C471.2 34.5001 471 35.1667 471 35.5001L469 38.0001L467 40.5H465H461.5H457V41.5L454 44.5H452L449.5 43H444C443.2 43 443.667 44 444 44.5L443 46.5C443.333 47 444 48.2 444 49C444 49.8 444.667 51 445 51.5H442H440L439 50.5L438 48L437 46.5L436 44.5L434.5 43L434 40.5L432 41.5C431.667 41.8333 430.8 42.5 430 42.5H427.5V41.5V40.5L426.5 38.0001L425 37.0001C424 37.0001 421.3 37.2001 418.5 38.0001C417.7 38.8001 417.167 38.3334 417 38.0001L415.159 35.5001L414.5 34.5001H412L410.5 37.0001H408H406H403.5L399 34.5001L395 37.0001L390 38.0001L383 37.0001L380 35.5001V37.0001H376L370.5 34.5001L366.5 37.0001L364.5 35.5001L361.5 31.5001L358 30.5001L356.5 26.5001L355 28.0001H352L347 25.5001L343.5 29.5001L341.5 26.5001L339.5 24.5001H337L335.5 23.5001L334.5 24.5001L332.5 23.5001V25.5001L330.5 24.5001L329.5 25.5001L325 26.5001L322 28.0001L319.5 30.5001L315 31.5001L312.5 33.5001L306.5 34.5001H302L296 35.5001L291 34.5001L288.5 31.5001H286.5H280.5H275L271 29.5001L265.5 28.0001H264.5L261.5 26.5001L258.5 24.5001L256.5 23.5001H254.5L250 22.0001L245.5 21.0001L244 20.0001L242 19.0001H241L239.5 17.5001L238 16.0001L236 14.5001L232 13.5001L230.5 12.0001L227.5 9.50005L226.5 7.50005L228.5 5.00005L220 2.50005L215.5 1.00005L213 4.57764e-05L211.5 1.00005V4.00005H210.5L206.5 5.00005L203 6.50005L199.5 8.50005C198.667 8.83339 196.8 9.50005 196 9.50005H195L191.5 8.50005L189.5 7.50005H188V8.50005L186.5 9.50005L184 10.5001L183 12.0001H182H181L180 10.5001L177.5 9.50005L176 8.50005H174.5L173.5 10.5001L172 12.0001L168.5 14.5001L166.5 16.0001H160L161 17.5001L162.5 20.0001L158 21.0001L154.5 22.0001H152.5L150 23.5001L146 24.5001L143.5 23.5001L141.5 22.0001L140.5 21.0001L139 20.0001L138 19.0001H137L135 21.0001H133L132 20.0001L130.5 19.0001H129L128 20.0001L124.5 19.0001H120.5L119.5 20.0001L118 22.0001L116.5 24.5001L113.5 25.5001H110.5L107 26.5001L105 29.0001L103.5 31.0001L99.5 28.0001L97.5 30.0001L95.5 31.0001H85H82L80.5 32.5001L76.5 34.5001H72.5H67.5L64 32.5001L59 36.0001L55 37.5001L52.5 36.0001H50.5H45.5H41.5H39.5H37L34.5 34.5001L32.5 32.5001L31 34.5001L27 36.0001L25 34.5001H22H19L15 31.0001Z" fill="#0d0e1b"/>
    <path id="FrameUpDark"
          d="M1879.5 42.9999L1895 41.4999L1894.5 0H0.5L-0.5 28.5L5.5 29.5L8.5 28.5L14 30.5L19.5 28.5H22L24 32L26.5 29.5C27.1667 29.1667 28.7 28.5 29.5 28.5H33.5L36 26.5C38.5 25.8333 43.6 24.3 44 23.5C44.4 22.7 47.5 24.1667 49 25H55.5C56.6667 26.1667 59.3 28.5 60.5 28.5C61.7 28.5 61.6667 31.5 61.5 33L64.5 29.5L66 27.5C67.8333 26.5 71.9 24.5 73.5 24.5C75.1 24.5 76.8333 25.8333 77.5 26.5L83 30.5C84.6667 30.1667 88.2 29.5 89 29.5C89.8 29.5 91 26.5 91.5 25L103.5 23.5L115 25L121.5 26.5V24.5L124 25L128.5 26.5L130.5 25H134L134.5 27.5L138 24.5L140 26.5L143 29.5L147.5 28.5L150.5 32L152.5 30.5L156 27.5H160H168L172.5 29.5L175.5 27.5L179.5 29.5L183.5 27.5L198.5 35.5L193.5 27.5L205.5 26.5L207 30.5H211.5L210.5 33H214.5V34.5L219 35.5L225 34.5V41.5L235.5 42.5H241.5V44.5L245 47L248.5 43.5L252.5 44.5L254 46L256 47L258.5 46H261H264L267 48L268.5 46H270L271.5 48L273 46H276.5V47H279L284.5 46H296L307 49H310L315.5 41.5L319 39L320.5 41.5L321.5 43.5L323.5 42.5L326 40L328 41.5H330.5V40H332.5H342L348 42.5V39H350.5H353H354.5H358.5L360.5 37.5H363.5L371 40H377L382 41.5L385.5 42.5L390.5 39L395.5 41.5L401.5 40L406.5 35L410.5 39H414L416.5 37.5H418.5L420.5 40L423.5 39L425 37.5L426.5 34L428.5 33L432 34L435.5 33L438.5 30H442L443 34H448L449.5 35H467.5L474.5 37.5L479.5 32L508.5 41.5L510 48.5L515 49.5L516 54.5L525.5 47H530.5H534H536.5L539 45.5V43L540 40L541 39C542.167 38.5 544.7 37.5 545.5 37.5C546.3 37.5 554.833 35.8333 559 35L575 32L577.5 34H580V32L582.5 31L586.5 30L591 31L593.5 30L595.5 28H599L601 29L603 28L604 26.5L607.5 29H609L614.5 28V26.5V22.5L616.5 21H619.5C620.3 21 622.167 22 623 22.5L625.5 21H627L629 19.5H632.5H636H639H642V16.5V14H644.5L646.5 13L647.5 10.5C647.167 9.83333 646.3 8.5 645.5 8.5C644.7 8.5 645.833 7.5 646.5 7L650 8.5L653 13H658.5V21L666.5 16.5V18L669 19.5L671 18H672L674 19.5L677 21H679.5H682.5L686 22.5L690.5 24L693.5 22.5L698 19.5H699.5L703 15V14L705.5 13L710 14L714.5 16.5L720 19.5L725.5 15L727.5 16.5L736.5 18L737.5 16.5H743L745 19.5H757.5L754.5 15L756.5 14L765 13L770 15L771.5 13L776 10.5H779H784.5L789 11.5L792 10.5H794.5H797.5L801.5 13H803L804.5 10.5H806.5H810.5L812 11.5L815 14L817.5 16L820.5 17.5L821.5 15L826 14L829 15L830 16L831.5 19.5L833 20.5L834.5 22V23.5L835 26H837.5L839 25L843 24L848 25L852.5 26L854.5 27L856.5 28L859.5 30.5H862.5H865.5C866.5 30.5 868.7 30.2 869.5 29C870.3 27.8 871.833 28.5 872.5 29L877.5 30.5H881H884L887 32H889.5L892.5 35H896.5L899 33.5H902.5L904 36H907V35H908.5V37.5H911.5L915.5 35L921 38.5L926.5 37.5L928 41.5L932.5 39.5H934.5V41.5L937 44L939 45L941.5 44L943 40.5L945 41.5H948.5L949.5 39.5L947.5 38.5V36H949.5L953.5 38.5L955.5 36H960V38.5H964.5V40.5H971.5V43L977.5 41.5L983 46.5H986L989 45L991.5 44L993 46.5L998 48L1003 43L1007.5 44L1009.5 48L1018 46.5H1019H1024.5L1026.5 48L1028.5 45L1033.5 46.5L1037 43L1041.5 41.5L1048 43L1065.5 33.5H1070.5L1074 37.5H1077L1083.5 31.5L1090 35L1091.5 30.5H1093L1094 31.5H1110L1111.5 37.5L1117.5 33.5L1127.5 38.5H1133.5H1134.5L1135.5 40.5L1137.5 39.5L1139.5 38.5H1142.5H1145V39.5L1147.5 41.5H1150.5H1152L1153.5 43H1157H1158.5L1162.5 41.5H1164L1165.5 44H1167.5H1169.5L1172 41.5L1173.5 40.5L1176 39.5H1179H1184L1187 38.5L1191 39.5H1193.5L1197 41.5L1199.5 43L1202 41.5L1203 40.5L1206.5 39.5H1210L1211 40.5H1212L1213.5 41.5L1216 43L1217.5 41.5H1220V45L1221 46.5L1222 45L1223 46.5H1224L1226 48H1227.5V47L1228 45L1229.5 44C1230 44 1231.1 43.8 1231.5 43C1231.9 42.2 1233.33 42.6667 1234 43L1237 44V46.5H1238H1241.5L1240 45L1241.5 43V41.5L1242.5 43H1246V41.5V40.5L1247.5 41.5H1249.5H1250.5L1251.5 44H1255H1257L1259.5 43L1261 44L1267 45H1268.5L1276.5 44H1277.5L1283.5 45L1288 43L1293.5 45H1299H1303.5L1306 43L1308.5 40.5H1311L1309.5 41.5L1311 45L1313 46.5L1315.5 48H1317.5V49.5L1315.5 50.5V52.5L1317.5 53.5H1319L1321.5 52.5L1322.5 51.5L1329.5 49.5H1335L1337 46.5L1338.5 45L1340 46.5L1343.5 49.5L1353 36.9999H1357H1361C1361.67 36.3333 1363.6 34.5 1366 32.5C1367.2 31.7 1367.83 32.1667 1368 32.5H1370.5H1372H1375.5L1378.5 33.5V35.9999L1379.5 36.9999H1383H1386H1388.5C1389.5 36.6666 1391.7 35.9999 1392.5 35.9999H1396.5L1400.5 35H1404.5L1407.5 33.5H1410.5C1411.3 33.5 1412.83 34.5 1413.5 35L1415 35.9999C1416.17 36.8333 1418.7 38.4999 1419.5 38.4999C1420.5 38.4999 1421.5 39.4999 1422.5 39.4999C1423.3 39.4999 1423.5 38.8333 1423.5 38.4999L1425.5 35.9999L1427.5 33.5H1429.5H1433H1437.5V32.5L1440.5 29.5H1442.5L1445 31H1450.5C1451.3 31 1450.83 30 1450.5 29.5L1451.5 27.5C1451.17 27 1450.5 25.8 1450.5 25C1450.5 24.2 1449.83 23 1449.5 22.5H1452.5H1454.5L1455.5 23.5L1456.5 26L1457.5 27.5L1458.5 29.5L1460 31L1460.5 33.5L1462.5 32.5C1462.83 32.1667 1463.7 31.5 1464.5 31.5H1467V32.5V33.5L1468 35.9999L1469.5 36.9999C1470.5 36.9999 1473.2 36.7999 1476 35.9999C1476.8 35.1999 1477.33 35.6666 1477.5 35.9999L1479.34 38.4999L1480 39.4999H1482.5L1484 36.9999H1486.5H1488.5H1491L1495.5 39.4999L1499.5 36.9999L1504.5 35.9999L1511.5 36.9999L1514.5 38.4999V36.9999H1518.5L1524 39.4999L1528 36.9999L1530 38.4999L1533 42.4999L1536.5 43.4999L1538 47.4999L1539.5 45.9999H1542.5L1547.5 48.4999L1551 44.4999L1553 47.4999L1555 49.4999H1557.5L1559 50.4999L1560 49.4999L1562 50.4999V48.4999L1564 49.4999L1565 48.4999L1569.5 47.4999L1572.5 45.9999L1575 43.4999L1579.5 42.4999L1582 40.4999L1588 39.4999H1592.5L1598.5 38.4999L1603.5 39.4999L1606 42.4999H1608H1614H1619.5L1623.5 44.4999L1629 45.9999H1630L1633 47.4999L1636 49.4999L1638 50.4999H1640L1644.5 51.9999L1649 52.9999L1650.5 53.9999L1652.5 54.9999H1653.5L1655 56.4999L1656.5 57.9999L1658.5 59.4999L1662.5 60.4999L1664 61.9999L1667 64.4999L1668 66.4999L1666 69L1674.5 71.5L1679 73L1681.5 74L1683 73V70H1684L1688 69L1691.5 67.4999L1695 65.4999C1695.83 65.1666 1697.7 64.4999 1698.5 64.4999H1699.5L1703 65.4999L1705 66.4999H1706.5V65.4999L1708 64.4999L1710.5 63.4999L1711.5 61.9999H1712.5H1713.5L1714.5 63.4999L1717 64.4999L1718.5 65.4999H1720L1721 63.4999L1722.5 61.9999L1726 59.4999L1728 57.9999H1734.5L1733.5 56.4999L1732 53.9999L1736.5 52.9999L1740 51.9999H1742L1744.5 50.4999L1748.5 49.4999L1751 50.4999L1753 51.9999L1754 52.9999L1755.5 53.9999L1756.5 54.9999H1757.5L1759.5 52.9999H1761.5L1762.5 53.9999L1764 54.9999H1765.5L1766.5 53.9999L1770 54.9999H1774L1775 53.9999L1776.5 51.9999L1778 49.4999L1781 48.4999H1784L1787.5 47.4999L1789.5 44.9999L1791 42.9999L1795 45.9999L1797 43.9999L1799 42.9999H1809.5H1812.5L1814 41.4999L1818 39.4999H1822H1827L1830.5 41.4999L1835.5 37.9999L1839.5 36.4999L1842 37.9999H1844H1849H1853H1855H1857.5L1860 39.4999L1862 41.4999L1863.5 39.4999L1867.5 37.9999L1869.5 39.4999H1872.5H1875.5L1879.5 42.9999Z" fill="#07070f"/>
    <path id="FrameDownDark"
          d="M15 31.0001L-0.5 32.5001L0 74H1894L1895 45.5L1889 44.5L1886 45.5L1880.5 43.5L1875 45.5H1872.5L1870.5 42L1868 44.5C1867.33 44.8333 1865.8 45.5 1865 45.5H1861L1858.5 47.5C1856 48.1667 1850.9 49.7 1850.5 50.5C1850.1 51.3 1847 49.8333 1845.5 49H1839C1837.83 47.8333 1835.2 45.5 1834 45.5C1832.8 45.5 1832.83 42.5 1833 41L1830 44.5L1828.5 46.5C1826.67 47.5 1822.6 49.5 1821 49.5C1819.4 49.5 1817.67 48.1667 1817 47.5L1811.5 43.5C1809.83 43.8333 1806.3 44.5 1805.5 44.5C1804.7 44.5 1803.5 47.5 1803 49L1791 50.5L1779.5 49L1773 47.5V49.5L1770.5 49L1766 47.5L1764 49H1760.5L1760 46.5L1756.5 49.5L1754.5 47.5L1751.5 44.5L1747 45.5L1744 42L1742 43.5L1738.5 46.5H1734.5H1726.5L1722 44.5L1719 46.5L1715 44.5L1711 46.5L1696 38.5L1701 46.5L1689 47.5L1687.5 43.5H1683L1684 41H1680V39.5L1675.5 38.5L1669.5 39.5V32.5L1659 31.5H1653V29.5L1649.5 27L1646 30.5L1642 29.5L1640.5 28L1638.5 27L1636 28H1633.5H1630.5L1627.5 26L1626 28H1624.5L1623 26L1621.5 28H1618V27H1615.5L1610 28H1598.5L1587.5 25H1584.5L1579 32.5L1575.5 35L1574 32.5L1573 30.5L1571 31.5L1568.5 34L1566.5 32.5H1564V34H1562H1552.5L1546.5 31.5V35H1544H1541.5H1540H1536L1534 36.5H1531L1523.5 34H1517.5L1512.5 32.5L1509 31.5L1504 35L1499 32.5L1493 34L1488 39L1484 35H1480.5L1478 36.5H1476L1474 34L1471 35L1469.5 36.5L1468 40L1466 41L1462.5 40L1459 41L1456 44H1452.5L1451.5 40H1446.5L1445 39H1427L1420 36.5L1415 42L1386 32.5L1384.5 25.5L1379.5 24.5L1378.5 19.5L1369 27H1364H1360.5H1358L1355.5 28.5V31L1354.5 34L1353.5 35C1352.33 35.5 1349.8 36.5 1349 36.5C1348.2 36.5 1339.67 38.1667 1335.5 39L1319.5 42L1317 40H1314.5V42L1312 43L1308 44L1303.5 43L1301 44L1299 46H1295.5L1293.5 45L1291.5 46L1290.5 47.5L1287 45H1285.5L1280 46V47.5V51.5L1278 53H1275C1274.2 53 1272.33 52 1271.5 51.5L1269 53H1267.5L1265.5 54.5H1262H1258.5H1255.5H1252.5V57.5V60H1250L1248 61L1247 63.5C1247.33 64.1667 1248.2 65.5 1249 65.5C1249.8 65.5 1248.67 66.5 1248 67L1244.5 65.5L1241.5 61H1236V53L1228 57.5V56L1225.5 54.5L1223.5 56H1222.5L1220.5 54.5L1217.5 53H1215H1212L1208.5 51.5L1204 50L1201 51.5L1196.5 54.5H1195L1191.5 59V60L1189 61L1184.5 60L1180 57.5L1174.5 54.5L1169 59L1167 57.5L1158 56L1157 57.5H1151.5L1149.5 54.5H1137L1140 59L1138 60L1129.5 61L1124.5 59L1123 61L1118.5 63.5H1115.5H1110L1105.5 62.5L1102.5 63.5H1100H1097L1093 61H1091.5L1090 63.5H1088H1084L1082.5 62.5L1079.5 60L1077 58L1074 56.5L1073 59L1068.5 60L1065.5 59L1064.5 58L1063 54.5L1061.5 53.5L1060 52V50.5L1059.5 48H1057L1055.5 49L1051.5 50L1046.5 49L1042 48L1040 47L1038 46L1035 43.5H1032H1029C1028 43.5 1025.8 43.8 1025 45C1024.2 46.2 1022.67 45.5 1022 45L1017 43.5H1013.5H1010.5L1007.5 42H1005L1002 39H998L995.5 40.5H992L990.5 38H987.5V39H986V36.5H983L979 39L973.5 35.5L968 36.5L966.5 32.5L962 34.5H960V32.5L957.5 30L955.5 29L953 30L951.5 33.5L949.5 32.5H946L945 34.5L947 35.5V38H945L941 35.5L939 38H934.5V35.5H930V33.5H923V31L917 32.5L911.5 27.5H908.5L905.5 29L903 30L901.5 27.5L896.5 26L891.5 31L887 30L885 26L876.5 27.5H875.5H870L868 26L866 29L861 27.5L857.5 31L853 32.5L846.5 31L829 40.5H824L820.5 36.5H817.5L811 42.5L804.5 39L803 43.5H801.5L800.5 42.5H784.5L783 36.5L777 40.5L767 35.5H761H760L759 33.5L757 34.5L755 35.5H752H749.5V34.5L747 32.5H744H742.5L741 31H737.5H736L732 32.5H730.5L729 30H727H725L722.5 32.5L721 33.5L718.5 34.5H715.5H710.5L707.5 35.5L703.5 34.5H701L697.5 32.5L695 31L692.5 32.5L691.5 33.5L688 34.5H684.5L683.5 33.5H682.5L681 32.5L678.5 31L677 32.5H674.5V29L673.5 27.5L672.5 29L671.5 27.5H670.5L668.5 26H667V27L666.5 29L665 30C664.5 30 663.4 30.2 663 31C662.6 31.8 661.167 31.3333 660.5 31L657.5 30V27.5H656.5H653L654.5 29L653 31V32.5L652 31H648.5V32.5V33.5L647 32.5H645H644L643 30H639.5H637.5L635 31L633.5 30L627.5 29H626L618 30H617L611 29L606.5 31L601 29H595.5H591L588.5 31L586 33.5H583.5L585 32.5L583.5 29L581.5 27.5L579 26H577V24.5L579 23.5V21.5L577 20.5H575.5L573 21.5L572 22.5L565 24.5H559.5L557.5 27.5L556 29L554.5 27.5L551 24.5L541.5 37.0001H537.5H533.5C532.833 37.6667 530.9 39.5 528.5 41.5C527.3 42.3 526.667 41.8333 526.5 41.5H524H522.5H519L516 40.5V38.0001L515 37.0001H511.5H508.5H506C505 37.3334 502.8 38.0001 502 38.0001H498L494 39H490L487 40.5H484C483.2 40.5 481.667 39.5 481 39L479.5 38.0001C478.333 37.1667 475.8 35.5001 475 35.5001C474 35.5001 473 34.5001 472 34.5001C471.2 34.5001 471 35.1667 471 35.5001L469 38.0001L467 40.5H465H461.5H457V41.5L454 44.5H452L449.5 43H444C443.2 43 443.667 44 444 44.5L443 46.5C443.333 47 444 48.2 444 49C444 49.8 444.667 51 445 51.5H442H440L439 50.5L438 48L437 46.5L436 44.5L434.5 43L434 40.5L432 41.5C431.667 41.8333 430.8 42.5 430 42.5H427.5V41.5V40.5L426.5 38.0001L425 37.0001C424 37.0001 421.3 37.2001 418.5 38.0001C417.7 38.8001 417.167 38.3334 417 38.0001L415.159 35.5001L414.5 34.5001H412L410.5 37.0001H408H406H403.5L399 34.5001L395 37.0001L390 38.0001L383 37.0001L380 35.5001V37.0001H376L370.5 34.5001L366.5 37.0001L364.5 35.5001L361.5 31.5001L358 30.5001L356.5 26.5001L355 28.0001H352L347 25.5001L343.5 29.5001L341.5 26.5001L339.5 24.5001H337L335.5 23.5001L334.5 24.5001L332.5 23.5001V25.5001L330.5 24.5001L329.5 25.5001L325 26.5001L322 28.0001L319.5 30.5001L315 31.5001L312.5 33.5001L306.5 34.5001H302L296 35.5001L291 34.5001L288.5 31.5001H286.5H280.5H275L271 29.5001L265.5 28.0001H264.5L261.5 26.5001L258.5 24.5001L256.5 23.5001H254.5L250 22.0001L245.5 21.0001L244 20.0001L242 19.0001H241L239.5 17.5001L238 16.0001L236 14.5001L232 13.5001L230.5 12.0001L227.5 9.50005L226.5 7.50005L228.5 5.00005L220 2.50005L215.5 1.00005L213 4.57764e-05L211.5 1.00005V4.00005H210.5L206.5 5.00005L203 6.50005L199.5 8.50005C198.667 8.83339 196.8 9.50005 196 9.50005H195L191.5 8.50005L189.5 7.50005H188V8.50005L186.5 9.50005L184 10.5001L183 12.0001H182H181L180 10.5001L177.5 9.50005L176 8.50005H174.5L173.5 10.5001L172 12.0001L168.5 14.5001L166.5 16.0001H160L161 17.5001L162.5 20.0001L158 21.0001L154.5 22.0001H152.5L150 23.5001L146 24.5001L143.5 23.5001L141.5 22.0001L140.5 21.0001L139 20.0001L138 19.0001H137L135 21.0001H133L132 20.0001L130.5 19.0001H129L128 20.0001L124.5 19.0001H120.5L119.5 20.0001L118 22.0001L116.5 24.5001L113.5 25.5001H110.5L107 26.5001L105 29.0001L103.5 31.0001L99.5 28.0001L97.5 30.0001L95.5 31.0001H85H82L80.5 32.5001L76.5 34.5001H72.5H67.5L64 32.5001L59 36.0001L55 37.5001L52.5 36.0001H50.5H45.5H41.5H39.5H37L34.5 34.5001L32.5 32.5001L31 34.5001L27 36.0001L25 34.5001H22H19L15 31.0001Z" fill="#07070f"/>

</svg>
