<svg fill="none" xmlns="http://www.w3.org/2000/svg">
    <path id="Frame" d="M1879.5 42.9999L1895 41.4999L1894.5 0H0.5L-0.5 28.5L5.5 29.5L8.5 28.5L14 30.5L19.5 28.5H22L24 32L26.5 29.5C27.1667 29.1667 28.7 28.5 29.5 28.5H33.5L36 26.5C38.5 25.8333 43.6 24.3 44 23.5C44.4 22.7 47.5 24.1667 49 25H55.5C56.6667 26.1667 59.3 28.5 60.5 28.5C61.7 28.5 61.6667 31.5 61.5 33L64.5 29.5L66 27.5C67.8333 26.5 71.9 24.5 73.5 24.5C75.1 24.5 76.8333 25.8333 77.5 26.5L83 30.5C84.6667 30.1667 88.2 29.5 89 29.5C89.8 29.5 91 26.5 91.5 25L103.5 23.5L115 25L121.5 26.5V24.5L124 25L128.5 26.5L130.5 25H134L134.5 27.5L138 24.5L140 26.5L143 29.5L147.5 28.5L150.5 32L152.5 30.5L156 27.5H160H168L172.5 29.5L175.5 27.5L179.5 29.5L183.5 27.5L198.5 35.5L193.5 27.5L205.5 26.5L207 30.5H211.5L210.5 33H214.5V34.5L219 35.5L225 34.5V41.5L235.5 42.5H241.5V44.5L245 47L248.5 43.5L252.5 44.5L254 46L256 47L258.5 46H261H264L267 48L268.5 46H270L271.5 48L273 46H276.5V47H279L284.5 46H296L307 49H310L315.5 41.5L319 39L320.5 41.5L321.5 43.5L323.5 42.5L326 40L328 41.5H330.5V40H332.5H342L348 42.5V39H350.5H353H354.5H358.5L360.5 37.5H363.5L371 40H377L382 41.5L385.5 42.5L390.5 39L395.5 41.5L401.5 40L406.5 35L410.5 39H414L416.5 37.5H418.5L420.5 40L423.5 39L425 37.5L426.5 34L428.5 33L432 34L435.5 33L438.5 30H442L443 34H448L449.5 35H467.5L474.5 37.5L479.5 32L508.5 41.5L510 48.5L515 49.5L516 54.5L525.5 47H530.5H534H536.5L539 45.5V43L540 40L541 39C542.167 38.5 544.7 37.5 545.5 37.5C546.3 37.5 554.833 35.8333 559 35L575 32L577.5 34H580V32L582.5 31L586.5 30L591 31L593.5 30L595.5 28H599L601 29L603 28L604 26.5L607.5 29H609L614.5 28V26.5V22.5L616.5 21H619.5C620.3 21 622.167 22 623 22.5L625.5 21H627L629 19.5H632.5H636H639H642V16.5V14H644.5L646.5 13L647.5 10.5C647.167 9.83333 646.3 8.5 645.5 8.5C644.7 8.5 645.833 7.5 646.5 7L650 8.5L653 13H658.5V21L666.5 16.5V18L669 19.5L671 18H672L674 19.5L677 21H679.5H682.5L686 22.5L690.5 24L693.5 22.5L698 19.5H699.5L703 15V14L705.5 13L710 14L714.5 16.5L720 19.5L725.5 15L727.5 16.5L736.5 18L737.5 16.5H743L745 19.5H757.5L754.5 15L756.5 14L765 13L770 15L771.5 13L776 10.5H779H784.5L789 11.5L792 10.5H794.5H797.5L801.5 13H803L804.5 10.5H806.5H810.5L812 11.5L815 14L817.5 16L820.5 17.5L821.5 15L826 14L829 15L830 16L831.5 19.5L833 20.5L834.5 22V23.5L835 26H837.5L839 25L843 24L848 25L852.5 26L854.5 27L856.5 28L859.5 30.5H862.5H865.5C866.5 30.5 868.7 30.2 869.5 29C870.3 27.8 871.833 28.5 872.5 29L877.5 30.5H881H884L887 32H889.5L892.5 35H896.5L899 33.5H902.5L904 36H907V35H908.5V37.5H911.5L915.5 35L921 38.5L926.5 37.5L928 41.5L932.5 39.5H934.5V41.5L937 44L939 45L941.5 44L943 40.5L945 41.5H948.5L949.5 39.5L947.5 38.5V36H949.5L953.5 38.5L955.5 36H960V38.5H964.5V40.5H971.5V43L977.5 41.5L983 46.5H986L989 45L991.5 44L993 46.5L998 48L1003 43L1007.5 44L1009.5 48L1018 46.5H1019H1024.5L1026.5 48L1028.5 45L1033.5 46.5L1037 43L1041.5 41.5L1048 43L1065.5 33.5H1070.5L1074 37.5H1077L1083.5 31.5L1090 35L1091.5 30.5H1093L1094 31.5H1110L1111.5 37.5L1117.5 33.5L1127.5 38.5H1133.5H1134.5L1135.5 40.5L1137.5 39.5L1139.5 38.5H1142.5H1145V39.5L1147.5 41.5H1150.5H1152L1153.5 43H1157H1158.5L1162.5 41.5H1164L1165.5 44H1167.5H1169.5L1172 41.5L1173.5 40.5L1176 39.5H1179H1184L1187 38.5L1191 39.5H1193.5L1197 41.5L1199.5 43L1202 41.5L1203 40.5L1206.5 39.5H1210L1211 40.5H1212L1213.5 41.5L1216 43L1217.5 41.5H1220V45L1221 46.5L1222 45L1223 46.5H1224L1226 48H1227.5V47L1228 45L1229.5 44C1230 44 1231.1 43.8 1231.5 43C1231.9 42.2 1233.33 42.6667 1234 43L1237 44V46.5H1238H1241.5L1240 45L1241.5 43V41.5L1242.5 43H1246V41.5V40.5L1247.5 41.5H1249.5H1250.5L1251.5 44H1255H1257L1259.5 43L1261 44L1267 45H1268.5L1276.5 44H1277.5L1283.5 45L1288 43L1293.5 45H1299H1303.5L1306 43L1308.5 40.5H1311L1309.5 41.5L1311 45L1313 46.5L1315.5 48H1317.5V49.5L1315.5 50.5V52.5L1317.5 53.5H1319L1321.5 52.5L1322.5 51.5L1329.5 49.5H1335L1337 46.5L1338.5 45L1340 46.5L1343.5 49.5L1353 36.9999H1357H1361C1361.67 36.3333 1363.6 34.5 1366 32.5C1367.2 31.7 1367.83 32.1667 1368 32.5H1370.5H1372H1375.5L1378.5 33.5V35.9999L1379.5 36.9999H1383H1386H1388.5C1389.5 36.6666 1391.7 35.9999 1392.5 35.9999H1396.5L1400.5 35H1404.5L1407.5 33.5H1410.5C1411.3 33.5 1412.83 34.5 1413.5 35L1415 35.9999C1416.17 36.8333 1418.7 38.4999 1419.5 38.4999C1420.5 38.4999 1421.5 39.4999 1422.5 39.4999C1423.3 39.4999 1423.5 38.8333 1423.5 38.4999L1425.5 35.9999L1427.5 33.5H1429.5H1433H1437.5V32.5L1440.5 29.5H1442.5L1445 31H1450.5C1451.3 31 1450.83 30 1450.5 29.5L1451.5 27.5C1451.17 27 1450.5 25.8 1450.5 25C1450.5 24.2 1449.83 23 1449.5 22.5H1452.5H1454.5L1455.5 23.5L1456.5 26L1457.5 27.5L1458.5 29.5L1460 31L1460.5 33.5L1462.5 32.5C1462.83 32.1667 1463.7 31.5 1464.5 31.5H1467V32.5V33.5L1468 35.9999L1469.5 36.9999C1470.5 36.9999 1473.2 36.7999 1476 35.9999C1476.8 35.1999 1477.33 35.6666 1477.5 35.9999L1479.34 38.4999L1480 39.4999H1482.5L1484 36.9999H1486.5H1488.5H1491L1495.5 39.4999L1499.5 36.9999L1504.5 35.9999L1511.5 36.9999L1514.5 38.4999V36.9999H1518.5L1524 39.4999L1528 36.9999L1530 38.4999L1533 42.4999L1536.5 43.4999L1538 47.4999L1539.5 45.9999H1542.5L1547.5 48.4999L1551 44.4999L1553 47.4999L1555 49.4999H1557.5L1559 50.4999L1560 49.4999L1562 50.4999V48.4999L1564 49.4999L1565 48.4999L1569.5 47.4999L1572.5 45.9999L1575 43.4999L1579.5 42.4999L1582 40.4999L1588 39.4999H1592.5L1598.5 38.4999L1603.5 39.4999L1606 42.4999H1608H1614H1619.5L1623.5 44.4999L1629 45.9999H1630L1633 47.4999L1636 49.4999L1638 50.4999H1640L1644.5 51.9999L1649 52.9999L1650.5 53.9999L1652.5 54.9999H1653.5L1655 56.4999L1656.5 57.9999L1658.5 59.4999L1662.5 60.4999L1664 61.9999L1667 64.4999L1668 66.4999L1666 69L1674.5 71.5L1679 73L1681.5 74L1683 73V70H1684L1688 69L1691.5 67.4999L1695 65.4999C1695.83 65.1666 1697.7 64.4999 1698.5 64.4999H1699.5L1703 65.4999L1705 66.4999H1706.5V65.4999L1708 64.4999L1710.5 63.4999L1711.5 61.9999H1712.5H1713.5L1714.5 63.4999L1717 64.4999L1718.5 65.4999H1720L1721 63.4999L1722.5 61.9999L1726 59.4999L1728 57.9999H1734.5L1733.5 56.4999L1732 53.9999L1736.5 52.9999L1740 51.9999H1742L1744.5 50.4999L1748.5 49.4999L1751 50.4999L1753 51.9999L1754 52.9999L1755.5 53.9999L1756.5 54.9999H1757.5L1759.5 52.9999H1761.5L1762.5 53.9999L1764 54.9999H1765.5L1766.5 53.9999L1770 54.9999H1774L1775 53.9999L1776.5 51.9999L1778 49.4999L1781 48.4999H1784L1787.5 47.4999L1789.5 44.9999L1791 42.9999L1795 45.9999L1797 43.9999L1799 42.9999H1809.5H1812.5L1814 41.4999L1818 39.4999H1822H1827L1830.5 41.4999L1835.5 37.9999L1839.5 36.4999L1842 37.9999H1844H1849H1853H1855H1857.5L1860 39.4999L1862 41.4999L1863.5 39.4999L1867.5 37.9999L1869.5 39.4999H1872.5H1875.5L1879.5 42.9999Z" fill="..."/>
</svg>
