<svg fill="none" xmlns="http://www.w3.org/2000/svg">

    <g id="codeSvg">
        <path id="Vector" fill-rule="evenodd" clip-rule="evenodd"
              d="M54.9375 126.193L81.7869 20.0625L94.3125 23.6172L67.4634 129.938L54.9375 126.193Z"
              fill="currentColor"/>
        <path id="Vector_2" fill-rule="evenodd" clip-rule="evenodd"
              d="M40.5075 38.0625L49.6875 47.7834L23.985 75.0003L49.6875 102.216L40.5075 111.938L5.625 75.0003L40.5075 38.0625Z"
              fill="currentColor"/>
        <path id="Vector_3" fill-rule="evenodd" clip-rule="evenodd"
              d="M109.493 38.0625L100.312 47.7834L126.015 75.0003L100.312 102.216L109.493 111.938L144.375 75.0003L109.493 38.0625Z"
              fill="currentColor"/>
    </g>
    <g id="reactSvg">
        <path id="Vector_4"
              d="M143.438 75C143.438 66.2499 134.062 58.125 118.438 52.5L115.625 51.5625V50.3124C119.062 33.1248 116.563 20.3124 108.75 15.6249C100.937 10.9374 89.3751 15.3124 76.875 26.2499L75 28.1249L74.3751 27.4999H73.7499C60.9375 15.6249 48.4374 11.5624 40.6251 15.9374C32.8125 20.3124 30.6249 32.4999 33.75 48.4374C34.0788 49.4514 34.2885 50.4999 34.3749 51.5625L30.9375 52.8123C15.625 58.125 6.5625 66.2499 6.5625 75C6.5625 83.7498 16.5625 92.4999 32.1876 98.1249L34.3749 98.7498C33.9888 99.8562 33.7779 101.016 33.75 102.188C30.6249 117.812 33.4374 129.687 40.6251 134.062C47.8125 138.437 60.9375 134.375 73.4376 123.437L75.3126 121.875L77.8125 124.375C86.5626 131.875 95.3124 135.937 102.188 135.937C104.612 135.993 107.001 135.341 109.063 134.062C116.875 129.687 119.687 116.875 116.25 100.625V99.9999C116.115 99.4857 116.011 98.964 115.937 98.4375H116.875C133.438 92.4999 143.438 84.0624 143.438 75ZM134.375 75C134.375 78.75 127.5 85.3125 114.062 89.6874H113.438C111.799 84.6606 109.815 79.7529 107.5 75C109.688 69.9999 111.563 64.9998 113.125 60.3123L115.625 60.9375C128.125 65.3124 134.375 71.25 134.375 75ZM83.7501 117.5L81.2499 115.625C84.8283 111.66 88.1673 107.486 91.2501 103.125L107.188 100.625C107.5 101.25 107.5 101.875 107.812 102.188C108.926 107.848 109.137 113.649 108.437 119.375C107.999 122.113 106.682 124.636 104.687 126.562C101.563 128.437 93.1251 125.937 83.7501 117.5ZM79.6875 103.75L75.3126 109.375L70.3125 103.75H79.6875ZM36.8751 60C38.4456 65.1522 40.4313 70.1685 42.8124 75C40.4295 79.938 38.4438 85.0584 36.8751 90.3123L35.0001 89.6874C29.5277 87.9603 24.4362 85.2024 20 81.5625C18.8513 80.8365 17.8682 79.8771 17.1144 78.7464C16.3607 77.616 15.8532 76.3395 15.625 75C15.625 71.25 21.875 65.3124 33.75 61.2498L36.8751 60ZM70.3125 46.2498L75 40.9374L79.6875 46.2498H70.3125ZM104.687 23.4374C108.125 25.3124 110 34.6875 107.188 48.4374C107.202 48.6066 107.182 48.7773 107.128 48.9384C107.074 49.0995 106.988 49.248 106.875 49.3749L91.2501 46.875C88.1673 42.5136 84.8283 38.3397 81.2499 34.3749L83.1249 32.8125C93.1251 24.0624 101.25 21.5624 104.687 23.4374ZM52.5 56.5623L50.0001 60.6249L47.8125 64.6875C46.875 62.4999 46.2501 60.3123 45.3126 57.8124L52.5 56.5623ZM45.3126 92.1873C46.2501 90 46.875 87.8124 47.8125 85.3125L50.0001 89.3748L52.5 93.4374L45.3126 92.1873ZM97.5 75C95.9097 78.426 94.1364 81.7644 92.1876 84.9999C90.3126 88.4373 88.125 91.5624 86.25 94.6875H63.75C61.5624 91.2498 59.3751 88.125 57.8124 84.9999C55.8483 81.7731 54.0744 78.4341 52.5 75C54.0162 71.5374 55.7922 68.1945 57.8124 64.9998C59.6079 61.7622 61.5903 58.632 63.75 55.6248C71.2371 55.0002 78.7629 55.0002 86.25 55.6248C88.4376 58.7499 90.3126 61.875 92.1876 64.9998C94.2078 68.1945 95.9838 71.5374 97.5 75ZM99.9999 60.6249L97.5 56.5623L104.687 58.125C103.992 60.3624 103.157 62.5542 102.188 64.6875L99.9999 60.6249ZM97.5 93.4374L99.9999 89.3748L102.188 84.9999L105 92.1873L97.5 93.4374ZM68.4375 34.0623H68.7501L58.7499 46.5624L43.125 49.0623C42.8124 48.1248 42.8124 47.4999 42.5001 46.5624C39.9999 33.75 41.8749 24.9999 45 23.4374C45.8298 22.8925 46.83 22.6702 47.8125 22.8124C52.1874 22.8124 59.6874 25.9374 68.1249 33.4374L68.4375 34.0623ZM42.5001 103.75C42.5571 102.785 42.768 101.836 43.125 100.937L59.0625 103.125C62.067 107.544 65.4102 111.724 69.0624 115.625L68.4375 116.25L67.8126 116.875C63.552 120.821 58.5633 123.9 53.1249 125.937C51.9321 126.562 50.625 126.94 49.2825 127.047C47.94 127.155 46.5897 126.99 45.3126 126.562C41.8749 124.687 39.9999 116.25 42.5001 103.75Z"
              fill="currentColor"/>
        <path id="Vector_5"
              d="M75 61.2498C72.2682 61.1877 69.5796 61.941 67.2777 63.4137C64.9758 64.8861 63.1647 67.0113 62.076 69.5178C60.9873 72.024 60.6699 74.7981 61.1646 77.4855C61.6596 80.1729 62.9436 82.6521 64.8537 84.6066C66.7635 86.5608 69.2127 87.9018 71.8881 88.4583C74.5635 89.0145 77.3439 88.761 79.8747 87.7302C82.4055 86.6994 84.5715 84.9378 86.0967 82.6704C87.6219 80.403 88.4367 77.7324 88.4376 74.9997C88.4385 71.4066 87.0327 67.9557 84.5214 65.3859C82.0098 62.8161 78.5922 61.3314 75 61.2498Z"
              fill="currentColor"/>
    </g>
    <g id="css3Svg">
        <path id="Vector_6"
              d="M114.152 32.5311L38.838 32.5131L40.0545 47.2641L97.9143 47.2731L96.4557 62.5506H58.5105L59.8824 77.0226H95.2074L93.1176 96.8418L76.4907 101.366L59.5989 96.8103L58.524 84.9402H43.6077L45.2631 106.623L76.4907 116.202L107.193 107.596L114.148 32.5356L114.152 32.5311ZM16.4953 7.70619H136.495L125.58 129L76.3626 142.706L27.4198 128.99L16.4953 7.70619Z"
              fill="currentColor"/>
    </g>
    <g id="typeScriptSvg">
        <path id="Vector_7"
              d="M15 75V135H135V15H15V75ZM111.705 70.2201C114.755 70.98 117.075 72.3351 119.21 74.5449C120.315 75.7251 121.955 77.8749 122.085 78.3951C122.125 78.5451 116.905 82.0449 113.745 84.0099C113.63 84.0849 113.17 83.5899 112.66 82.83C111.11 80.58 109.495 79.6101 107.02 79.44C103.38 79.1901 101.04 81.0951 101.06 84.2751C101.027 85.0569 101.203 85.8336 101.57 86.5251C102.37 88.1799 103.86 89.175 108.52 91.1901C117.115 94.89 120.79 97.3251 123.075 100.79C125.625 104.655 126.2 110.83 124.465 115.42C122.565 120.41 117.84 123.8 111.19 124.92C109.135 125.285 104.26 125.23 102.05 124.83C97.23 123.97 92.6601 121.59 89.8401 118.465C88.7349 117.25 86.58 114.065 86.715 113.84C86.7699 113.76 87.2649 113.455 87.8151 113.135C88.3551 112.83 90.3699 111.665 92.2749 110.56L95.7249 108.56L96.45 109.63C97.4601 111.17 99.6651 113.285 101 113.99C104.83 116.01 110.085 115.725 112.675 113.4C113.196 112.961 113.608 112.408 113.88 111.784C114.151 111.159 114.275 110.48 114.24 109.8C114.24 108.41 114.065 107.8 113.34 106.75C112.41 105.42 110.505 104.3 105.095 101.95C98.9049 99.285 96.24 97.6299 93.8001 95.0001C92.277 93.2643 91.1523 91.2165 90.5049 89.0001C90.0501 87.3051 89.9349 83.055 90.2949 81.345C91.5699 75.36 96.0849 71.1951 102.6 69.9549C104.715 69.555 109.63 69.705 111.705 70.2201ZM83.535 75.2301L83.5749 80.145H67.95V124.525H56.9001V80.145H41.2899V75.3249C41.2899 72.6549 41.3451 70.425 41.4201 70.3749C41.4801 70.2951 50.985 70.2549 62.505 70.275L83.4801 70.335L83.535 75.2301Z"
              fill="currentColor"/>
    </g>
    <g id="styledComponentsSvg">
        <path id="Vector_8"
              d="M111.777 18.75L110.966 22.9489C109.712 30.9063 110.166 33.183 113.605 36.1362L116.924 38.8638L113.486 54.0915C111.431 63.1764 108.912 70.7904 107.312 73.2924C105.939 75.4509 104.339 78.6297 103.993 80.3373C103.42 82.3776 101.474 84.4287 98.5002 86.2434C95.8728 87.7254 90.7155 91.6989 87.0609 94.8882C84.1416 97.4979 82.1307 99.0978 81.0387 99.7851L77.4705 102.588C76.3245 104.414 75.6759 105.885 75.4272 107.002C75.1785 108.151 75.3189 108.913 75.6867 109.472C76.0434 110.009 76.6596 110.384 77.5029 110.621C78.5013 110.853 79.5291 110.936 80.5521 110.868C82.8666 110.71 85.1574 110.307 87.3852 109.665C88.1421 109.461 88.7367 109.267 89.2557 109.096C90.0558 108.118 91.9047 106.271 95.1807 103.061C103.874 94.5447 107.193 89.8839 103.766 91.1406C102.501 91.5915 103.074 90.4533 105.247 88.1766C109.831 83.7414 112.459 77.0403 117.951 56.0244C122.298 39.4329 122.298 39.1968 125.498 39.1968C127.001 39.1968 131.25 39.4545 131.25 39.4545V18.75H121.498H111.777ZM73.2648 54.2418C70.1076 54.2205 63.3174 58.9992 42.9909 75.4833C42.1149 77.5557 42.0393 78.984 42.4392 79.9077C42.6987 80.5413 43.1745 80.9814 43.8342 81.3036C44.4828 81.6258 45.3261 81.8193 46.2561 81.8943C48.105 82.0554 50.289 81.7656 52.0512 81.4218L53.2407 81.1533C53.6478 80.6112 54.1824 80.1762 54.7977 79.8861C56.0517 79.1988 61.3173 74.4309 66.5829 69.3192C75.8487 59.9979 78.0219 55.7883 74.2485 54.4245C73.9389 54.3021 73.5978 54.24 73.2648 54.2418ZM97.008 60.7173C94.2294 60.7926 89.2233 63.9927 80.6493 70.7904C76.3461 74.259 73.6215 76.1277 72.1617 76.5141L66.4962 80.9601C64.3662 84.8259 64.0527 87.2208 64.6149 88.5417C64.7556 88.8675 64.9599 89.1624 65.2161 89.4093C65.4723 89.6565 65.775 89.8506 66.1071 89.9808C66.933 90.3045 67.8138 90.4686 68.7018 90.4638C70.824 90.4413 72.9336 90.1344 74.973 89.5512C76.0359 89.2677 77.0856 88.9383 78.1194 88.563L78.4329 88.4343L79.0059 88.1337C80.0871 86.7483 82.5738 84.1386 85.6878 81.132C95.5269 71.7033 100.554 65.0022 99.5274 62.4999C99.0624 61.2864 98.2623 60.6744 97.008 60.7173ZM70.7994 72.3153C69.9993 72.4011 68.2047 73.7757 64.9719 76.5894C60.3009 80.6916 55.2084 83.0541 53.4462 82.0017C53.0364 82.0935 52.6257 82.1796 52.2135 82.2594C50.4186 82.6137 48.1806 82.9038 46.1802 82.7427C45.2379 82.686 44.3142 82.4565 43.4556 82.0662C42.6459 81.6984 41.9997 81.0492 41.6391 80.2404C41.2392 79.2741 41.2392 78.0714 41.6934 76.5357L34.6653 82.2702L18.7608 95.3394V116.527L70.8753 75.7518C70.8651 75.3054 70.9233 74.8599 71.0481 74.4309C71.4483 72.9918 71.4267 72.2616 70.7994 72.3261V72.3153ZM93.2238 79.1775C92.4345 79.1775 91.1154 80.2836 89.007 82.5063C86.142 85.5456 81.6333 88.488 79.2438 89.0892L78.876 89.2827C78.4839 89.4435 78.0873 89.5938 77.6868 89.7336C77.0382 89.9484 76.1946 90.2061 75.2217 90.4638C73.2756 90.99 70.8537 91.4733 68.691 91.4196C67.6716 91.4184 66.6621 91.2216 65.7177 90.8397C64.8279 90.4755 64.1148 89.7825 63.7284 88.9068C63.1014 87.414 63.3501 85.32 64.7232 82.3455L18.75 118.31V131.25H38.9469L81.7845 97.8309C82.8981 96.6066 84.5742 94.9314 86.8338 92.8371C92.8887 87.2637 94.2618 85.3416 94.2618 82.4958C94.2618 80.2836 94.0131 79.1667 93.2238 79.1667V79.1775ZM103.42 100.118L99.7542 103.748C97.7001 105.681 94.0347 108.065 91.5264 109.085L91.029 109.3L90.9966 109.354L90.8883 109.461C90.7911 109.536 90.7479 109.547 90.6723 109.579C89.6709 109.955 88.6536 110.289 87.6231 110.578C85.3323 111.24 82.9758 111.654 80.5953 111.813C79.4697 111.884 78.3396 111.787 77.2434 111.523C76.2921 111.315 75.4524 110.764 74.8866 109.976C74.3676 109.182 74.2161 108.118 74.508 106.808C74.7402 105.876 75.0852 104.974 75.5352 104.124L40.9689 131.25H86.9421L92.4345 125C99.9813 116.259 103.42 110.009 103.42 104.661V100.118Z"
              fill="currentColor"/>
    </g>
    <g id="gitSvg">
        <path id="Vector_9"
              d="M147.169 68.3157L81.675 2.83126C80.7783 1.93409 79.7136 1.22239 78.5418 0.736824C77.3697 0.251252 76.1139 0.00132751 74.8452 0.00132751C73.5768 0.00132751 72.3207 0.251252 71.1489 0.736824C69.9771 1.22239 68.9124 1.93409 68.0157 2.83126L54.4218 16.425L71.6718 33.675C73.7064 32.9805 75.8949 32.8716 77.9883 33.3615C80.0814 33.8511 81.9948 34.9194 83.5101 36.4443C85.0251 37.9692 86.0811 39.8895 86.5572 41.9859C87.0336 44.082 86.9109 46.2702 86.2032 48.3L102.825 64.9314C105.284 64.0653 107.965 64.0629 110.426 64.9239C112.887 65.7849 114.981 67.4583 116.364 69.6684C117.747 71.8785 118.336 74.4939 118.034 77.0835C117.732 79.6731 116.557 82.0827 114.703 83.9157C112.826 85.8042 110.352 86.9823 107.702 87.2493C105.053 87.516 102.393 86.8545 100.177 85.3782C97.9617 83.9016 96.3273 81.7017 95.5533 79.1538C94.7796 76.6062 94.9143 73.869 95.9343 71.4093L80.4375 55.9032V96.7125C82.7931 97.8786 84.6777 99.8166 85.7775 102.204C86.8776 104.591 87.126 107.283 86.4816 109.831C85.8372 112.379 84.339 114.629 82.2369 116.207C80.1345 117.784 77.5551 118.594 74.9283 118.5C72.3018 118.406 69.7866 117.415 67.8021 115.691C65.8176 113.968 64.4838 111.616 64.023 109.029C63.5619 106.441 64.002 103.774 65.2692 101.471C66.5367 99.1686 68.5548 97.3701 70.9875 96.375V55.1907C69.5841 54.6156 68.3082 53.7684 67.2336 52.6977C66.159 51.6273 65.307 50.3547 64.7265 48.9534C64.146 47.5518 63.8487 46.0494 63.8517 44.5326C63.8547 43.0158 64.158 41.5146 64.7439 40.1157L47.7468 23.1094L2.84063 68.0157C1.94345 68.9124 1.23175 69.9771 0.746184 71.1489C0.260613 72.3207 0.0106888 73.5768 0.0106888 74.8452C0.0106888 76.1139 0.260613 77.37 0.746184 78.5418C1.23175 79.7136 1.94345 80.7783 2.84063 81.675L68.3343 147.169C69.231 148.066 70.2957 148.777 71.4678 149.263C72.6396 149.749 73.8957 149.999 75.1641 149.999C76.4325 149.999 77.6886 149.749 78.8604 149.263C80.0322 148.777 81.0969 148.066 81.9939 147.169L147.178 81.9843C148.075 81.0876 148.787 80.0229 149.272 78.8511C149.758 77.6793 150.008 76.4232 150.008 75.1548C150.008 73.8861 149.758 72.6303 149.272 71.4582C148.787 70.2864 148.075 69.2217 147.178 68.325"
              fill="currentColor"/>
    </g>
    <g id="githubSvg">
        <path d="M8 0C3.58 0 0 3.58 0 8c0 3.54 2.29 6.53 5.47 7.59.4.07.55-.17.55-.38 0-.19-.01-.82-.01-1.49-2.01.37-2.53-.49-2.69-.94-.09-.23-.48-.94-.82-1.13-.28-.15-.68-.52-.01-.53.63-.01 1.08.58 1.23.82.72 1.21 1.87.87 2.33.66.07-.52.28-.87.51-1.07-1.78-.2-3.64-.89-3.64-3.95 0-.87.31-1.59.82-2.15-.08-.2-.36-1.02.08-2.12 0 0 .67-.21 2.2.82.64-.18 1.32-.27 2-.27s1.36.09 2 .27c1.53-1.04 2.2-.82 2.2-.82.44 1.1.16 1.92.08 2.12.51.56.82 1.27.82 2.15 0 3.07-1.87 3.75-3.65 3.95.29.25.54.73.54 1.48 0 1.07-.01 1.93-.01 2.2 0 .21.15.46.55.38A8.01 8.01 0 0 0 16 8c0-4.42-3.58-8-8-8"
              fill="currentColor"/>
    </g>
    <g id="telegramSvg">
        <path d="M16 8A8 8 0 1 1 0 8a8 8 0 0 1 16 0M8.287 5.906q-1.168.486-4.666 2.01-.567.225-.595.442c-.03.243.275.339.69.47l.175.055c.408.133.958.288 1.243.294q.39.01.868-.32 3.269-2.206 3.374-2.23c.05-.012.12-.026.166.016s.042.12.037.141c-.03.129-1.227 1.241-1.846 1.817-.193.18-.33.307-.358.336a8 8 0 0 1-.188.186c-.38.366-.664.64.015 1.088.327.216.589.393.85.571.284.194.568.387.936.629q.14.092.27.187c.331.236.63.448.997.414.214-.02.435-.22.547-.82.265-1.417.786-4.486.906-5.751a1.4 1.4 0 0 0-.013-.315.34.34 0 0 0-.114-.217.53.53 0 0 0-.31-.093c-.3.005-.763.166-2.984 1.09"
              fill="currentColor"/>
    </g>
    <g id="mailSvg">
        <path d="M.05 3.555A2 2 0 0 1 2 2h12a2 2 0 0 1 1.95 1.555L8 8.414zM0 4.697v7.104l5.803-3.558zM6.761 8.83l-6.57 4.027A2 2 0 0 0 2 14h12a2 2 0 0 0 1.808-1.144l-6.57-4.027L8 9.586zm3.436-.586L16 11.801V4.697z"
              fill="currentColor"/>
    </g>
    <g id="whatsappSvg">
        <path d="M13.601 2.326A7.85 7.85 0 0 0 7.994 0C3.627 0 .068 3.558.064 7.926c0 1.399.366 2.76 1.057 3.965L0 16l4.204-1.102a7.9 7.9 0 0 0 3.79.965h.004c4.368 0 7.926-3.558 7.93-7.93A7.9 7.9 0 0 0 13.6 2.326zM7.994 14.521a6.6 6.6 0 0 1-3.356-.92l-.24-.144-2.494.654.666-2.433-.156-.251a6.56 6.56 0 0 1-1.007-3.505c0-3.626 2.957-6.584 6.591-6.584a6.56 6.56 0 0 1 4.66 1.931 6.56 6.56 0 0 1 1.928 4.66c-.004 3.639-2.961 6.592-6.592 6.592m3.615-4.934c-.197-.099-1.17-.578-1.353-.646-.182-.065-.315-.099-.445.099-.133.197-.513.646-.627.775-.114.133-.232.148-.43.05-.197-.1-.836-.308-1.592-.985-.59-.525-.985-1.175-1.103-1.372-.114-.198-.011-.304.088-.403.087-.088.197-.232.296-.346.1-.114.133-.198.198-.33.065-.134.034-.248-.015-.347-.05-.099-.445-1.076-.612-1.47-.16-.389-.323-.335-.445-.34-.114-.007-.247-.007-.38-.007a.73.73 0 0 0-.529.247c-.182.198-.691.677-.691 1.654s.71 1.916.81 2.049c.098.133 1.394 2.132 3.383 2.992.47.205.84.326 1.129.418.475.152.904.129 1.246.08.38-.058 1.171-.48 1.338-.943.164-.464.164-.86.114-.943-.049-.084-.182-.133-.38-.232"
              fill="currentColor"/>
    </g>
    <g id="backSvg">
        <path fill-rule="evenodd" clip-rule="evenodd"
              d="M85.7852 0.0360206C101.496 -0.682995 115.271 9.49381 128.538 18.7928C142.692 28.7146 159.881 37.6645 164.714 55.3621C169.527 72.985 159.777 90.8775 152.791 107.595C146.594 122.426 138.989 136.503 126.876 145.912C114.885 155.225 100.348 161.615 85.7852 159.641C71.9985 157.773 63.7442 142.784 51.4371 135.689C35.8671 126.713 13.2706 129.457 4.4181 112.735C-4.44637 95.9896 1.49371 73.5911 9.39468 56.2707C16.6576 40.3489 32.0889 32.492 45.5382 22.5914C58.3669 13.1476 70.3688 0.741563 85.7852 0.0360206Z"
              fill="currentColor"/>
    </g>
    <g id="linkSvg">
        <path d="M4.715 6.542 3.343 7.914a3 3 0 1 0 4.243 4.243l1.828-1.829A3 3 0 0 0 8.586 5.5L8 6.086a1 1 0 0 0-.154.199 2 2 0 0 1 .861 3.337L6.88 11.45a2 2 0 1 1-2.83-2.83l.793-.792a4 4 0 0 1-.128-1.287z"
              fill="currentColor"/>
        <path d="M6.586 4.672A3 3 0 0 0 7.414 9.5l.775-.776a2 2 0 0 1-.896-3.346L9.12 3.55a2 2 0 1 1 2.83 2.83l-.793.792c.112.42.155.855.128 1.287l1.372-1.372a3 3 0 1 0-4.243-4.243z"
              fill="currentColor"/>
    </g>
    <g id="bootstrapSvg">
        <path d="M6.375 7.125V4.658h1.78c.973 0 1.542.457 1.542 1.237 0 .802-.604 1.23-1.764 1.23zm0 3.762h1.898c1.184 0 1.81-.48 1.81-1.377 0-.885-.65-1.348-1.886-1.348H6.375z"
              fill="currentColor"/>
        <path d="M4.002 0a4 4 0 0 0-4 4v8a4 4 0 0 0 4 4h8a4 4 0 0 0 4-4V4a4 4 0 0 0-4-4zm1.06 12V3.545h3.399c1.587 0 2.543.809 2.543 2.11 0 .884-.65 1.675-1.483 1.816v.1c1.143.117 1.904.931 1.904 2.033 0 1.488-1.084 2.396-2.888 2.396z"
              fill="currentColor"/>
    </g>
    <g id="html5Svg">
        <path d="M2 1L3.45583 18.1004L9.99042 20L16.5417 18.0979L18 1H2ZM14.8333 6.59821H7.16667L7.33333 8.76116H14.6667L14.1038 15.1817L10 16.373L5.88833 15.1855L5.60583 11.8996H7.61667L7.75917 13.5659L10 14.1927L12.2258 13.5599L12.4583 10.8393H5.5L4.97542 4.49507H15.0083L14.8333 6.59821Z"
              fill="currentColor"/>

    </g>
    <g id="vsCodeSvg">
        <path d="M0 5.8636L1.91525 5.20726L6.61017 8.72454L14.4237 1L19 3.05314V17.9637L14.322 20L6.52542 12.3428L1.91525 15.8601L0 15.2205L4.69492 10.5757L0 5.8636ZM9.05085 10.5589L14.3729 14.4801V6.57042L9.05085 10.5589Z" fill="currentColor"/>
    </g>
    <g id="figmaSvg">
        <path d="M16 16c0-7.109 10.667-7.109 10.667 0s-10.667 7.109-10.667 0zM5.333 26.667c0-2.948 2.385-5.333 5.333-5.333h5.333v5.333c0 7.109-10.667 7.109-10.667 0zM16 0v10.667h5.333c7.109 0 7.109-10.667 0-10.667zM5.333 5.333c0 2.948 2.385 5.333 5.333 5.333h5.333v-10.667h-5.333c-2.948 0-5.333 2.385-5.333 5.333zM5.333 16c0 2.948 2.385 5.333 5.333 5.333h5.333v-10.667h-5.333c-2.948 0-5.333 2.385-5.333 5.333z" fill="currentColor"/>
    </g>
    <g id="javaScriptSvg">
        <path d="M32,32V480H480V32ZM272,380c0,43.61-25.76,64.87-63.05,64.87-33.68,0-53.23-17.44-63.15-38.49h0l34.28-20.75c6.61,11.73,11.63,21.65,26.06,21.65,12,0,21.86-5.41,21.86-26.46V240h44Zm99.35,63.87c-39.09,0-64.35-17.64-76.68-42h0L329,382c9,14.74,20.75,24.56,41.5,24.56,17.44,0,27.57-7.72,27.57-19.75,0-14.43-10.43-19.54-29.68-28l-10.52-4.52c-30.38-12.92-50.52-29.16-50.52-63.45,0-31.57,24.05-54.63,61.64-54.63,26.77,0,46,8.32,59.85,32.68L396,290c-7.22-12.93-15-18-27.06-18-12.33,0-20.15,7.82-20.15,18,0,12.63,7.82,17.74,25.86,25.56l10.52,4.51c35.79,15.34,55.94,31,55.94,66.16C441.12,424.13,411.35,443.87,371.35,443.87Z" fill="currentColor"/>
    </g>
    <g id="sassSvg">
        <path d="m27.533 13.796c.039-.001.085-.002.132-.002.834 0 1.623.194 2.323.54l-.031-.014c.638.311 1.162.771 1.541 1.335l.009.014c.299.436.477.975.477 1.555 0 .042-.001.084-.003.125v-.006c-.031.579-.294 1.09-.698 1.448l-.002.002c-.221.217-.488.387-.785.495l-.015.005q-.25.05-.275-.075t.225-.275c.452-.274.779-.716.898-1.237l.003-.013c.003-.042.005-.091.005-.141 0-.311-.074-.605-.205-.865l.005.011c-.217-.453-.541-.825-.94-1.094l-.01-.006c-.597-.384-1.313-.636-2.083-.699l-.016-.001c-.262-.039-.564-.061-.872-.061-.801 0-1.566.151-2.27.426l.042-.015c.145.339.236.732.249 1.144v.005c-.016.845-.47 1.58-1.145 1.99l-.011.006c-.31.22-.664.413-1.041.563l-.035.012c-.229.112-.498.177-.782.177-.033 0-.065-.001-.097-.003h.005q-.949-.199-.45-1.65c.145-.421.348-.786.605-1.107l-.006.007c.329-.43.69-.807 1.089-1.141l.011-.009-.098-.146c-.183-.312-.351-.675-.486-1.054l-.014-.046q-.15-.5-.25-.949l-.05-.35-.5.949q-.65 1.2-1.25 2.099l-.15.25c.168.408.292.881.348 1.375l.002.025c.004.047.006.103.006.159 0 .758-.374 1.428-.948 1.837l-.007.005c-.274.169-.601.344-.94.5l-.06.025c-.353.153-.762.253-1.191.275h-.009c-.033.002-.072.004-.111.004-.25 0-.487-.057-.699-.158l.01.004c-.127-.109-.207-.269-.207-.448 0-.091.021-.178.058-.255l-.002.004c.4-.561.794-1.049 1.213-1.515l-.013.015 1.1-1.399-.199-.45c-.16-.294-.313-.641-.436-1.001l-.014-.048q-.15-.5-.25-.949l-.05-.35-.5 1.2q-.599 1.399-1.1 2.399-.747 1.5-1.25 2.3l-.1.15q-.599.949-1.15.949t-.747-.7c-.096-.344-.152-.739-.152-1.147 0-.036 0-.072.001-.108v.005l.1-.7v.05q-.4.949-.8 1.749c-.177.346-.359.641-.563.919l.013-.019c-.206.216-.496.35-.817.35-.003 0-.005 0-.008 0-.021.002-.045.002-.069.002-.253 0-.483-.096-.657-.253l.001.001c-.349-.358-.608-.805-.742-1.304l-.005-.021c-.164-.455-.258-.981-.258-1.529 0-.071.002-.141.005-.21v.01c.079-.796.238-1.525.471-2.22l-.021.071-1.799 1.05v.05c.261.542.414 1.178.414 1.85 0 .123-.005.245-.015.365l.001-.016c-.053 1.03-.382 1.973-.913 2.77l.013-.02c-.557.884-1.36 1.567-2.314 1.962l-.033.012c-.537.241-1.165.382-1.825.382-.418 0-.824-.056-1.208-.162l.032.007c-.318-.107-.578-.319-.743-.593l-.003-.006c-.233-.338-.38-.751-.403-1.196v-.006c-.011-.101-.017-.218-.017-.337 0-.513.117-.999.326-1.432l-.009.02c.574-.979 1.368-1.772 2.316-2.33l.03-.016c.671-.465 1.442-.916 2.247-1.309l.106-.047.25-.15q-.45-.35-1.65-1.2c-1.069-.716-1.998-1.439-2.874-2.221l.025.022c-.847-.729-1.464-1.703-1.741-2.812l-.008-.038c-.026-.154-.041-.331-.041-.511 0-.564.145-1.094.399-1.555l-.008.017c.56-1.204 1.336-2.219 2.288-3.035l.012-.01c1.03-.973 2.196-1.82 3.462-2.506l.087-.043c1.131-.653 2.452-1.26 3.829-1.747l.17-.052c1.279-.468 2.756-.742 4.296-.747h.002c.07-.002.153-.004.236-.004 1.241 0 2.415.287 3.459.798l-.046-.021c.9.41 1.574 1.182 1.844 2.126l.006.024c.083.322.13.692.13 1.073 0 .632-.131 1.234-.366 1.78l.011-.029c-.428 1.037-1.037 1.92-1.797 2.647l-.003.003c-.77.763-1.693 1.373-2.718 1.78l-.055.019c-1.074.461-2.321.751-3.63.799l-.019.001c-.192.022-.414.034-.639.034-.592 0-1.163-.085-1.703-.244l.043.011c-.483-.154-.9-.393-1.254-.703l.004.003c-.248-.202-.45-.451-.594-.734l-.006-.013q-.15-.4-.025-.475t.175-.025l.25.25c.279.259.612.463.98.593l.02.006c.506.176 1.09.278 1.697.278.195 0 .387-.01.576-.031l-.023.002c1.618-.191 3.077-.743 4.336-1.573l-.037.023c1.064-.633 1.925-1.503 2.531-2.54l.018-.034c.301-.442.481-.988.481-1.576 0-.361-.068-.707-.192-1.025l.007.019c-.374-.591-.979-1.007-1.685-1.122l-.014-.002c-.548-.135-1.178-.213-1.825-.213-.521 0-1.031.05-1.524.146l.05-.008c-1.687.304-3.195.825-4.586 1.541l.091-.043q-6.148 3.1-6.349 6.349v.049c0 .873.343 1.666.902 2.252l-.001-.001c.637.708 1.341 1.333 2.11 1.873l.039.026c.701.524 1.321 1.065 1.898 1.649l.001.002.1.1 3.2-1.749c.365-.528.804-.974 1.308-1.334l.016-.011c.4-.336.908-.555 1.465-.599l.009-.001c.02-.002.043-.002.067-.002.373 0 .693.225.831.547l.002.006c.105.235.166.51.166.799 0 .088-.006.175-.017.261l.001-.01-.097.493.15-.1c.104-.079.235-.126.377-.126.09 0 .175.019.252.053l-.004-.002c.192.05.331.222.331.426 0 .035-.004.069-.012.102l.001-.003-.15.55q-.45 1.799-.599 2.599c-.05.173-.078.372-.078.578 0 .043.001.085.004.127v-.006q.025.3.075.3t.199-.3l.15-.35q.05 0 0 .05l.55-1.15q1.95-4.298 2.099-4.8l.3-.949q.05-.1.4-.199c.237-.064.508-.101.788-.101.023 0 .046 0 .068.001h-.003q.7 0 .7.35l-.05.25c-.112.308-.223.693-.309 1.087l-.011.063c-.02.129-.032.277-.032.429 0 .202.02.399.059.59l-.003-.019.05.199c.102.417.257.783.46 1.117l-.01-.017q.599-.999 1.15-2.049c.29-.483.56-1.043.777-1.629l.023-.07c.075-.377.161-.695.266-1.005l-.016.056q.05-.15.427-.225c.238-.048.511-.075.79-.075h.036-.002q.7 0 .747.35l-.1.199c-.119.336-.223.74-.293 1.155l-.006.045c-.009.097-.015.209-.015.323 0 .239.024.473.069.699l-.004-.023v.199c.115.436.286.819.51 1.166l-.01-.016.15.35c.835-.41 1.817-.65 2.855-.65h.039-.002zm-21.439 7.253c.695-.718 1.124-1.698 1.124-2.778 0-.417-.064-.819-.182-1.197l.008.028-.8.5c-.816.465-1.522.984-2.161 1.574l.008-.007c-.485.446-.843 1.023-1.019 1.674l-.006.025q-.225.925.225 1.2c.183.084.398.133.623.133.246 0 .479-.058.684-.162l-.009.004c.594-.216 1.097-.559 1.497-.998l.003-.003zm6.697-4.604q.25-.65.55-1.55.4-1.2.275-1.399t-.475-.05c-.278.135-.511.32-.697.547l-.003.004c-.208.263-.406.557-.582.866l-.018.034c-.202.331-.373.712-.492 1.116l-.009.034c-.193.523-.305 1.128-.305 1.758 0 .085.002.169.006.253v-.012q.05.999.32 1.075t.625-.725c.229-.413.433-.893.585-1.396l.014-.054q.149-.354.204-.501zm5.546 2.65c.693-.311 1.181-.966 1.249-1.741l.001-.008v-.05l-.55.7-.999 1.1c-.015.012-.025.03-.025.05 0 .02.01.038.024.05q.048.049.3-.1zm4.299-.95c.756-.216 1.3-.901 1.3-1.712 0-.013 0-.026 0-.039v.002c-.01-.2-.046-.388-.105-.566l.004.015c-.389.346-.708.76-.939 1.227l-.011.023q-.451.899-.252 1.048z" fill="currentColor"/>
    </g>
    <g id="listSvg">
    <path fill-rule="evenodd" d="M2.5 12a.5.5 0 0 1 .5-.5h10a.5.5 0 0 1 0 1H3a.5.5 0 0 1-.5-.5m0-4a.5.5 0 0 1 .5-.5h10a.5.5 0 0 1 0 1H3a.5.5 0 0 1-.5-.5m0-4a.5.5 0 0 1 .5-.5h10a.5.5 0 0 1 0 1H3a.5.5 0 0 1-.5-.5" fill="currentColor"/>
    </g>
    <g id="xSvg">
        <path d="M4.646 4.646a.5.5 0 0 1 .708 0L8 7.293l2.646-2.647a.5.5 0 0 1 .708.708L8.707 8l2.647 2.646a.5.5 0 0 1-.708.708L8 8.707l-2.646 2.647a.5.5 0 0 1-.708-.708L7.293 8 4.646 5.354a.5.5 0 0 1 0-.708" fill="currentColor"/>

    </g>

</svg>
