<svg width="50" height="50" viewBox="0 0 50 50" fill="none" xmlns="http://www.w3.org/2000/svg">
    <g clip-path="url(#clip0_2_2)">
        <path opacity="0.921569" d="M33.45 11.8L33.35 12L33.2 11.95L33.45 11.8Z" fill="#8D7EF0" stroke="#8D7EF0"/>
        <path opacity="0.921569" d="M28.75 12.7C29.1033 12.62 29.32 12.67 29.4 12.85L29.5 13.35L29.4 13.6L28.75 13.7L28.4 13.15L28.75 12.7Z" fill="#8D7EF0" stroke="#8D7EF0"/>
        <path opacity="0.921569" d="M32.45 13L32.35 13.2" stroke="#8D7EF0"/>
        <path opacity="0.921569" d="M32.25 13.4L32.3 13.55L32.1 13.65L32.25 13.4Z" fill="#8D7EF0" stroke="#8D7EF0"/>
        <path opacity="0.921569" d="M31.85 14.4L31.9 14.55L31.7 14.65L31.85 14.4Z" fill="#8D7EF0" stroke="#8D7EF0"/>
        <path opacity="0.921569" d="M31.75 14.8L31.6 15.05L31.4 15.8L30.1 16.15L30.3 16.7C30.52 16.6133 30.5867 16.73 30.5 17.05L30.6 17.55L30.4 17.95L30.3 18.7C30.12 18.6267 30.0533 18.6767 30.1 18.85L29.9 19.3L29.6 19.45C29.5467 19.7967 29.6467 19.9967 29.9 20.05V20.45H29.8V20.15L29.25 19.6L26.7 17.45L26.6 16.85L26.95 16.3L27.35 16.1L30.65 15.9L31.3 15.65L31.5 15.05L31.75 14.8Z" fill="#8D7EF0" stroke="#8D7EF0"/>
        <path opacity="0.921569" d="M19.85 19.7L20.4 19.8C20.3533 20.14 20.4867 20.3567 20.8 20.45L20.5 21L19.95 21.2L19.3 20.65V20.25L19.65 19.8L19.85 19.7ZM19.9 20.5L19.8 20.9L20.1 21L20.2 20.8L19.9 20.5Z" fill="#8D7EF0" stroke="#8D7EF0"/>
        <path opacity="0.921569" d="M27.85 19.7L28.4 19.8C28.3267 19.98 28.3767 20.0467 28.55 20L28.65 20.2L28.25 19.9L28.2 20.1C26.8867 20.4733 25.77 21.0733 24.85 21.9L24.7 21.85C24.7333 22.1167 24.65 22.2667 24.45 22.3L24 22.4L24.1 22.85L23.95 22.8L23.5 22.9L23.4 23.25C23.5867 23.37 23.5367 23.4867 23.25 23.6H23V23.8C22.82 23.7267 22.7533 23.7767 22.8 23.95L22.3 24.35C22.3533 24.5033 22.3033 24.5533 22.15 24.5L20.2 25.85L20.05 26.1L19.5 26.3C19.5533 26.5533 19.47 26.72 19.25 26.8L19.05 26.7L18.3 27L18.4 27.4L17.9 27.5L17.8 27.9L16.95 27.6L16.65 28L17 28.05C16.8667 28.4033 16.5333 28.52 16 28.4L15.9 28.8H15.55C15.1033 29.2333 14.5533 29.5333 13.9 29.7V29.9H13.7C13.7733 30.08 13.7233 30.1467 13.55 30.1L12.6 30.55C12.5267 30.77 12.5767 30.8533 12.75 30.8L13.4 30.55L13.35 30.4H13.55C13.77 30.3267 13.8533 30.3767 13.8 30.55L13.5 31.35L13.1 31.9L12.8 32.05L12.7 32.5C12.52 32.4267 12.4533 32.4767 12.5 32.65L11.8 33.75L10.45 36.6L10.5 36.45L11.2 34.65L13.5 30.85V30.65L13.05 31C11.8233 31.8067 10.7567 32.7733 9.85 33.9L9.45 34C9.27 33.92 9.22 33.7033 9.3 33.35L10 31.9C10.18 31.9733 10.2467 31.9233 10.2 31.75C11.2867 30.2033 12.5367 28.82 13.95 27.6L15.3 26.6C15.2267 26.42 15.2767 26.3533 15.45 26.4L17.25 25L21.25 22.5L24.45 20.9L27.85 19.7ZM12.1 30.8L11.9 30.9L11.4 31.5V31.3C11.2 31.3667 11.1333 31.3333 11.2 31.2C11.1333 31 11.0333 31 10.9 31.2C10.9667 31.3333 10.9333 31.3667 10.8 31.3V31.5L10.5 31.9L10.2 32V32.3L9.7 32.9L9.4 33.6L9.6 33.8H9.8L10.8 32.9V32.7H11C10.9333 32.5 11 32.4333 11.2 32.5L11.8 31.7L12.4 31.3L12.6 31C12.5333 30.8 12.3667 30.7333 12.1 30.8Z" fill="#8D7EF0" stroke="#8D7EF0"/>
        <path opacity="0.921569" d="M37.65 19.7L37.45 20" stroke="#8D7EF0"/>
        <path opacity="0.921569" d="M28.85 20.3C29.0233 20.2467 29.0733 20.33 29 20.55H28.9L28.85 20.3Z" fill="#8D7EF0" stroke="#8D7EF0"/>
        <path opacity="0.921569" d="M28.95 20.7L28.9 20.85L28.75 21.3L28.7 21.15L28.95 20.7Z" fill="#8D7EF0" stroke="#8D7EF0"/>
        <path opacity="0.921569" d="M29.65 20.9L29.7 21.25H29.6L29.65 20.9Z" fill="#8D7EF0" stroke="#8D7EF0"/>
        <path opacity="0.921569" d="M29.45 22L29.5 22.25L29.25 22.7L29.2 22.55L29.45 22Z" fill="#8D7EF0" stroke="#8D7EF0"/>
        <path opacity="0.921569" d="M15.75 22.5C16.15 22.4 16.4 22.45 16.5 22.65V22.9L16.7 22.95V23.35L16.25 23.8H15.75L15.3 23.15L15.75 22.5Z" fill="#8D7EF0" stroke="#8D7EF0"/>
        <path opacity="0.921569" d="M27.95 22.8L27.85 23" stroke="#8D7EF0"/>
        <path opacity="0.921569" d="M29.15 22.8C29.3367 22.8867 29.3533 22.97 29.2 23.05C29.2533 23.3033 29.2033 23.4533 29.05 23.5L29.1 23.35L29.15 22.8Z" fill="#8D7EF0" stroke="#8D7EF0"/>
        <path opacity="0.921569" d="M33.05 23L32.95 23.2" stroke="#8D7EF0"/>
        <path opacity="0.921569" d="M32.75 23.2L32.65 23.4" stroke="#8D7EF0"/>
        <path opacity="0.921569" d="M34.65 23.4L34.75 23.6" stroke="#8D7EF0"/>
        <path opacity="0.921569" d="M32.25 23.5L32.15 23.7" stroke="#8D7EF0"/>
        <path opacity="0.921569" d="M26.95 23.6L26.85 23.8" stroke="#8D7EF0"/>
        <path opacity="0.921569" d="M29.05 23.6L29.1 23.75L29 24.15L29.45 24.8L30.35 24.7V24.8L29.75 25L29.1 24.7L28.9 23.85L29.05 23.6Z" fill="#8D7EF0" stroke="#8D7EF0"/>
        <path opacity="0.921569" d="M35.15 23.7L35.25 23.9" stroke="#8D7EF0"/>
        <path opacity="0.921569" d="M38.15 23.8L38.2 24.25H38.1L38.15 23.8Z" fill="#8D7EF0" stroke="#8D7EF0"/>
        <path opacity="0.921569" d="M31.55 23.9L31.7 23.95L31.45 24.1L31.55 23.9Z" fill="#8D7EF0" stroke="#8D7EF0"/>
        <path opacity="0.921569" d="M31.25 24.1L31.15 24.3" stroke="#8D7EF0"/>
        <path opacity="0.921569" d="M35.95 24.2L36.05 24.4" stroke="#8D7EF0"/>
        <path opacity="0.921569" d="M30.8 24.3L31 24.35L30.8 24.45V24.3Z" fill="#8D7EF0" stroke="#8D7EF0"/>
        <path opacity="0.921569" d="M30.65 24.4L30.7 24.55L30.5 24.65L30.65 24.4Z" fill="#8D7EF0" stroke="#8D7EF0"/>
        <path opacity="0.921569" d="M37.95 24.6L37.85 24.8" stroke="#8D7EF0"/>
        <path opacity="0.921569" d="M24.35 25.8L24.25 26" stroke="#8D7EF0"/>
        <path opacity="0.921569" d="M33.05 25.8L33.3 26.15H33.2L33.05 25.8Z" fill="#8D7EF0" stroke="#8D7EF0"/>
        <path opacity="0.921569" d="M33.25 26.3L33.3 26.45L32.9 26.75L33.25 26.3Z" fill="#8D7EF0" stroke="#8D7EF0"/>
        <path opacity="0.921569" d="M23.65 26.5L23.55 26.7" stroke="#8D7EF0"/>
        <path opacity="0.921569" d="M32.35 26.5L32.45 26.7" stroke="#8D7EF0"/>
        <path opacity="0.921569" d="M25.35 27.3L25.7 27.55L25.9 28L26.6 28.45L26.35 28.8L25.8 29.15L25.45 29.7L25.1 29.6C25.0733 29.2867 24.9233 29.0533 24.65 28.9L24.2 28.65C24.1533 28.4033 24.2033 28.2533 24.35 28.2H24.55L25 27.75L25.1 27.4L25.35 27.3ZM25.4 27.4L25.2 27.6L25.4 27.9V28L25.6 27.9L25.8 28L25.6 27.8C25.6667 27.6 25.6 27.5333 25.4 27.6V27.4ZM25.3 27.7L25 28.1L24.7 28.2L24.8 28.4L25 28.3L25.3 27.9V27.7Z" fill="#8D7EF0" stroke="#8D7EF0"/>
        <path opacity="0.921569" d="M20.05 30.3L19.95 30.5" stroke="#8D7EF0"/>
        <path opacity="0.921569" d="M16.35 32.4L16.15 32.7" stroke="#8D7EF0"/>
        <path opacity="0.921569" d="M17.25 33.7L17.05 34" stroke="#8D7EF0"/>
        <path opacity="0.921569" d="M14.85 33.9L14.65 34.2" stroke="#8D7EF0"/>
        <path opacity="0.921569" d="M10.35 37L10.25 37.2" stroke="#8D7EF0"/>
        <path opacity="0.921569" d="M10.25 37.3L10.3 37.55H10.2L10.25 37.3Z" fill="#8D7EF0" stroke="#8D7EF0"/>
        <path opacity="0.921569" d="M10.15 38.7L10.25 38.9" stroke="#8D7EF0"/>
        <path opacity="0.976471" d="M38.05 12.2L38.1 12.45L37.95 12.7C37.73 12.6267 37.6467 12.6767 37.7 12.85V13.05L37.75 13.2H37.95L38.15 13.3L38.2 13.1L37.9 12.95L38.05 13L38.45 13.1L38.6 13.05C38.3667 13.15 38.3333 13.25 38.5 13.35C38.5333 13.6167 38.45 13.7667 38.25 13.8L37.9 13.55L37.75 13.3L37.4 13.2V12.8H37.55L37.8 12.3L38.05 12.2ZM38.1 13.3L38 13.5C38.2667 13.5667 38.3667 13.5333 38.3 13.4L38.1 13.3Z" fill="#7399F7" stroke="#7399F7"/>
        <path opacity="0.976471" d="M38.45 12.3L38.85 12.8C39.0233 12.7467 39.0733 12.83 39 13.05L38.6 13.35L38.9 12.95L38.55 12.7L38.25 12.9L38.35 12.7C38.5233 12.7533 38.5733 12.67 38.5 12.45L38.45 12.3Z" fill="#7399F7" stroke="#7399F7"/>
        <path opacity="0.976471" d="M30.75 15.9L31.1 16.05L30.9 16.65V17.25L31.1 17.9C31.3467 17.8 31.4467 17.85 31.4 18.05L32.1 18.55L32.3 19L32.5 19.05C32.3333 19.15 32.3667 19.25 32.6 19.35C32.5533 19.67 32.6367 19.8533 32.85 19.9C33.0033 19.8533 33.0533 19.9033 33 20.05C33.0867 20.2367 33.17 20.2533 33.25 20.1L34 20.5V20.8C34.2467 20.7 34.3467 20.75 34.3 20.95L34.4 21.2L35.35 21.5L35.55 21.4C35.73 21.4867 35.7467 21.57 35.6 21.65L35.95 22L36.6 21.9L36.85 22.4L37.1 22.3L37.15 22.1L37.35 22.2L37.5 21.85L37.4 21.55H37.5L38.1 23.65V24.35L37.75 24.8L37.15 25L34.15 23.1L33.45 22.8L32.05 23.7H31.8C31.8867 23.9 31.8033 23.9667 31.55 23.9L31.05 24.3H30.8L30.75 24.5L30.6 24.45L30.45 24.7L29.45 24.8C29.1367 24.6533 28.9867 24.3367 29 23.85L29.1 23.65C28.9333 23.55 28.9667 23.45 29.2 23.35L29.3 22.95L29.2 22.75L29.5 22.05V21.85L29.7 21.25V20.75L29.9 20.45V20.05C29.6533 19.9967 29.5533 19.7967 29.6 19.45L29.9 19.3L30.1 18.7C30.3 18.7867 30.3667 18.7033 30.3 18.45L30.6 17.55V17.15L30.5 16.7C30.3 16.7867 30.2333 16.7033 30.3 16.45L30.1 16.15L30.75 15.9ZM37.2 22.3L37.3 22.8L37.4 22.4L37.2 22.3Z" fill="#7399F7" stroke="#7399F7"/>
        <path opacity="0.976471" d="M40.05 16.3L40.25 16.6" stroke="#7399F7"/>
        <path opacity="0.976471" d="M40.35 16.7L40.4 17.15H40.3L40.35 16.7Z" fill="#7399F7" stroke="#7399F7"/>
        <path opacity="0.976471" d="M40.15 17.6L39.95 17.9" stroke="#7399F7"/>
        <path opacity="0.976471" d="M39.55 18.1L39.45 18.3" stroke="#7399F7"/>
        <path opacity="0.976471" d="M38.45 19L38.15 19.4" stroke="#7399F7"/>
        <path opacity="0.976471" d="M28.25 19.9C28.4367 20.26 28.62 20.3767 28.8 20.25L28.65 20.5L28.45 20.2L28.3 20.25L28.45 20.5L28.25 20.4L28.1 20.65C28.2467 20.7367 28.23 20.82 28.05 20.9C27.97 20.7533 27.8867 20.77 27.8 20.95L27.05 21.9L26.7 22.05L26.55 22.3L23.65 23.9L22.95 24.5L20.95 25.7L18.55 27.8L18.1 28L17.75 28.5C17.6033 28.4533 17.5533 28.5033 17.6 28.65L16.5 29.65L16.1 30.15L15.1 31.4C14.92 31.3267 14.8533 31.3767 14.9 31.55L13.8 32.9C13.62 32.8267 13.5533 32.8767 13.6 33.05C12.6267 34.1767 11.7767 35.4267 11.05 36.8L10.95 36.5C10.9567 37.1067 10.79 37.54 10.45 37.8L10.4 37.65L10.5 37.45H10.3L10.2 37.25L10.4 37.2L10.3 36.85L10.4 36.6C10.6 36.6867 10.6667 36.6033 10.6 36.35L12.5 32.5C12.7 32.5867 12.7667 32.5033 12.7 32.25L12.95 31.9C13.1033 31.9533 13.1533 31.9033 13.1 31.75L13.5 31.35L13.8 30.4L12.6 30.8L12.75 30.4L13.7 30.1V29.9H13.9C13.8267 29.72 13.8767 29.6533 14.05 29.7L15.55 28.8H15.9L16 28.4C16.5333 28.52 16.8667 28.4033 17 28.05L16.6 27.95L16.95 27.6L17.05 27.7L17.8 27.9L17.9 27.5L18.4 27.4L18.3 27L19.15 26.7C19.27 26.8867 19.3867 26.8367 19.5 26.55C19.4267 26.33 19.4767 26.2467 19.65 26.3L20.2 25.95L20.35 25.7H20.55C21.0367 25.1467 21.62 24.7467 22.3 24.5L22.45 24.2L22.8 23.95C22.7533 23.7767 22.82 23.7267 23 23.8V23.6H23.25V23.4C23.33 23.5533 23.4133 23.5367 23.5 23.35V23.15C23.4267 22.93 23.4767 22.8467 23.65 22.9L24 22.8V22.4H24.15L24.7 22.05L24.75 21.8L24.85 21.9L25.25 21.5C26.13 20.8933 27.1133 20.4267 28.2 20.1L28.25 19.9Z" fill="#7399F7" stroke="#7399F7"/>
        <path opacity="0.976471" d="M19.95 20.4L20.2 20.55L20.1 20.85C20.1533 21.0033 20.1033 21.0533 19.95 21C19.8033 20.9533 19.7533 20.8033 19.8 20.55L19.95 20.4Z" fill="#7399F7" stroke="#7399F7"/>
        <path opacity="0.976471" d="M37.35 21.2L37.45 21.4L37.25 21.5L37.3 21.35L37.35 21.2Z" fill="#7399F7" stroke="#7399F7"/>
        <path opacity="0.976471" d="M28.75 21.3L28.8 21.45C28.62 21.6033 28.5533 21.87 28.6 22.25L28.35 22.6L28.05 22.8C27.8367 22.6867 27.8533 22.57 28.1 22.45C28.1467 22.2767 28.08 22.2267 27.9 22.3L27.7 22.65L27.9 22.85L27.45 23.3L27.3 23.25L27.05 23.6L27 23.45L27.05 23.2L27.15 23.3C27.3033 23.0133 27.4533 22.93 27.6 23.05L27.7 22.75L27.4 22.7L27.35 22.9L27.25 22.7L27.05 22.8C26.95 22.6333 26.85 22.6667 26.75 22.9C26.6033 22.8533 26.5533 22.9033 26.6 23.05C26.8533 23.17 26.87 23.2867 26.65 23.4L26.45 23.5L26.25 23.4L25.5 23.85C25.7867 23.9967 25.87 24.1467 25.75 24.3L26.05 24.2L26.1 24.4H25.9C25.9733 24.58 25.9233 24.6467 25.75 24.6L25.25 25.1L25.15 25L25 24.95L25.7 24.55V24.15L25.55 24L25.1 24.35L25.15 24.5C24.8833 24.4667 24.7333 24.55 24.7 24.75L24.5 25.05C24.4667 25.25 24.3167 25.3333 24.05 25.3C23.95 25.1333 23.85 25.1667 23.75 25.4C23.53 25.3267 23.4467 25.3767 23.5 25.55L23.4 25.8C23.1533 25.7 23.0533 25.75 23.1 25.95L22.6 26.3L22.95 25.8C23.1033 25.8533 23.1533 25.8033 23.1 25.65L24.2 24.8C24.1267 24.62 24.1767 24.5533 24.35 24.6L25.6 23.6C25.5267 23.42 25.5767 23.3533 25.75 23.4L28.75 21.3ZM28.3 22.1L28.2 22.3L28.4 22.2L28.3 22.1ZM24.1 25L24.3 25.2C24.3667 25 24.3 24.9333 24.1 25Z" fill="#7399F7" stroke="#7399F7"/>
        <path opacity="0.976471" d="M37.05 21.5L37 21.65L36.95 21.9L36.9 21.65L37.05 21.5Z" fill="#7399F7" stroke="#7399F7"/>
        <path opacity="0.976471" d="M26.85 23.5L26.8 23.65L26.65 23.9L26.6 23.6L26.85 23.5Z" fill="#7399F7" stroke="#7399F7"/>
        <path opacity="0.976471" d="M26.45 23.7L26.5 24.05H26.4L26.45 23.7Z" fill="#7399F7" stroke="#7399F7"/>
        <path opacity="0.976471" d="M25.85 23.8L26.1 23.85L25.85 23.9V23.8Z" fill="#7399F7" stroke="#7399F7"/>
        <path opacity="0.976471" d="M24.75 25.2C24.9833 25.3333 24.95 25.4667 24.65 25.6L24.75 25.2Z" fill="#7399F7" stroke="#7399F7"/>
        <path opacity="0.976471" d="M24.35 25.7L24.5 25.75L24.25 25.9L24.35 25.7Z" fill="#7399F7" stroke="#7399F7"/>
        <path opacity="0.976471" d="M32.75 25.7L33.2 26.05L33.3 26.25L32.85 26.8L32.3 26.45V26H32.5C32.4267 25.82 32.4767 25.7533 32.65 25.8L32.75 25.7Z" fill="#7399F7" stroke="#7399F7"/>
        <path opacity="0.976471" d="M24.15 26L23.75 26.5L22.45 27.7L22.8 27.25L22.75 27.1C22.87 27.2867 22.9867 27.2367 23.1 26.95C23.0533 26.8033 23.1033 26.7533 23.25 26.8L23.5 26.4L23.8 26.25L23.75 26.1L23.95 26.2L24.15 26Z" fill="#7399F7" stroke="#7399F7"/>
        <path opacity="0.976471" d="M22.45 26.3V26.6C22.25 26.5 22.25 26.4 22.45 26.3Z" fill="#7399F7" stroke="#7399F7"/>
        <path opacity="0.976471" d="M21.8 26.9C22 26.8333 22.0667 26.9 22 27.1C21.8 27.1667 21.7333 27.1 21.8 26.9Z" fill="#7399F7" stroke="#7399F7"/>
        <path opacity="0.976471" d="M21.65 27.1V27.4C21.45 27.3 21.45 27.2 21.65 27.1Z" fill="#7399F7" stroke="#7399F7"/>
        <path opacity="0.976471" d="M25.35 27.4L25.4 27.6C25.58 27.5267 25.6467 27.5767 25.6 27.75L25.75 28L25.55 27.9L25.35 28L25.2 27.95L24.95 28.3L24.7 28.45L24.8 28.75L24.75 28.9L24.6 28.65L24.7 28.35C24.6533 28.2033 24.7033 28.1533 24.85 28.2L25.2 27.75C25.02 27.63 25.07 27.5133 25.35 27.4Z" fill="#7399F7" stroke="#7399F7"/>
        <path opacity="0.976471" d="M22.35 27.8L21.25 29" stroke="#7399F7"/>
        <path opacity="0.976471" d="M25.95 28.2L26.1 28.25L25.85 28.4L25.95 28.2Z" fill="#7399F7" stroke="#7399F7"/>
        <path opacity="0.976471" d="M24.45 28.3V28.6C24.25 28.5 24.25 28.4 24.45 28.3Z" fill="#7399F7" stroke="#7399F7"/>
        <path opacity="0.976471" d="M19.85 30.5L19.65 30.8" stroke="#7399F7"/>
        <path opacity="0.976471" d="M12.05 30.8C12.35 30.7333 12.5333 30.7833 12.6 30.95L12.4 31.25L11.8 31.7L11.15 32.5C10.9767 32.4533 10.9267 32.52 11 32.7H10.8V32.85L9.75 33.8H9.55L9.4 33.55L9.7 32.85L10.2 32.25V32L10.5 31.85L10.8 31.45L10.75 31.3C10.9033 31.3533 10.9533 31.3033 10.9 31.15C11 30.95 11.1 30.95 11.2 31.15C11.1533 31.3033 11.2033 31.3533 11.35 31.3C11.4367 31.4533 11.52 31.4367 11.6 31.25L11.85 30.9L12.05 30.8Z" fill="#7399F7" stroke="#7399F7"/>
        <path opacity="0.976471" d="M19.05 31.4L18.95 31.6" stroke="#7399F7"/>
        <path opacity="0.976471" d="M18.75 31.8L18.65 32" stroke="#7399F7"/>
        <path opacity="0.976471" d="M20.95 32.5L20.85 32.7" stroke="#7399F7"/>
        <path opacity="0.976471" d="M17.85 32.9L17.75 33.1" stroke="#7399F7"/>
        <path opacity="0.976471" d="M20.65 33.1L20.8 33.35H20.7L20.65 33.1Z" fill="#7399F7" stroke="#7399F7"/>
        <path opacity="0.976471" d="M17.45 33.4L17.35 33.6" stroke="#7399F7"/>
        <path opacity="0.976471" d="M13.95 34.9L13.85 35.1" stroke="#7399F7"/>
        <path opacity="0.976471" d="M12.95 36.1L12.85 36.3" stroke="#7399F7"/>
        <path opacity="0.976471" d="M10.1 37.6C10.3667 37.5067 10.4333 37.69 10.3 38.15L10 38.3L10.1 37.6Z" fill="#7399F7" stroke="#7399F7"/>
        <path opacity="0.976471" d="M11.55 37.9L11.45 38.1" stroke="#7399F7"/>
        <path opacity="0.988235" d="M33.55 11.8L34.3 12.35L34.9 13.85L35.1 14.05L35.6 15.55L35.95 15.9H37.05L38.15 16.1H39.55L40.3 16.65C40.22 16.97 40.2533 17.17 40.4 17.25L39.65 18.1L39.2 18.3C39.2733 18.48 39.2233 18.5467 39.05 18.5L37.9 19.4C37.9733 19.58 37.9233 19.6467 37.75 19.6L37.4 19.8L37.2 20.15V20.75L37.4 21.15L37.3 21.4L37.5 21.45L37.4 21.65L37.5 21.85L37.35 22.2L37.15 22.1L37.1 22.3L37.4 22.35L37.25 22.8L37.05 22.3L36.85 22.4L36.6 21.9L35.95 22L35.6 21.65C35.7467 21.57 35.73 21.4867 35.55 21.4L35.15 21.5C35.0033 21.2667 34.7533 21.1667 34.4 21.2L34.3 20.8H34C34.1 20.5533 34.05 20.4533 33.85 20.5L33.25 20.1C33.17 20.2533 33.0867 20.2367 33 20.05C33.0533 19.9033 33.0033 19.8533 32.85 19.9L32.4 19.15L32.45 19C32.3033 19.0533 32.2533 19.0033 32.3 18.85L31.85 18.3C31.5833 18.3333 31.4333 18.25 31.4 18.05C31.4467 17.85 31.3467 17.8 31.1 17.9V17.65C30.9 17.45 30.8333 17.1167 30.9 16.65L31.1 16.05L31.05 15.9L31.4 15.8L31.6 15.05L31.8 14.85C31.6333 14.75 31.6667 14.65 31.9 14.55V14.25L32.3 13.55V13.25L32.5 13.05L32.7 12.35L33.05 12C33.3367 12.0533 33.5033 11.9867 33.55 11.8ZM37 21.6L36.9 21.9H37V21.6Z" fill="#79C3FA" stroke="#79C3FA"/>
        <path opacity="0.988235" d="M38.15 12.2L38.4 12.25L38.65 12.8L38.9 12.95L38.55 13.4L38.45 13.1C38.23 13.0267 38.1467 13.0767 38.2 13.25L38.3 13.5C38.0467 13.6 37.9467 13.55 38 13.35L38.05 13.2L37.85 13.3L37.6 12.95L37.7 12.7L38 12.65L37.9 12.45L38.15 12.2Z" fill="#79C3FA" stroke="#79C3FA"/>
        <path opacity="0.988235" d="M28.35 20.2L28.55 20.3C28.67 20.12 28.7867 20.17 28.9 20.45V20.75L28.55 21.5L25.6 23.4C25.6733 23.58 25.6233 23.6467 25.45 23.6L24.2 24.6L24.3 24.85L24.15 24.8L23.5 25.35L23.75 25.4C23.85 25.1667 23.95 25.1333 24.05 25.3L24.3 25.25L24 25.05L24.3 25L24.35 25.2L24.5 24.9C24.68 24.9733 24.7467 24.9233 24.7 24.75L25.2 24.45L25.1 24.35C25.3867 24.2033 25.47 24.0533 25.35 23.9L25.55 24V23.8L26.45 23.3L26.65 23.4L26.6 23.05C26.5533 22.9033 26.6033 22.8533 26.75 22.9C26.85 22.6667 26.95 22.6333 27.05 22.8L27.35 22.6L27.65 22.7L27.75 22.5L27.55 22.6L27.65 22.4L27.85 22.5L27.9 22.3L28.2 22.15C28.0533 22.07 28.07 21.9867 28.25 21.9L28.4 21.95L28.2 22.05L28.4 22.15L28.1 22.3L28 22.55C28.1533 22.6367 28.1367 22.72 27.95 22.8L27.75 22.9L27.6 22.85C27.6333 23.1167 27.55 23.2667 27.35 23.3C27.2367 23.12 27.12 23.17 27 23.45L26.85 23.7L26.6 23.6L26.55 23.9L26.45 23.7C26.4633 24.0133 26.3633 24.2133 26.15 24.3H25.95L25.6 24.45L25.65 24.6L25 24.95L25.2 25.05L25 25.1C25.0733 25.28 25.0233 25.3467 24.85 25.3L24.6 25.7L24.2 25.85L23.95 26.2L23.5 26.4L23.25 26.8C23.1033 26.7533 23.0533 26.8033 23.1 26.95L20.4 29.85V30H20.2V30.2C20.02 30.1267 19.9533 30.1767 20 30.35L19.2 31.4L18.9 31.55L16.55 34.5L16 34.7L15.9 34.05L16.5 32.4L15.9 32.7V32.9H15.7V33.1H15.5V33.3H15.3V33.5H15.1V33.7C14.92 33.6267 14.8533 33.6767 14.9 33.85C13.5867 35.1967 12.42 36.6467 11.4 38.2C11.22 38.1267 11.1533 38.1767 11.2 38.35L10.8 38.6C10.8733 38.78 10.8233 38.8467 10.65 38.8L10.35 38.9L10.1 38.35V38.15L10.15 38L10.25 38.2L10.3 37.55L10.45 37.4L10.55 37.6C10.8567 37.4067 10.99 37.04 10.95 36.5L11.05 36.8L12.5 34.45L13.5 33.25L13.6 32.9C13.78 32.9733 13.8467 32.9233 13.8 32.75L14.9 31.4C15.08 31.4733 15.1467 31.4233 15.1 31.25L16.1 30H16.3V29.8C16.48 29.8733 16.5467 29.8233 16.5 29.65L17.6 28.65C17.5533 28.5033 17.6033 28.4533 17.75 28.5L18.1 28L18.55 27.8L20.95 25.7L22.95 24.5L23.65 23.9L26.7 22.15L26.85 21.9L27.2 21.75L28.25 20.4L28.45 20.5L28.35 20.2ZM25.9 23.8V23.9H26.1L25.9 23.8ZM23.5 25.4L23.1 25.7C23.0333 25.8333 23.1333 25.8667 23.4 25.8L23.5 25.6V25.4ZM23 25.8L22.6 26.3L23.1 26C23.1667 25.8 23.1333 25.7333 23 25.8ZM21.8 26.9C21.7333 27.1 21.8 27.1667 22 27.1C22.0667 26.9 22 26.8333 21.8 26.9Z" fill="#79C3FA" stroke="#79C3FA"/>
        <path opacity="0.988235" d="M31.35 21.5L31.7 21.65L31.55 21.7L31.35 21.6L31.1 21.75L31.35 21.5Z" fill="#79C3FA" stroke="#79C3FA"/>
        <path opacity="0.988235" d="M37.85 24.2L37.75 24.4" stroke="#79C3FA"/>
        <path opacity="0.988235" d="M21.05 32.5C21.35 32.4333 21.5333 32.4833 21.6 32.65L21.8 33.15L21.6 33.5L21.25 33.6L20.8 33.5C20.8533 33.2733 20.7867 33.1233 20.6 33.05L21.05 32.5Z" fill="#79C3FA" stroke="#79C3FA"/>
    </g>
    <defs>
        <clipPath id="clip0_2_2">
            <rect width="50" height="50" fill="white"/>
        </clipPath>
    </defs>
</svg>
