<svg width="236" height="236" version="1.1" xmlns="http://www.w3.org/2000/svg"><path fill="rgb(0,0,0)" stroke="rgb(0,0,0)" stroke-width="1" opacity="0" d="M 0 0 L 236 0 L 236 236 L 0 236 L 0 0 Z M 141 27 L 134 40 L 129 58 L 117 59 Q 105 62 98 68 L 85 82 Q 78 92 76 107 L 61 109 L 54 112 Q 47 116 44 124 L 46 129 Q 47 132 40 130 L 36 137 L 33 176 L 32 177 L 30 196 L 33 198 L 41 200 L 45 199 L 45 201 Q 57 202 63 196 L 68 190 L 69 171 L 70 170 L 70 163 L 71 162 L 71 155 L 73 145 L 74 145 L 74 159 L 71 170 Q 70 176 75 178 Q 74 184 77 183 L 76 185 L 78 185 L 77 187 L 80 190 L 81 188 Q 83 189 81 191 L 85 196 L 87 195 L 87 197 L 89 196 L 95 198 L 95 196 L 101 198 L 105 198 L 112 192 Q 115 191 114 194 L 119 197 L 127 194 L 129 206 Q 139 204 144 209 L 162 208 L 171 197 L 174 191 Q 176 184 173 183 L 175 179 Q 176 171 174 167 L 181 169 L 187 169 L 188 172 L 193 175 L 197 174 L 200 169 Q 202 158 199 153 L 185 129 L 184 122 L 184 120 L 185 117 L 183 96 L 175 80 Q 165 66 147 61 L 146 41 L 145 40 L 144 29 L 141 27 Z " /><path fill="rgb(110,131,143)" stroke="rgb(110,131,143)" stroke-width="1" opacity="0.9450980392156862" d="M 141.5 31 Q 144.9 41.6 143 57.5 L 141 58.5 L 140.5 57 L 139 59.5 L 142 60 Q 143.1 62.7 140.5 62 L 136 61 Q 137.1 58.3 134.5 59 L 134.5 58 L 136 57.5 L 133 56.5 L 134 52 L 136 51.5 L 135 48.5 L 138 37.5 L 141.5 31 Z M 137 56 L 137 59 L 139 58 L 137 56 Z " /><path fill="rgb(110,131,143)" stroke="rgb(110,131,143)" stroke-width="1" opacity="0.9450980392156862" d="M 144.5 61 L 145.5 63 L 144.5 61 Z " /><path fill="rgb(110,131,143)" stroke="rgb(110,131,143)" stroke-width="1" opacity="0.9450980392156862" d="M 86.5 93 L 87 99 Q 84 100.3 85 96.5 L 86.5 93 Z " /><path fill="rgb(110,131,143)" stroke="rgb(110,131,143)" stroke-width="1" opacity="0.9450980392156862" d="M 82.5 97 L 83 100 L 81 99.5 L 82.5 97 Z " /><path fill="rgb(110,131,143)" stroke="rgb(110,131,143)" stroke-width="1" opacity="0.9450980392156862" d="M 81.5 102 L 82 105.5 L 81 105.5 L 80 103.5 L 81.5 102 Z " /><path fill="rgb(110,131,143)" stroke="rgb(110,131,143)" stroke-width="1" opacity="0.9450980392156862" d="M 84 102 Q 87.7 100.7 86 106.5 L 84.5 110 L 84 106.5 L 85 104.5 L 84 102 Z " /><path fill="rgb(110,131,143)" stroke="rgb(110,131,143)" stroke-width="1" opacity="0.9450980392156862" d="M 129.5 102 Q 137.8 101.8 141 106.5 L 142 109.5 L 140.5 109 Q 135.1 105.4 124.5 107 L 121.5 108 L 123.5 105 L 129.5 102 Z " /><path fill="rgb(110,131,143)" stroke="rgb(110,131,143)" stroke-width="1" opacity="0.9450980392156862" d="M 102.5 104 L 103.5 106 L 102.5 104 Z " /><path fill="rgb(110,131,143)" stroke="rgb(110,131,143)" stroke-width="1" opacity="0.9450980392156862" d="M 109.5 104 L 108.5 106 L 109.5 104 Z " /><path fill="rgb(110,131,143)" stroke="rgb(110,131,143)" stroke-width="1" opacity="0.9450980392156862" d="M 155.5 105 L 154.5 107 L 155.5 105 Z " /><path fill="rgb(110,131,143)" stroke="rgb(110,131,143)" stroke-width="1" opacity="0.9450980392156862" d="M 179 105 Q 183 103.6 181 110.5 L 179 111.5 L 180 109.5 L 179 105 Z " /><path fill="rgb(110,131,143)" stroke="rgb(110,131,143)" stroke-width="1" opacity="0.9450980392156862" d="M 159.5 107 L 162 108.5 L 160.5 109 L 159.5 107 Z " /><path fill="rgb(110,131,143)" stroke="rgb(110,131,143)" stroke-width="1" opacity="0.9450980392156862" d="M 72.5 108 L 76 109 L 76 111 L 70 111 Q 68.9 108.3 71.5 109 L 72.5 108 Z " /><path fill="rgb(110,131,143)" stroke="rgb(110,131,143)" stroke-width="1" opacity="0.9450980392156862" d="M 66.5 109 L 69 110.5 L 67.5 112 L 61.5 113 L 62 111.5 L 62.5 110 L 64.5 111 L 66.5 109 Z " /><path fill="rgb(110,131,143)" stroke="rgb(110,131,143)" stroke-width="1" opacity="0.9450980392156862" d="M 57.5 112 Q 61.3 111 60 114 L 55.5 116 L 54.5 114 L 56.5 114 L 58 113.5 L 57.5 112 Z " /><path fill="rgb(110,131,143)" stroke="rgb(110,131,143)" stroke-width="1" opacity="0.9450980392156862" d="M 84.5 113 L 85 115.5 L 84 115.5 L 84.5 113 Z " /><path fill="rgb(110,131,143)" stroke="rgb(110,131,143)" stroke-width="1" opacity="0.9450980392156862" d="M 178.5 114 L 180 118 Q 176.2 119.2 178.5 114 Z " /><path fill="rgb(110,131,143)" stroke="rgb(110,131,143)" stroke-width="1" opacity="0.9450980392156862" d="M 92.5 115 Q 96.3 113.8 95 117.5 L 96 119.5 L 95 119.5 L 94 116 L 92.5 115 Z " /><path fill="rgb(110,131,143)" stroke="rgb(110,131,143)" stroke-width="1" opacity="0.9450980392156862" d="M 181 115 Q 184 114 183 117 Q 180 118 181 115 Z " /><path fill="rgb(110,131,143)" stroke="rgb(110,131,143)" stroke-width="1" opacity="0.9450980392156862" d="M 84.5 117 L 86 120.5 L 85 120.5 L 84.5 117 Z " /><path fill="rgb(110,131,143)" stroke="rgb(110,131,143)" stroke-width="1" opacity="0.9450980392156862" d="M 104.5 117 L 107 117.5 L 104.5 118 L 104.5 117 Z " /><path fill="rgb(110,131,143)" stroke="rgb(110,131,143)" stroke-width="1" opacity="0.9450980392156862" d="M 82.5 120 L 81.5 122 L 80 121.5 L 82.5 120 Z " /><path fill="rgb(110,131,143)" stroke="rgb(110,131,143)" stroke-width="1" opacity="0.9450980392156862" d="M 177.5 120 Q 179.8 119.3 179 121.5 L 177.5 120 Z " /><path fill="rgb(110,131,143)" stroke="rgb(110,131,143)" stroke-width="1" opacity="0.9450980392156862" d="M 180.5 120 Q 183.5 121.5 180.5 123 L 180.5 120 Z " /><path fill="rgb(110,131,143)" stroke="rgb(110,131,143)" stroke-width="1" opacity="0.9450980392156862" d="M 49 122 L 51 122.5 L 50.5 125 L 49 122 Z " /><path fill="rgb(110,131,143)" stroke="rgb(110,131,143)" stroke-width="1" opacity="0.9450980392156862" d="M 115.5 122 L 116.5 124 L 115.5 122 Z " /><path fill="rgb(110,131,143)" stroke="rgb(110,131,143)" stroke-width="1" opacity="0.9450980392156862" d="M 55.5 123 L 54.5 125 L 55.5 123 Z " /><path fill="rgb(110,131,143)" stroke="rgb(110,131,143)" stroke-width="1" opacity="0.9450980392156862" d="M 85.5 123 L 87 125.5 L 85 126.5 L 86 124.5 L 85.5 123 Z " /><path fill="rgb(110,131,143)" stroke="rgb(110,131,143)" stroke-width="1" opacity="0.9450980392156862" d="M 176 123 L 178 123.5 L 176 124.5 L 176 123 Z " /><path fill="rgb(110,131,143)" stroke="rgb(110,131,143)" stroke-width="1" opacity="0.9450980392156862" d="M 118.5 124 L 121 125.5 L 119.5 125 L 118.5 124 Z " /><path fill="rgb(110,131,143)" stroke="rgb(110,131,143)" stroke-width="1" opacity="0.9450980392156862" d="M 154.5 124 L 157 125.5 L 155.5 125 L 154.5 124 Z " /><path fill="rgb(110,131,143)" stroke="rgb(110,131,143)" stroke-width="1" opacity="0.9450980392156862" d="M 165 124 L 168 125.5 L 166 125.5 L 162.5 130 L 165 126.5 L 165 124 Z " /><path fill="rgb(110,131,143)" stroke="rgb(110,131,143)" stroke-width="1" opacity="0.9450980392156862" d="M 56.5 126 L 55.5 128 L 56.5 126 Z " /><path fill="rgb(110,131,143)" stroke="rgb(110,131,143)" stroke-width="1" opacity="0.9450980392156862" d="M 127.5 127 L 131 127.5 L 127.5 128 L 127.5 127 Z " /><path fill="rgb(110,131,143)" stroke="rgb(110,131,143)" stroke-width="1" opacity="0.9450980392156862" d="M 138.5 127 L 141 127.5 L 138.5 128 L 138.5 127 Z " /><path fill="rgb(110,131,143)" stroke="rgb(110,131,143)" stroke-width="1" opacity="0.9450980392156862" d="M 89.5 130 L 92.5 132 L 92.5 133 L 89.5 130 Z " /><path fill="rgb(110,131,143)" stroke="rgb(110,131,143)" stroke-width="1" opacity="0.9450980392156862" d="M 180.5 130 L 177.5 134 L 180.5 130 Z " /><path fill="rgb(110,131,143)" stroke="rgb(110,131,143)" stroke-width="1" opacity="0.9450980392156862" d="M 184.5 131 Q 189.3 133.5 187.5 136 Q 189.8 135.3 189 137.5 Q 192.1 139.3 190.5 141 Q 192.8 140.3 192 142.5 Q 194.2 143.8 191.5 145 L 191.5 143 Q 189.3 143.8 190 141.5 L 185 134.5 L 184.5 131 Z " /><path fill="rgb(110,131,143)" stroke="rgb(110,131,143)" stroke-width="1" opacity="0.9450980392156862" d="M 41.5 132 L 43 132.5 L 40 134 L 39.5 136 L 39 134.5 L 41.5 132 Z " /><path fill="rgb(110,131,143)" stroke="rgb(110,131,143)" stroke-width="1" opacity="0.9450980392156862" d="M 45.5 132 L 52 133.5 Q 51 136 46.5 135 L 45.5 132 Z " /><path fill="rgb(110,131,143)" stroke="rgb(110,131,143)" stroke-width="1" opacity="0.9450980392156862" d="M 56 133 L 60 134.5 L 56 136 L 56 133 Z " /><path fill="rgb(110,131,143)" stroke="rgb(110,131,143)" stroke-width="1" opacity="0.9450980392156862" d="M 174.5 133 L 175 135.5 L 174 135.5 L 174.5 133 Z " /><path fill="rgb(110,131,143)" stroke="rgb(110,131,143)" stroke-width="1" opacity="0.9450980392156862" d="M 53 135 L 55 135.5 L 53.5 140 L 53 135 Z " /><path fill="rgb(110,131,143)" stroke="rgb(110,131,143)" stroke-width="1" opacity="0.9450980392156862" d="M 38.5 137 L 39 143.5 L 38 143.5 L 38.5 137 Z " /><path fill="rgb(110,131,143)" stroke="rgb(110,131,143)" stroke-width="1" opacity="0.9450980392156862" d="M 53.5 141 L 54 144.5 L 52.5 148 L 52 144.5 L 53.5 141 Z " /><path fill="rgb(110,131,143)" stroke="rgb(110,131,143)" stroke-width="1" opacity="0.9450980392156862" d="M 37.5 146 L 38 152.5 L 37 152.5 L 37.5 146 Z " /><path fill="rgb(110,131,143)" stroke="rgb(110,131,143)" stroke-width="1" opacity="0.9450980392156862" d="M 192.5 146 L 196 149.5 Q 193.8 150.8 196.5 152 Q 199.1 151.2 198 154.5 L 198 156.5 L 199 158.5 L 197 157.5 L 192.5 146 Z " /><path fill="rgb(110,131,143)" stroke="rgb(110,131,143)" stroke-width="1" opacity="0.9450980392156862" d="M 76.5 147 L 78 158.5 L 75 160.5 L 75.5 162 Q 72.3 160.3 76 158.5 L 75 152.5 L 76.5 147 Z " /><path fill="rgb(110,131,143)" stroke="rgb(110,131,143)" stroke-width="1" opacity="0.9450980392156862" d="M 52.5 149 L 53 152.5 L 51.5 156 L 51 153.5 L 52.5 149 Z " /><path fill="rgb(110,131,143)" stroke="rgb(110,131,143)" stroke-width="1" opacity="0.9450980392156862" d="M 36.5 154 L 37 161.5 L 36 161.5 L 36.5 154 Z " /><path fill="rgb(110,131,143)" stroke="rgb(110,131,143)" stroke-width="1" opacity="0.9450980392156862" d="M 51.5 158 L 52 161.5 L 50.5 164 L 50 161.5 L 51.5 158 Z " /><path fill="rgb(110,131,143)" stroke="rgb(110,131,143)" stroke-width="1" opacity="0.9450980392156862" d="M 125.5 162 L 127 164.5 L 124.5 166 L 124.5 165 Q 126.8 165.8 126 163.5 L 124 163.5 L 125.5 162 Z " /><path fill="rgb(110,131,143)" stroke="rgb(110,131,143)" stroke-width="1" opacity="0.9450980392156862" d="M 196.5 163 L 195.5 165 L 196.5 163 Z " /><path fill="rgb(110,131,143)" stroke="rgb(110,131,143)" stroke-width="1" opacity="0.9450980392156862" d="M 73 165 Q 76.3 163.9 75 168 Q 71.7 169.1 73 165 Z " /><path fill="rgb(110,131,143)" stroke="rgb(110,131,143)" stroke-width="1" opacity="0.9450980392156862" d="M 193.5 165 L 193 166.5 L 192.5 172 L 192 169 L 189 168.5 L 192 167.5 L 193.5 165 Z " /><path fill="rgb(110,131,143)" stroke="rgb(110,131,143)" stroke-width="1" opacity="0.9450980392156862" d="M 35.5 166 L 36 170.5 L 35 170.5 L 35.5 166 Z " /><path fill="rgb(110,131,143)" stroke="rgb(110,131,143)" stroke-width="1" opacity="0.9450980392156862" d="M 194.5 167 L 195.5 169 Q 192.7 169.7 194.5 167 Z " /><path fill="rgb(110,131,143)" stroke="rgb(110,131,143)" stroke-width="1" opacity="0.9450980392156862" d="M 50.5 168 L 51 170.5 L 48.5 182 L 48 179.5 L 50.5 168 Z " /><path fill="rgb(110,131,143)" stroke="rgb(110,131,143)" stroke-width="1" opacity="0.9450980392156862" d="M 72.5 169 L 74 171.5 L 72 170.5 L 72.5 169 Z " /><path fill="rgb(110,131,143)" stroke="rgb(110,131,143)" stroke-width="1" opacity="0.9450980392156862" d="M 72.5 173 L 73.5 175 L 72.5 173 Z " /><path fill="rgb(110,131,143)" stroke="rgb(110,131,143)" stroke-width="1" opacity="0.9450980392156862" d="M 34.5 174 L 35 179.5 L 34 179.5 L 34.5 174 Z " /><path fill="rgb(110,131,143)" stroke="rgb(110,131,143)" stroke-width="1" opacity="0.9450980392156862" d="M 48.5 183 L 49 186.5 L 48 186.5 L 48.5 183 Z " /><path fill="rgb(110,131,143)" stroke="rgb(110,131,143)" stroke-width="1" opacity="0.9450980392156862" d="M 109.5 186 L 108.5 188 L 109.5 186 Z " /><path fill="rgb(110,131,143)" stroke="rgb(110,131,143)" stroke-width="1" opacity="0.9450980392156862" d="M 47.5 188 L 48 194.5 L 47 194.5 L 47.5 188 Z " /><path fill="rgb(110,131,143)" stroke="rgb(110,131,143)" stroke-width="1" opacity="0.9450980392156862" d="M 97.5 188 L 107 192.5 L 106.5 195 L 104 193.5 Q 105.1 196.8 102.5 196 L 97.5 193 L 94.5 193 L 94.5 194 L 96 194.5 L 93.5 195 Q 92 190 86 191 L 86.5 189 Q 88 191.5 93.5 190 L 97.5 188 Z " /><path fill="rgb(110,131,143)" stroke="rgb(110,131,143)" stroke-width="1" opacity="0.9450980392156862" d="M 131.5 193 L 135 195.5 L 133.5 195 Q 129.5 196 131.5 193 Z " /><path fill="rgb(110,131,143)" stroke="rgb(110,131,143)" stroke-width="1" opacity="0.9450980392156862" d="M 129.5 196 L 128.5 198 L 129.5 196 Z " /><path fill="rgb(110,131,143)" stroke="rgb(110,131,143)" stroke-width="1" opacity="0.9450980392156862" d="M 132.5 200 Q 134.8 202.7 140.5 202 L 145.5 201 L 145.5 202 L 144 202.5 L 148.5 203 L 157.5 201 L 160 202 L 159 204.5 L 159.5 206 Q 154 207.5 152.5 205 L 149 206 L 148.5 208 L 143 207 L 142.5 205 Q 141 207.5 139.5 204 L 135.5 203 L 133.5 204 L 132 203.5 L 131.5 205 L 131 201.5 L 132.5 200 Z M 150 203 L 150 204 L 152 204 L 150 203 Z " /><path fill="rgb(110,131,143)" stroke="rgb(110,131,143)" stroke-width="1" opacity="0.9450980392156862" d="M 162.5 201 L 161.5 203 L 162.5 201 Z " /><path fill="rgb(162,178,191)" stroke="rgb(162,178,191)" stroke-width="1" opacity="0.9647058823529412" d="M 140.5 28 L 142 30.5 L 139.5 34 L 138 31.5 L 141 30.5 L 140.5 28 Z " /><path fill="rgb(162,178,191)" stroke="rgb(162,178,191)" stroke-width="1" opacity="0.9647058823529412" d="M 142.5 32 L 143.5 37 L 144.5 35 L 145 40 Q 142 41.3 143 37.5 Q 140.7 36.1 142.5 32 Z " /><path fill="rgb(162,178,191)" stroke="rgb(162,178,191)" stroke-width="1" opacity="0.9647058823529412" d="M 138.5 35 L 139 36.5 Q 136 40.5 136 47.5 L 136.5 49 L 135 48.5 L 137 52.5 L 134 51.5 L 133 56.5 L 135 55.5 L 135.5 54 L 136 56 L 138.5 55 L 139 57.5 L 137.5 59 Q 134.9 58.3 136 61 L 147.5 63 L 148.5 62 L 152.5 64 L 155 65.5 L 156.5 68 L 159 66.5 L 158 68.5 L 161 67.5 L 160 69.5 L 164 71.5 L 165.5 74 Q 167.3 71.3 169 75.5 Q 166.2 77.3 170.5 79 L 172.5 78 L 173.5 80 L 172 79.5 Q 171.3 82.1 174 81 L 174 84 L 175.5 84 L 175.5 86 L 177.5 85 L 177 86.5 L 178.5 90 L 180 89.5 L 178 91.5 Q 181.5 93 179 94.5 L 179.5 96 L 181.5 95 L 181.5 96 Q 178.9 95.3 180 98 Q 184.1 96.7 183 100 L 181 100 Q 182.3 105.3 179 104.5 L 179 113.5 L 176.5 123 L 173.5 119 L 167.5 117 L 147.5 115 L 139 109.5 L 140.5 109 L 142 109.5 L 138.5 104 Q 135.6 101.4 129.5 102 L 121 107.5 L 123 108.5 L 116.5 111 L 109.5 111 L 108.5 110 L 91.5 108 L 86 110.5 L 85.5 112 L 85 107.5 L 86 106.5 L 87 93.5 L 86 93.5 L 84 102.5 L 84 110.5 L 83 111.5 L 84 114.5 L 82 115.5 L 81 106.5 L 83 97.5 L 82 97.5 Q 82.7 100.1 80 99 L 82 92.5 L 81.5 91 L 83 91.5 L 82 88.5 L 85 89.5 L 83 86.5 L 84.5 87 L 86 86.5 L 84.5 84 L 87 85.5 L 86 83.5 L 86.5 81 L 88 81.5 L 89 79.5 L 88.5 78 L 91 79.5 L 98 70.5 L 97.5 69 L 101 69.5 L 101.5 68 L 103 68.5 Q 102.3 66.3 104.5 67 L 105.5 64 L 108.5 66 L 107.5 63 L 110.5 65 L 110.5 63 L 112.5 64 L 115.5 62 L 117 62.5 L 116 60.5 L 117.5 61 L 124 62 L 124.5 60 L 131.5 60 L 130.5 57 Q 133.1 57.8 132 54.5 L 131.5 53 L 133 53.5 L 132 49.5 L 134 49.5 L 133 45.5 L 134 45.5 L 134.5 47 L 135 43.5 L 134.5 42 L 136 42.5 L 137 37.5 L 136.5 36 L 138 36.5 L 138.5 35 Z M 104 98 Q 101 99 102 105 Q 103 107 109 106 L 111 103 L 110 102 L 109 100 Q 110 97 104 98 Z M 158 104 L 156 105 L 153 109 L 156 113 L 161 112 Q 164 113 162 109 Q 158 107 161 106 L 158 104 Z " /><path fill="rgb(162,178,191)" stroke="rgb(162,178,191)" stroke-width="1" opacity="0.9647058823529412" d="M 143.5 44 L 144 60.5 L 142.5 60 L 139 59.5 L 140.5 57 L 141.5 59 L 143 57.5 L 143.5 44 Z " /><path fill="rgb(162,178,191)" stroke="rgb(162,178,191)" stroke-width="1" opacity="0.9647058823529412" d="M 145.5 46 L 146 50.5 L 145 50.5 L 145.5 46 Z " /><path fill="rgb(162,178,191)" stroke="rgb(162,178,191)" stroke-width="1" opacity="0.9647058823529412" d="M 80.5 100 L 81 102.5 L 79 109.5 L 81 120.5 L 80 120.5 Q 75.9 117.6 77 109.5 Q 80.5 108 78 106.5 L 77 104.5 L 79 104.5 Q 78.3 100.8 80.5 100 Z " /><path fill="rgb(162,178,191)" stroke="rgb(162,178,191)" stroke-width="1" opacity="0.9647058823529412" d="M 183.5 103 L 184 108 L 182 108.5 L 183 111.5 L 178.5 126 L 175 124.5 L 178 123.5 L 180 117.5 L 180 111.5 L 183.5 103 Z " /><path fill="rgb(162,178,191)" stroke="rgb(162,178,191)" stroke-width="1" opacity="0.9647058823529412" d="M 124.5 107 L 135 107.5 L 124.5 108 L 124.5 107 Z " /><path fill="rgb(162,178,191)" stroke="rgb(162,178,191)" stroke-width="1" opacity="0.9647058823529412" d="M 124 111 L 126 111.5 L 122 114 L 122.5 112 L 124 112.5 L 124 111 Z " /><path fill="rgb(162,178,191)" stroke="rgb(162,178,191)" stroke-width="1" opacity="0.9647058823529412" d="M 56.5 113 L 58 113.5 L 55.5 115 L 56.5 113 Z " /><path fill="rgb(162,178,191)" stroke="rgb(162,178,191)" stroke-width="1" opacity="0.9647058823529412" d="M 85.5 114 L 86 117.5 L 84.5 121 L 84 118.5 L 85.5 114 Z " /><path fill="rgb(162,178,191)" stroke="rgb(162,178,191)" stroke-width="1" opacity="0.9647058823529412" d="M 93.5 114 L 97.5 115 L 99.5 115 L 105 116.5 L 102.5 117 L 93.5 115 L 93.5 114 Z " /><path fill="rgb(162,178,191)" stroke="rgb(162,178,191)" stroke-width="1" opacity="0.9647058823529412" d="M 137.5 114 L 140 115.5 L 138.5 116 L 137.5 114 Z " /><path fill="rgb(162,178,191)" stroke="rgb(162,178,191)" stroke-width="1" opacity="0.9647058823529412" d="M 90 115 Q 93 114 92 117 Q 89 118 90 115 Z " /><path fill="rgb(162,178,191)" stroke="rgb(162,178,191)" stroke-width="1" opacity="0.9647058823529412" d="M 52.5 116 L 52.5 118 Q 55.5 117.1 54 121.5 L 55 123.5 L 52.5 124 L 49.5 122 L 48 120.5 L 48.5 118 L 49.5 119 L 52.5 116 Z " /><path fill="rgb(162,178,191)" stroke="rgb(162,178,191)" stroke-width="1" opacity="0.9647058823529412" d="M 95.5 117 L 94.5 119 L 95.5 117 Z " /><path fill="rgb(162,178,191)" stroke="rgb(162,178,191)" stroke-width="1" opacity="0.9647058823529412" d="M 107.5 117 L 111 119.5 L 110.5 121 L 109.5 119 Q 108.2 121.3 107 118.5 L 107.5 117 Z " /><path fill="rgb(162,178,191)" stroke="rgb(162,178,191)" stroke-width="1" opacity="0.9647058823529412" d="M 183.5 117 L 184 118.5 L 183 120.5 L 184 122.5 Q 181 123.5 182 128.5 L 178.5 132 L 176.5 131 L 176 133.5 L 175.5 135 L 175 133.5 L 176 130.5 L 176.5 129 Q 177.8 131.3 179 128.5 L 183.5 117 Z " /><path fill="rgb(162,178,191)" stroke="rgb(162,178,191)" stroke-width="1" opacity="0.9647058823529412" d="M 96.5 119 L 100 121.5 L 98.5 121 L 96.5 122 L 96.5 119 Z " /><path fill="rgb(162,178,191)" stroke="rgb(162,178,191)" stroke-width="1" opacity="0.9647058823529412" d="M 100.5 119 L 101.5 121 L 100.5 119 Z " /><path fill="rgb(162,178,191)" stroke="rgb(162,178,191)" stroke-width="1" opacity="0.9647058823529412" d="M 112.5 120 L 115 121 L 115.5 123 Q 116.8 120.7 118 123.5 L 117.5 125 L 116.5 123 Q 115 125.5 113.5 122 Q 110.7 122.7 112.5 120 Z " /><path fill="rgb(162,178,191)" stroke="rgb(162,178,191)" stroke-width="1" opacity="0.9647058823529412" d="M 86.5 121 L 87 123.5 L 85 124.5 L 86.5 121 Z " /><path fill="rgb(162,178,191)" stroke="rgb(162,178,191)" stroke-width="1" opacity="0.9647058823529412" d="M 47.5 122 L 51 126.5 L 49.5 130 Q 45.7 127.7 47.5 122 Z " /><path fill="rgb(162,178,191)" stroke="rgb(162,178,191)" stroke-width="1" opacity="0.9647058823529412" d="M 152.5 123 L 161 123.5 L 151.5 125 L 152.5 123 Z " /><path fill="rgb(162,178,191)" stroke="rgb(162,178,191)" stroke-width="1" opacity="0.9647058823529412" d="M 164.5 123 L 165 125 L 163 124.5 L 164.5 123 Z " /><path fill="rgb(162,178,191)" stroke="rgb(162,178,191)" stroke-width="1" opacity="0.9647058823529412" d="M 148.5 124 L 149.5 126 Q 146.7 126.7 148.5 124 Z " /><path fill="rgb(162,178,191)" stroke="rgb(162,178,191)" stroke-width="1" opacity="0.9647058823529412" d="M 55.5 125 L 57 128.5 L 55 129.5 L 56 127.5 L 55.5 125 Z " /><path fill="rgb(162,178,191)" stroke="rgb(162,178,191)" stroke-width="1" opacity="0.9647058823529412" d="M 121 125 L 123 125.5 L 121 126.5 L 121 125 Z " /><path fill="rgb(162,178,191)" stroke="rgb(162,178,191)" stroke-width="1" opacity="0.9647058823529412" d="M 144 125 Q 147 124 146 127 Q 143 128 144 125 Z " /><path fill="rgb(162,178,191)" stroke="rgb(162,178,191)" stroke-width="1" opacity="0.9647058823529412" d="M 168 125 Q 171 124 170 127 Q 167 128 168 125 Z " /><path fill="rgb(162,178,191)" stroke="rgb(162,178,191)" stroke-width="1" opacity="0.9647058823529412" d="M 124 126 L 128 126.5 L 124 128 L 124 126 Z " /><path fill="rgb(162,178,191)" stroke="rgb(162,178,191)" stroke-width="1" opacity="0.9647058823529412" d="M 140.5 126 L 143 126.5 Q 140.9 129.8 140.5 126 Z " /><path fill="rgb(162,178,191)" stroke="rgb(162,178,191)" stroke-width="1" opacity="0.9647058823529412" d="M 164.5 126 L 162.5 129 L 164.5 126 Z " /><path fill="rgb(162,178,191)" stroke="rgb(162,178,191)" stroke-width="1" opacity="0.9647058823529412" d="M 174.5 126 L 175.5 128 L 174.5 126 Z " /><path fill="rgb(162,178,191)" stroke="rgb(162,178,191)" stroke-width="1" opacity="0.9647058823529412" d="M 131.5 127 Q 139.1 125.5 138 129 L 130 128.5 L 131.5 127 Z " /><path fill="rgb(162,178,191)" stroke="rgb(162,178,191)" stroke-width="1" opacity="0.9647058823529412" d="M 158.5 128 L 161 128.5 L 160.5 130 L 162 130.5 L 160.5 131 L 158.5 128 Z " /><path fill="rgb(162,178,191)" stroke="rgb(162,178,191)" stroke-width="1" opacity="0.9647058823529412" d="M 173.5 128 L 174.5 130 L 173.5 128 Z " /><path fill="rgb(162,178,191)" stroke="rgb(162,178,191)" stroke-width="1" opacity="0.9647058823529412" d="M 39.5 131 L 38.5 133 L 39.5 131 Z " /><path fill="rgb(162,178,191)" stroke="rgb(162,178,191)" stroke-width="1" opacity="0.9647058823529412" d="M 173.5 134 L 174 135.5 L 171.5 137 L 171.5 136 Q 174 136.7 173.5 134 Z " /><path fill="rgb(162,178,191)" stroke="rgb(162,178,191)" stroke-width="1" opacity="0.9647058823529412" d="M 159.5 138 L 162 138.5 L 159.5 139 L 159.5 138 Z " /><path fill="rgb(162,178,191)" stroke="rgb(162,178,191)" stroke-width="1" opacity="0.9647058823529412" d="M 101.5 139 L 103 139.5 L 101 140.5 L 101.5 142 Q 98.5 140.5 101.5 139 Z " /><path fill="rgb(162,178,191)" stroke="rgb(162,178,191)" stroke-width="1" opacity="0.9647058823529412" d="M 111.5 141 L 114 141.5 L 111.5 142 L 111.5 141 Z " /><path fill="rgb(162,178,191)" stroke="rgb(162,178,191)" stroke-width="1" opacity="0.9647058823529412" d="M 74.5 144 L 75 147.5 L 74 147.5 L 74.5 144 Z " /><path fill="rgb(162,178,191)" stroke="rgb(162,178,191)" stroke-width="1" opacity="0.9647058823529412" d="M 133.5 144 L 136 144.5 L 133.5 145 L 133.5 144 Z " /><path fill="rgb(162,178,191)" stroke="rgb(162,178,191)" stroke-width="1" opacity="0.9647058823529412" d="M 36.5 145 L 37 148.5 L 36 148.5 L 36.5 145 Z " /><path fill="rgb(162,178,191)" stroke="rgb(162,178,191)" stroke-width="1" opacity="0.9647058823529412" d="M 142.5 145 L 146 145.5 L 142.5 146 L 142.5 145 Z " /><path fill="rgb(162,178,191)" stroke="rgb(162,178,191)" stroke-width="1" opacity="0.9647058823529412" d="M 70.5 157 L 71 159.5 L 70 159.5 L 70.5 157 Z " /><path fill="rgb(162,178,191)" stroke="rgb(162,178,191)" stroke-width="1" opacity="0.9647058823529412" d="M 199.5 159 L 200 166.5 L 199 166.5 L 198.5 164 L 198 169.5 L 198.5 171 L 196 170 L 194.5 167 L 194 168.5 L 196 172.5 L 193 172.5 Q 191.5 166.5 194.5 165 L 199 161.5 L 199.5 159 Z " /><path fill="rgb(162,178,191)" stroke="rgb(162,178,191)" stroke-width="1" opacity="0.9647058823529412" d="M 125.5 163 L 126 165 L 124 164.5 L 125.5 163 Z " /><path fill="rgb(162,178,191)" stroke="rgb(162,178,191)" stroke-width="1" opacity="0.9647058823529412" d="M 34.5 165 L 35 167.5 L 34 167.5 L 34.5 165 Z " /><path fill="rgb(162,178,191)" stroke="rgb(162,178,191)" stroke-width="1" opacity="0.9647058823529412" d="M 76.5 178 L 91 182 Q 89.9 184.7 92.5 184 L 94 183.5 Q 91.8 184.8 94.5 186 L 97 187.5 Q 97.9 190.5 93.5 189 L 89.5 190 L 86.5 189 L 84.5 190 L 79 186.5 L 76.5 178 Z " /><path fill="rgb(162,178,191)" stroke="rgb(162,178,191)" stroke-width="1" opacity="0.9647058823529412" d="M 118.5 178 L 115.5 182 L 118.5 178 Z " /><path fill="rgb(162,178,191)" stroke="rgb(162,178,191)" stroke-width="1" opacity="0.9647058823529412" d="M 32.5 181 L 33 183.5 L 32 183.5 L 32.5 181 Z " /><path fill="rgb(162,178,191)" stroke="rgb(162,178,191)" stroke-width="1" opacity="0.9647058823529412" d="M 170.5 181 L 171 192.5 L 170 194.5 Q 172.3 195.8 169.5 197 L 168.5 196 L 163.5 201 L 160.5 203 Q 159.1 200.4 154.5 201 Q 152.8 203.8 146.5 202 L 145.5 201 L 133.5 201 L 132.5 200 Q 131.3 202.3 130 199.5 L 129 194 L 135.5 196 L 137.5 196 Q 154.8 195.3 164 186.5 L 165 183 L 170.5 181 Z " /><path fill="rgb(162,178,191)" stroke="rgb(162,178,191)" stroke-width="1" opacity="0.9647058823529412" d="M 112.5 185 L 111.5 187 L 110 186.5 L 112.5 185 Z " /><path fill="rgb(162,178,191)" stroke="rgb(162,178,191)" stroke-width="1" opacity="0.9647058823529412" d="M 102.5 186 L 111.5 188 L 113 189.5 L 111 190.5 L 111.5 192 L 109.5 191 L 106.5 192 L 99 188.5 L 102.5 186 Z " /><path fill="rgb(162,178,191)" stroke="rgb(162,178,191)" stroke-width="1" opacity="0.9647058823529412" d="M 127.5 186 L 128.5 188 L 127.5 186 Z " /><path fill="rgb(162,178,191)" stroke="rgb(162,178,191)" stroke-width="1" opacity="0.9647058823529412" d="M 129.5 189 L 135 189.5 L 129.5 190 L 129.5 189 Z " /><path fill="rgb(162,178,191)" stroke="rgb(162,178,191)" stroke-width="1" opacity="0.9647058823529412" d="M 60.5 196 L 59.5 198 L 60.5 196 Z " /><path fill="rgb(162,178,191)" stroke="rgb(162,178,191)" stroke-width="1" opacity="0.9647058823529412" d="M 157.5 207 L 161 207.5 L 157.5 208 L 157.5 207 Z " /><path fill="rgb(15,49,69)" stroke="rgb(15,49,69)" stroke-width="1" opacity="0.9882352941176471" d="M 105.5 98 L 108 99.5 Q 105.8 100.8 108.5 102 Q 111.1 101.3 110 104 L 106.5 106 L 103 105 Q 101.8 99.5 105.5 98 Z " /><path fill="rgb(15,49,69)" stroke="rgb(15,49,69)" stroke-width="1" opacity="0.9882352941176471" d="M 157.5 105 Q 160.1 104.2 159 107.5 L 161 110.5 Q 160.3 112.8 156.5 112 L 154 108.5 L 155 106 L 157.5 105 Z " /><path fill="rgb(15,49,69)" stroke="rgb(15,49,69)" stroke-width="1" opacity="0.9882352941176471" d="M 74.5 111 L 77 111.5 Q 74.3 112.3 75 116.5 L 78 117.5 L 80 120.5 L 76.5 118 L 75 118.5 L 78 136 L 86 136.5 Q 80.8 138.8 84.5 141 L 104.5 149 L 108.5 149 L 107.5 147 L 100.5 143 L 99 143.5 L 100 142.5 L 96.5 139 L 95 138.5 L 96.5 138 L 100.5 142 L 115 150.5 L 110.5 152 L 83 142 L 84 144.5 L 84 163 L 94 166.5 L 90 167.5 L 96 168 Q 97.3 171 93.5 170 L 77 164 L 78 161.5 L 77.5 160 L 83 162 L 82 139.5 L 83.5 137 L 79.5 138 L 77 136.5 L 75.5 139 L 75 137.5 Q 78.5 136 76 134.5 L 75 123.5 L 73 116.5 L 74.5 111 Z M 81 163 L 81 164 L 88 167 L 90 167 L 81 163 Z " /><path fill="rgb(15,49,69)" stroke="rgb(15,49,69)" stroke-width="1" opacity="0.9882352941176471" d="M 54.5 117 L 61.5 133 L 65 134 Q 63.9 136.7 66.5 136 L 73 140.5 L 70.5 142 L 61.5 135 L 61.5 137 L 58.5 132 Q 56.3 132.8 57 130.5 L 58 127.5 Q 54 123.5 54.5 117 Z " /><path fill="rgb(15,49,69)" stroke="rgb(15,49,69)" stroke-width="1" opacity="0.9882352941176471" d="M 80.5 122 L 83 123.5 L 84.5 127 Q 86.8 126.3 86 128.5 L 82 125.5 L 80.5 122 Z " /><path fill="rgb(15,49,69)" stroke="rgb(15,49,69)" stroke-width="1" opacity="0.9882352941176471" d="M 86.5 130 Q 88.8 129.3 88 131.5 L 86.5 130 Z " /><path fill="rgb(15,49,69)" stroke="rgb(15,49,69)" stroke-width="1" opacity="0.9882352941176471" d="M 182.5 130 Q 185.3 131.3 183 132.5 L 182.5 134 L 182 132.5 L 182.5 130 Z " /><path fill="rgb(15,49,69)" stroke="rgb(15,49,69)" stroke-width="1" opacity="0.9882352941176471" d="M 180.5 131 L 177.5 135 L 180.5 131 Z " /><path fill="rgb(15,49,69)" stroke="rgb(15,49,69)" stroke-width="1" opacity="0.9882352941176471" d="M 175.5 135 L 174.5 137 L 175.5 135 Z " /><path fill="rgb(15,49,69)" stroke="rgb(15,49,69)" stroke-width="1" opacity="0.9882352941176471" d="M 181.5 135 L 182 137.5 L 179.5 141 L 180 139.5 Q 179.3 135.8 181.5 135 Z " /><path fill="rgb(15,49,69)" stroke="rgb(15,49,69)" stroke-width="1" opacity="0.9882352941176471" d="M 42.5 136 L 43 138.5 L 42 138.5 L 42.5 136 Z " /><path fill="rgb(15,49,69)" stroke="rgb(15,49,69)" stroke-width="1" opacity="0.9882352941176471" d="M 171 137 L 173 137.5 L 170 139.5 L 171 137 Z " /><path fill="rgb(15,49,69)" stroke="rgb(15,49,69)" stroke-width="1" opacity="0.9882352941176471" d="M 168.5 140 L 167.5 142 L 166 141.5 L 168.5 140 Z " /><path fill="rgb(15,49,69)" stroke="rgb(15,49,69)" stroke-width="1" opacity="0.9882352941176471" d="M 165.5 143 L 170 146.5 L 168 147 L 166.5 144 L 165.5 143 Z " /><path fill="rgb(15,49,69)" stroke="rgb(15,49,69)" stroke-width="1" opacity="0.9882352941176471" d="M 178.5 143 L 178 144.5 L 176 150.5 L 181 153 L 185 161.5 L 183 161.5 Q 182.3 163.8 184.5 163 L 189.5 166 L 196 163 L 198.5 159 L 199 160.5 L 188.5 168 L 181.5 168 L 173 165 L 175 150.5 L 175 148.5 L 178.5 143 Z M 178 163 L 177 165 L 180 164 L 178 163 Z " /><path fill="rgb(15,49,69)" stroke="rgb(15,49,69)" stroke-width="1" opacity="0.9882352941176471" d="M 156.5 146 L 158 146.5 Q 150.9 151.4 140.5 153 L 140.5 152 Q 150.3 150.8 156.5 146 Z " /><path fill="rgb(15,49,69)" stroke="rgb(15,49,69)" stroke-width="1" opacity="0.9882352941176471" d="M 171.5 147 Q 173.8 146.3 173 148.5 L 171.5 147 Z " /><path fill="rgb(15,49,69)" stroke="rgb(15,49,69)" stroke-width="1" opacity="0.9882352941176471" d="M 184.5 148 L 183.5 150 L 184.5 148 Z " /><path fill="rgb(15,49,69)" stroke="rgb(15,49,69)" stroke-width="1" opacity="0.9882352941176471" d="M 116.5 151 L 121 153.5 L 119.5 153 Q 114.4 154.3 116.5 151 Z " /><path fill="rgb(15,49,69)" stroke="rgb(15,49,69)" stroke-width="1" opacity="0.9882352941176471" d="M 168.5 151 L 169.5 153 L 159.5 155 L 140.5 155 L 140.5 154 L 155.5 154 L 156.5 153 L 164.5 153 L 168.5 151 Z " /><path fill="rgb(15,49,69)" stroke="rgb(15,49,69)" stroke-width="1" opacity="0.9882352941176471" d="M 135.5 153 L 139 153.5 L 136 154.5 L 136.5 156 L 129 154.5 L 135.5 153 Z " /><path fill="rgb(15,49,69)" stroke="rgb(15,49,69)" stroke-width="1" opacity="0.9882352941176471" d="M 168.5 156 L 169 158.5 L 168 158.5 L 168.5 156 Z " /><path fill="rgb(15,49,69)" stroke="rgb(15,49,69)" stroke-width="1" opacity="0.9882352941176471" d="M 58.5 157 L 59 162.5 L 58 162.5 L 58.5 157 Z " /><path fill="rgb(15,49,69)" stroke="rgb(15,49,69)" stroke-width="1" opacity="0.9882352941176471" d="M 121.5 159 L 121 160.5 L 121.5 165 L 122.5 163 L 123 164.5 Q 120 165.9 120.5 171 L 120 160.5 L 121.5 159 Z " /><path fill="rgb(15,49,69)" stroke="rgb(15,49,69)" stroke-width="1" opacity="0.9882352941176471" d="M 124.5 166 L 127 166.5 L 124.5 167 L 124.5 166 Z " /><path fill="rgb(15,49,69)" stroke="rgb(15,49,69)" stroke-width="1" opacity="0.9882352941176471" d="M 167.5 166 Q 172 165 173 167.5 L 172.5 178 L 172 167 L 167.5 167 L 167.5 166 Z " /><path fill="rgb(15,49,69)" stroke="rgb(15,49,69)" stroke-width="1" opacity="0.9882352941176471" d="M 162.5 167 L 166 167.5 L 162.5 168 L 162.5 167 Z " /><path fill="rgb(15,49,69)" stroke="rgb(15,49,69)" stroke-width="1" opacity="0.9882352941176471" d="M 157.5 168 L 161 168.5 L 157.5 169 L 157.5 168 Z " /><path fill="rgb(15,49,69)" stroke="rgb(15,49,69)" stroke-width="1" opacity="0.9882352941176471" d="M 168.5 168 L 171 168.5 L 168.5 169 L 168.5 168 Z " /><path fill="rgb(15,49,69)" stroke="rgb(15,49,69)" stroke-width="1" opacity="0.9882352941176471" d="M 56.5 170 L 57 173.5 L 56 173.5 L 56.5 170 Z " /><path fill="rgb(15,49,69)" stroke="rgb(15,49,69)" stroke-width="1" opacity="0.9882352941176471" d="M 160.5 170 L 162 170.5 L 159.5 172 L 160.5 170 Z " /><path fill="rgb(15,49,69)" stroke="rgb(15,49,69)" stroke-width="1" opacity="0.9882352941176471" d="M 119.5 175 L 118 177.5 L 111.5 186 L 111 184.5 L 119.5 175 Z " /><path fill="rgb(15,49,69)" stroke="rgb(15,49,69)" stroke-width="1" opacity="0.9882352941176471" d="M 79.5 177 L 80.5 179 L 79.5 177 Z " /><path fill="rgb(15,49,69)" stroke="rgb(15,49,69)" stroke-width="1" opacity="0.9882352941176471" d="M 171.5 179 L 170.5 181 L 165.5 182 L 165.5 181 Q 170.1 181.6 171.5 179 Z " /><path fill="rgb(15,49,69)" stroke="rgb(15,49,69)" stroke-width="1" opacity="0.9882352941176471" d="M 125.5 180 L 131.5 188 L 138.5 187 L 138.5 188 L 130.5 189 L 125.5 180 Z " /><path fill="rgb(15,49,69)" stroke="rgb(15,49,69)" stroke-width="1" opacity="0.9882352941176471" d="M 160.5 182 L 164 182.5 L 151.5 185 L 151.5 184 Q 157.6 184.6 160.5 182 Z " /><path fill="rgb(15,49,69)" stroke="rgb(15,49,69)" stroke-width="1" opacity="0.9882352941176471" d="M 65.5 183 L 66.5 185 L 65.5 183 Z " /><path fill="rgb(15,49,69)" stroke="rgb(15,49,69)" stroke-width="1" opacity="0.9882352941176471" d="M 96.5 183 L 109 186.5 L 107.5 187 Q 104.6 184.4 98.5 185 L 96.5 183 Z " /><path fill="rgb(15,49,69)" stroke="rgb(15,49,69)" stroke-width="1" opacity="0.9882352941176471" d="M 147.5 185 L 150 185.5 L 147.5 186 L 147.5 185 Z " /><path fill="rgb(15,49,69)" stroke="rgb(15,49,69)" stroke-width="1" opacity="0.9882352941176471" d="M 141.5 186 L 145 186.5 L 141.5 187 L 141.5 186 Z " /><path fill="rgb(15,49,69)" stroke="rgb(15,49,69)" stroke-width="1" opacity="0.9882352941176471" d="M 36.5 187 L 37 189.5 L 36 189.5 L 36.5 187 Z " /><path fill="rgb(15,49,69)" stroke="rgb(15,49,69)" stroke-width="1" opacity="0.9882352941176471" d="M 82.5 189 Q 83.8 191.8 88 191.5 Q 86.8 194.2 85.5 192 L 82.5 189 Z " /><path fill="rgb(15,49,69)" stroke="rgb(15,49,69)" stroke-width="1" opacity="0.9882352941176471" d="M 64.5 192 L 63.5 194 L 62 193.5 L 64.5 192 Z " /><path fill="rgb(15,49,69)" stroke="rgb(15,49,69)" stroke-width="1" opacity="0.9882352941176471" d="M 90.5 193 L 91.5 195 L 90.5 193 Z " /><path fill="rgb(15,49,69)" stroke="rgb(15,49,69)" stroke-width="1" opacity="0.9882352941176471" d="M 48.5 194 L 49 196.5 L 48 196.5 L 48.5 194 Z " /><path fill="rgb(15,49,69)" stroke="rgb(15,49,69)" stroke-width="1" opacity="0.9882352941176471" d="M 105.5 194 L 104.5 196 L 105.5 194 Z " /><path fill="rgb(15,49,69)" stroke="rgb(15,49,69)" stroke-width="1" opacity="0.9882352941176471" d="M 53.5 195 Q 56.1 194.2 55 197.5 L 53 198.5 L 54 196.5 L 53.5 195 Z " /><path fill="rgb(15,49,69)" stroke="rgb(15,49,69)" stroke-width="1" opacity="0.9882352941176471" d="M 58.5 196 L 57.5 198 L 58.5 196 Z " /><path fill="rgb(15,49,69)" stroke="rgb(15,49,69)" stroke-width="1" opacity="0.9882352941176471" d="M 161.5 203 L 163 203.5 L 160.5 205 L 161.5 203 Z " /><path fill="rgb(51,53,55)" stroke="rgb(51,53,55)" stroke-width="1" opacity="0.9725490196078431" d="M 104.5 98 L 103.5 100 L 104.5 98 Z " /><path fill="rgb(51,53,55)" stroke="rgb(51,53,55)" stroke-width="1" opacity="0.9725490196078431" d="M 80.5 104 L 81 106.5 L 80 106.5 L 80.5 104 Z " /><path fill="rgb(51,53,55)" stroke="rgb(51,53,55)" stroke-width="1" opacity="0.9725490196078431" d="M 108.5 104 L 107.5 106 L 108.5 104 Z " /><path fill="rgb(51,53,55)" stroke="rgb(51,53,55)" stroke-width="1" opacity="0.9725490196078431" d="M 160.5 111 L 159.5 113 L 157 112.5 L 160.5 111 Z " /><path fill="rgb(51,53,55)" stroke="rgb(51,53,55)" stroke-width="1" opacity="0.9725490196078431" d="M 51.5 116 L 49.5 119 L 51.5 116 Z " /><path fill="rgb(51,53,55)" stroke="rgb(51,53,55)" stroke-width="1" opacity="0.9725490196078431" d="M 81.5 120 L 83 122.5 L 82 122.5 L 81.5 120 Z " /><path fill="rgb(51,53,55)" stroke="rgb(51,53,55)" stroke-width="1" opacity="0.9725490196078431" d="M 53 125 L 55 125.5 L 55 127.5 Q 53.9 130.8 56.5 130 L 56.5 132 L 59 132.5 L 53.5 133 L 49 130.5 L 51 130 L 51.5 128 L 52 129.5 L 51.5 131 L 53 130.5 L 53 125 Z " /><path fill="rgb(51,53,55)" stroke="rgb(51,53,55)" stroke-width="1" opacity="0.9725490196078431" d="M 86.5 128 L 91 134 L 88 132.5 L 88 130 Q 84.8 131 86.5 128 Z " /><path fill="rgb(51,53,55)" stroke="rgb(51,53,55)" stroke-width="1" opacity="0.9725490196078431" d="M 42.5 134 L 51.5 136 L 53 135.5 L 51 158.5 L 49 167.5 L 49 175.5 L 48 176.5 L 48 178.5 L 46 199 L 48 198.5 L 47.5 197 Q 50.1 197.8 49 194.5 L 48 189.5 L 49 188.5 L 50 173.5 L 52 171.5 Q 49.3 169.8 51 163.5 L 54 146.5 L 54 138.5 L 55 136 L 58.5 137 L 61 135.5 L 60.5 134 L 71.5 142 L 73 141.5 L 71 144.5 L 70 161.5 L 68 169.5 L 68 180.5 L 66 184.5 L 67 189.5 L 66 192 L 62 193.5 L 62.5 195 L 58.5 198 L 57 197.5 Q 57.8 200.1 54.5 199 L 55 197.5 Q 56.1 194.2 53.5 195 L 53 197.5 L 51.5 200 Q 46 201.5 44.5 199 L 42.5 199 L 33 197 L 40 135 L 42.5 134 Z M 43 136 L 42 139 L 43 139 L 43 136 Z M 59 157 L 58 163 L 59 163 L 59 157 Z M 57 170 L 56 174 L 57 174 L 57 170 Z M 37 187 L 36 190 L 37 190 L 37 187 Z " /><path fill="rgb(51,53,55)" stroke="rgb(51,53,55)" stroke-width="1" opacity="0.9725490196078431" d="M 92.5 134 L 98 138.5 L 97.5 141 L 96.5 138 Q 92.5 138.5 92 135.5 L 92.5 134 Z " /><path fill="rgb(51,53,55)" stroke="rgb(51,53,55)" stroke-width="1" opacity="0.9725490196078431" d="M 170.5 138 L 169.5 140 L 170.5 138 Z " /><path fill="rgb(51,53,55)" stroke="rgb(51,53,55)" stroke-width="1" opacity="0.9725490196078431" d="M 131.5 141 L 132 142.5 L 130 143.5 L 131.5 141 Z " /><path fill="rgb(51,53,55)" stroke="rgb(51,53,55)" stroke-width="1" opacity="0.9725490196078431" d="M 165.5 141 L 166 142.5 L 162.5 145 Q 161 142.5 159.5 146 L 157 145.5 L 165.5 141 Z " /><path fill="rgb(51,53,55)" stroke="rgb(51,53,55)" stroke-width="1" opacity="0.9725490196078431" d="M 108.5 146 L 109.5 148 L 108.5 146 Z " /><path fill="rgb(51,53,55)" stroke="rgb(51,53,55)" stroke-width="1" opacity="0.9725490196078431" d="M 120.5 149 L 121 150.5 Q 118.2 152.3 122.5 154 Q 128 155.5 129.5 153 L 128.5 155 L 124.5 156 L 122 155.5 L 120.5 153 L 119 153.5 L 120 150.5 L 120.5 149 Z " /><path fill="rgb(51,53,55)" stroke="rgb(51,53,55)" stroke-width="1" opacity="0.9725490196078431" d="M 128.5 149 L 130 151.5 L 128 150.5 L 128.5 149 Z " /><path fill="rgb(51,53,55)" stroke="rgb(51,53,55)" stroke-width="1" opacity="0.9725490196078431" d="M 198.5 161 L 197.5 163 L 198.5 161 Z " /><path fill="rgb(51,53,55)" stroke="rgb(51,53,55)" stroke-width="1" opacity="0.9725490196078431" d="M 171.5 184 L 172 191.5 L 171 191.5 L 171.5 184 Z " /><path fill="rgb(51,53,55)" stroke="rgb(51,53,55)" stroke-width="1" opacity="0.9725490196078431" d="M 114 188 L 120 190.5 L 118.5 190 L 113.5 191 L 114 189.5 L 114 188 Z " /><path fill="rgb(51,53,55)" stroke="rgb(51,53,55)" stroke-width="1" opacity="0.9725490196078431" d="M 121.5 190 L 126 191.5 L 122 194.5 Q 121.3 192.3 123.5 193 L 123.5 192 Q 119.5 193 121.5 190 Z " /><path fill="rgb(51,53,55)" stroke="rgb(51,53,55)" stroke-width="1" opacity="0.9725490196078431" d="M 88.5 191 L 91 194.5 L 87.5 196 L 87 194 L 89 193.5 L 87 192.5 L 88.5 191 Z " /><path fill="rgb(51,53,55)" stroke="rgb(51,53,55)" stroke-width="1" opacity="0.9725490196078431" d="M 84 192 L 86 192.5 L 85.5 195 L 84 192 Z " /><path fill="rgb(51,53,55)" stroke="rgb(51,53,55)" stroke-width="1" opacity="0.9725490196078431" d="M 115.5 192 L 119.5 195 L 121 194.5 L 118.5 196 L 115.5 192 Z " /><path fill="rgb(51,53,55)" stroke="rgb(51,53,55)" stroke-width="1" opacity="0.9725490196078431" d="M 97 194 L 99 194.5 L 97 195.5 L 97 194 Z " /><path fill="rgb(51,53,55)" stroke="rgb(51,53,55)" stroke-width="1" opacity="0.9725490196078431" d="M 92.5 195 L 93.5 197 L 92.5 195 Z " /><path fill="rgb(51,53,55)" stroke="rgb(51,53,55)" stroke-width="1" opacity="0.9725490196078431" d="M 129.5 198 L 130 201.5 L 129 201.5 L 129.5 198 Z " /><path fill="rgb(51,53,55)" stroke="rgb(51,53,55)" stroke-width="1" opacity="0.9725490196078431" d="M 163.5 201 L 162.5 203 L 163.5 201 Z " /><path fill="rgb(51,53,55)" stroke="rgb(51,53,55)" stroke-width="1" opacity="0.9725490196078431" d="M 151.5 206 L 154 206.5 L 151.5 207 L 151.5 206 Z " /><path fill="rgb(28,84,112)" stroke="rgb(28,84,112)" stroke-width="1" opacity="0.996078431372549" d="M 85.5 99 L 86 101.5 L 85 101.5 L 85.5 99 Z " /><path fill="rgb(28,84,112)" stroke="rgb(28,84,112)" stroke-width="1" opacity="0.996078431372549" d="M 102.5 101 L 103 103.5 L 102 103.5 L 102.5 101 Z " /><path fill="rgb(28,84,112)" stroke="rgb(28,84,112)" stroke-width="1" opacity="0.996078431372549" d="M 76.5 108 L 77 110.5 L 75 111.5 L 76.5 108 Z " /><path fill="rgb(28,84,112)" stroke="rgb(28,84,112)" stroke-width="1" opacity="0.996078431372549" d="M 80.5 110 L 81 113.5 L 80 113.5 L 80.5 110 Z " /><path fill="rgb(28,84,112)" stroke="rgb(28,84,112)" stroke-width="1" opacity="0.996078431372549" d="M 84.5 110 L 85 112.5 L 84 112.5 L 84.5 110 Z " /><path fill="rgb(28,84,112)" stroke="rgb(28,84,112)" stroke-width="1" opacity="0.996078431372549" d="M 68.5 111 Q 76.3 108.3 74 115.5 L 74 117.5 L 75 129.5 L 77.5 136 L 78 132.5 L 75 118.5 L 76.5 118 L 79 118.5 Q 76.5 120 80 121.5 L 82.5 126 L 84 125.5 L 83 126.5 L 86 129.5 L 89 133.5 L 88.5 135 L 90.5 134 L 98.5 141 L 100 140.5 Q 97.8 141.8 100.5 143 L 102.5 142 L 103.5 145 L 114.5 151 L 116 150.5 Q 113.7 151.8 116.5 153 L 121.5 154 L 123 153.5 L 122 156 L 135.5 155 L 146 151.5 L 144 150.5 L 145.5 150 L 148.5 151 L 154 148.5 L 153.5 147 L 156.5 148 Q 159.9 143.9 167 143.5 L 166.5 142 L 169 140.5 Q 166.2 138.8 170.5 137 L 169.5 140 L 173 137.5 L 173.5 136 Q 175 138.5 176.5 135 L 181 131.5 L 182.5 128 L 184.5 131 L 182.5 130 L 185 133.5 L 194 149.5 L 193.5 151 Q 195.8 150.3 195 152.5 L 198 159.5 L 196 163 L 194 163.5 L 194.5 165 L 192.5 165 L 190 165.5 L 192 166.5 L 189.5 168 L 188.5 165 L 183 163 Q 184.1 160.3 181.5 161 L 179.5 162 L 179.5 161 L 182.5 160 L 184 160.5 L 181 153 L 177.5 152 L 176 152.5 L 176 150.5 L 178 144.5 L 176 145.5 L 174 149.5 L 175 154.5 L 173 164.5 Q 175.5 166 172 167.5 L 172 178.5 L 173 179.5 L 170.5 180 L 165 181.5 L 165.5 183 L 160.5 182 L 156 183.5 L 156.5 185 L 151.5 184 L 151.5 186 L 147.5 185 L 147.5 187 L 141 186 Q 142.1 188.7 139.5 188 L 134.5 187 L 131.5 188 L 127.5 183 L 126 183.5 L 127 181.5 L 121.5 174 L 118 176.5 L 118.5 178 Q 117.3 175.8 116 178.5 L 113 182.5 Q 115.2 183.7 112.5 185 L 111 184.5 Q 111.9 187.5 107.5 186 L 105.5 187 L 105.5 186 L 107 185.5 L 103.5 185 L 102 185.5 L 102.5 184 L 93.5 182 L 92 182.5 Q 92.8 180.3 90.5 181 L 88.5 182 L 88.5 180 L 85.5 181 L 85.5 179 L 83.5 180 L 79.5 177 L 78 177.5 Q 78.8 175.3 76.5 176 L 75 176.5 L 74 170.5 L 75 167.5 Q 73.9 160.4 78 158.5 L 78 152.5 L 76 144.5 L 73 140 L 65 136 Q 66.1 133.3 63.5 134 L 60 131.5 L 58.5 127 L 57 127.5 L 58 124.5 L 55 117 L 53 116.5 L 68.5 111 Z M 182 135 L 180 137 L 181 140 L 182 138 L 182 135 Z M 77 136 L 75 139 L 77 138 L 77 136 Z M 79 136 L 80 138 L 84 137 Q 85 139 86 137 L 79 136 Z M 83 139 L 83 144 L 83 142 L 102 149 L 104 149 L 91 144 L 83 139 Z M 84 144 L 83 162 L 79 160 L 77 161 L 91 167 L 94 167 L 84 163 L 84 144 Z M 169 145 Q 167 148 170 147 L 169 145 Z M 172 147 L 173 149 Q 174 146 172 147 Z M 105 149 L 105 150 Q 109 149 111 152 L 113 152 Q 111 148 105 149 Z M 169 151 L 165 153 L 157 153 L 156 154 L 141 154 L 141 155 L 160 155 L 170 153 L 169 151 Z M 169 156 L 168 159 L 169 159 L 169 156 Z M 121 160 L 121 171 L 122 166 L 121 160 Z M 78 162 L 77 164 L 85 167 L 87 167 L 78 162 Z M 126 162 L 123 166 L 127 167 Q 125 165 128 164 L 126 162 Z M 168 166 L 168 167 L 172 167 L 168 166 Z M 88 167 L 88 168 L 94 170 Q 97 171 96 168 L 88 167 Z M 163 167 L 163 168 L 166 168 L 163 167 Z M 158 168 L 158 169 L 161 169 L 158 168 Z M 169 168 L 169 169 L 171 169 L 169 168 Z " /><path fill="rgb(28,84,112)" stroke="rgb(28,84,112)" stroke-width="1" opacity="0.996078431372549" d="M 179.5 112 L 180 115.5 L 179 115.5 L 179.5 112 Z " /><path fill="rgb(28,84,112)" stroke="rgb(28,84,112)" stroke-width="1" opacity="0.996078431372549" d="M 75 114 Q 77.7 112.9 77 115.5 L 75 116.5 L 75 114 Z " /><path fill="rgb(28,84,112)" stroke="rgb(28,84,112)" stroke-width="1" opacity="0.996078431372549" d="M 48.5 119 L 47.5 121 L 48.5 119 Z " /><path fill="rgb(28,84,112)" stroke="rgb(28,84,112)" stroke-width="1" opacity="0.996078431372549" d="M 50.5 123 L 54 124.5 L 51 126.5 L 52 125.5 L 50.5 123 Z " /><path fill="rgb(28,84,112)" stroke="rgb(28,84,112)" stroke-width="1" opacity="0.996078431372549" d="M 42.5 133 L 41.5 135 L 40 134.5 L 42.5 133 Z " /><path fill="rgb(28,84,112)" stroke="rgb(28,84,112)" stroke-width="1" opacity="0.996078431372549" d="M 39.5 138 L 40 140.5 L 39 140.5 L 39.5 138 Z " /><path fill="rgb(28,84,112)" stroke="rgb(28,84,112)" stroke-width="1" opacity="0.996078431372549" d="M 156.5 145 L 155.5 147 L 156.5 145 Z " /><path fill="rgb(28,84,112)" stroke="rgb(28,84,112)" stroke-width="1" opacity="0.996078431372549" d="M 37.5 155 L 38 157.5 L 37 157.5 L 37.5 155 Z " /><path fill="rgb(28,84,112)" stroke="rgb(28,84,112)" stroke-width="1" opacity="0.996078431372549" d="M 177.5 163 L 180 163.5 L 176.5 165 L 177.5 163 Z " /><path fill="rgb(28,84,112)" stroke="rgb(28,84,112)" stroke-width="1" opacity="0.996078431372549" d="M 181.5 164 L 183 164.5 L 179.5 166 L 179.5 165 L 181.5 164 Z " /><path fill="rgb(28,84,112)" stroke="rgb(28,84,112)" stroke-width="1" opacity="0.996078431372549" d="M 49.5 167 L 50 169.5 L 49 169.5 L 49.5 167 Z " /><path fill="rgb(28,84,112)" stroke="rgb(28,84,112)" stroke-width="1" opacity="0.996078431372549" d="M 119.5 189 L 119.5 191 L 124 192.5 L 121 193.5 L 121.5 195 L 119.5 194 L 118 194.5 L 119 192.5 L 116.5 192 L 114 191.5 L 119.5 189 Z " /><path fill="rgb(28,84,112)" stroke="rgb(28,84,112)" stroke-width="1" opacity="0.996078431372549" d="M 89.5 191 L 91.5 194 L 89.5 191 Z " /><path fill="rgb(28,84,112)" stroke="rgb(28,84,112)" stroke-width="1" opacity="0.996078431372549" d="M 94.5 193 L 98 193.5 L 94.5 194 L 94.5 193 Z " /><path fill="rgb(28,84,112)" stroke="rgb(28,84,112)" stroke-width="1" opacity="0.996078431372549" d="M 99.5 195 L 102 196.5 L 100.5 196 L 99.5 195 Z " /><path fill="rgb(28,84,112)" stroke="rgb(28,84,112)" stroke-width="1" opacity="0.996078431372549" d="M 128.5 196 L 129.5 198 L 128.5 196 Z " /><path fill="rgb(28,84,112)" stroke="rgb(28,84,112)" stroke-width="1" opacity="0.996078431372549" d="M 136.5 201 L 141 201.5 L 136.5 202 L 136.5 201 Z " /><path fill="rgb(28,84,112)" stroke="rgb(28,84,112)" stroke-width="1" opacity="0.996078431372549" d="M 144.5 202 L 152 203.5 L 149.5 204 L 144.5 203 L 144.5 202 Z " /><path fill="rgb(142,110,111)" stroke="rgb(142,110,111)" stroke-width="1" opacity="0.8901960784313725" d="M 144.5 59 L 146 61.5 L 145 61.5 L 144.5 59 Z " /><path fill="rgb(142,110,111)" stroke="rgb(142,110,111)" stroke-width="1" opacity="0.8901960784313725" d="M 102.5 66 L 101.5 68 L 102.5 66 Z " /><path fill="rgb(142,110,111)" stroke="rgb(142,110,111)" stroke-width="1" opacity="0.8901960784313725" d="M 159.5 67 L 160.5 69 L 159.5 67 Z " /><path fill="rgb(142,110,111)" stroke="rgb(142,110,111)" stroke-width="1" opacity="0.8901960784313725" d="M 169.5 75 L 170.5 77 L 169.5 75 Z " /><path fill="rgb(142,110,111)" stroke="rgb(142,110,111)" stroke-width="1" opacity="0.8901960784313725" d="M 88.5 79 L 87.5 81 L 88.5 79 Z " /><path fill="rgb(142,110,111)" stroke="rgb(142,110,111)" stroke-width="1" opacity="0.8901960784313725" d="M 173.5 80 L 174.5 82 L 173.5 80 Z " /><path fill="rgb(142,110,111)" stroke="rgb(142,110,111)" stroke-width="1" opacity="0.8901960784313725" d="M 56.5 112 L 55.5 114 L 54 113.5 L 56.5 112 Z " /><path fill="rgb(142,110,111)" stroke="rgb(142,110,111)" stroke-width="1" opacity="0.8901960784313725" d="M 181.5 117 L 182 119.5 L 181 119.5 L 181.5 117 Z " /><path fill="rgb(142,110,111)" stroke="rgb(142,110,111)" stroke-width="1" opacity="0.8901960784313725" d="M 101.5 119 L 100.5 121 L 98.5 122 L 99.5 120 L 101.5 119 Z " /><path fill="rgb(142,110,111)" stroke="rgb(142,110,111)" stroke-width="1" opacity="0.8901960784313725" d="M 46.5 123 L 47 125.5 L 49 129.5 L 46 127.5 L 45 124.5 L 46.5 123 Z " /><path fill="rgb(142,110,111)" stroke="rgb(142,110,111)" stroke-width="1" opacity="0.8901960784313725" d="M 182.5 125 L 184 127.5 L 182 126.5 L 182.5 125 Z " /><path fill="rgb(142,110,111)" stroke="rgb(142,110,111)" stroke-width="1" opacity="0.8901960784313725" d="M 157.5 126 L 158.5 128 L 157.5 126 Z " /><path fill="rgb(142,110,111)" stroke="rgb(142,110,111)" stroke-width="1" opacity="0.8901960784313725" d="M 51.5 127 Q 53.8 126.3 53 128.5 L 51.5 127 Z " /><path fill="rgb(142,110,111)" stroke="rgb(142,110,111)" stroke-width="1" opacity="0.8901960784313725" d="M 174.5 127 L 175 128.5 L 173 129.5 L 174.5 127 Z " /><path fill="rgb(142,110,111)" stroke="rgb(142,110,111)" stroke-width="1" opacity="0.8901960784313725" d="M 88 128 L 93.5 131 L 95.5 131 L 105.5 134 L 109.5 137 L 111.5 136 L 118.5 138 L 120.5 140 Q 121.5 137 126.5 138 L 133.5 141 L 134.5 140 L 147.5 140 L 149.5 140 L 151.5 141 Q 153.2 138.2 158.5 139 L 160.5 139 L 168.5 138 L 166.5 141 L 164.5 142 L 163 141.5 Q 163.8 143.8 161.5 143 Q 158 146.5 150.5 146 L 149.5 145 L 136.5 145 L 130.5 143 L 130 145 L 127 145.5 L 129 148.5 L 128 150.5 L 130 150.5 L 128.5 154 L 125.5 153 L 123 154 L 122.5 152 Q 121.3 154.3 120 151.5 L 122 150.5 Q 118 148.5 122 146.5 L 119.5 141 L 114.5 142 L 99.5 139 L 98 139.5 L 96.5 136 L 95.5 137 L 92.5 134 L 91 133.5 L 93 132.5 L 91 132 L 91 130 Q 86.9 131.3 88 128 Z " /><path fill="rgb(142,110,111)" stroke="rgb(142,110,111)" stroke-width="1" opacity="0.8901960784313725" d="M 178.5 128 L 177.5 130 L 178.5 128 Z " /><path fill="rgb(142,110,111)" stroke="rgb(142,110,111)" stroke-width="1" opacity="0.8901960784313725" d="M 41.5 131 L 39.5 134 L 39 132 L 41.5 131 Z " /><path fill="rgb(142,110,111)" stroke="rgb(142,110,111)" stroke-width="1" opacity="0.8901960784313725" d="M 43.5 131 Q 45.8 130.3 45 132.5 L 44.5 134 L 46 134.5 L 44.5 135 L 43 133.5 L 43.5 131 Z " /><path fill="rgb(142,110,111)" stroke="rgb(142,110,111)" stroke-width="1" opacity="0.8901960784313725" d="M 46.5 132 L 51 132.5 L 46.5 133 L 46.5 132 Z " /><path fill="rgb(142,110,111)" stroke="rgb(142,110,111)" stroke-width="1" opacity="0.8901960784313725" d="M 52.5 133 L 53.5 135 Q 50.7 135.7 52.5 133 Z " /><path fill="rgb(142,110,111)" stroke="rgb(142,110,111)" stroke-width="1" opacity="0.8901960784313725" d="M 55.5 133 L 56 135.5 L 54 136.5 L 55.5 133 Z " /><path fill="rgb(142,110,111)" stroke="rgb(142,110,111)" stroke-width="1" opacity="0.8901960784313725" d="M 170.5 134 L 169.5 136 L 170.5 134 Z " /><path fill="rgb(142,110,111)" stroke="rgb(142,110,111)" stroke-width="1" opacity="0.8901960784313725" d="M 38.5 135 L 40 137.5 L 38 136.5 L 38.5 135 Z " /><path fill="rgb(142,110,111)" stroke="rgb(142,110,111)" stroke-width="1" opacity="0.8901960784313725" d="M 38.5 144 L 39 146.5 L 38 146.5 L 38.5 144 Z " /><path fill="rgb(142,110,111)" stroke="rgb(142,110,111)" stroke-width="1" opacity="0.8901960784313725" d="M 193.5 145 L 195 147.5 L 193 146.5 L 193.5 145 Z " /><path fill="rgb(142,110,111)" stroke="rgb(142,110,111)" stroke-width="1" opacity="0.8901960784313725" d="M 51.5 152 L 52.5 154 L 51.5 152 Z " /><path fill="rgb(142,110,111)" stroke="rgb(142,110,111)" stroke-width="1" opacity="0.8901960784313725" d="M 75.5 160 L 75 161.5 L 74.5 163 L 74 161.5 L 75.5 160 Z " /><path fill="rgb(142,110,111)" stroke="rgb(142,110,111)" stroke-width="1" opacity="0.8901960784313725" d="M 36.5 162 L 37 164.5 L 36 164.5 L 36.5 162 Z " /><path fill="rgb(142,110,111)" stroke="rgb(142,110,111)" stroke-width="1" opacity="0.8901960784313725" d="M 68.5 169 L 69 171.5 L 68 171.5 L 68.5 169 Z " /><path fill="rgb(142,110,111)" stroke="rgb(142,110,111)" stroke-width="1" opacity="0.8901960784313725" d="M 49.5 170 L 50.5 172 L 49.5 170 Z " /><path fill="rgb(142,110,111)" stroke="rgb(142,110,111)" stroke-width="1" opacity="0.8901960784313725" d="M 197.5 170 L 197 171.5 L 196.5 173 L 196 171.5 L 197.5 170 Z " /><path fill="rgb(142,110,111)" stroke="rgb(142,110,111)" stroke-width="1" opacity="0.8901960784313725" d="M 191.5 171 L 192.5 173 L 191.5 171 Z " /><path fill="rgb(142,110,111)" stroke="rgb(142,110,111)" stroke-width="1" opacity="0.8901960784313725" d="M 48.5 178 L 49.5 180 L 48.5 178 Z " /><path fill="rgb(142,110,111)" stroke="rgb(142,110,111)" stroke-width="1" opacity="0.8901960784313725" d="M 75.5 179 L 76.5 181 Q 73.7 181.7 75.5 179 Z " /><path fill="rgb(142,110,111)" stroke="rgb(142,110,111)" stroke-width="1" opacity="0.8901960784313725" d="M 171.5 181 L 172 183.5 L 171 183.5 L 171.5 181 Z " /><path fill="rgb(142,110,111)" stroke="rgb(142,110,111)" stroke-width="1" opacity="0.8901960784313725" d="M 172.5 186 L 173 188.5 L 172 188.5 L 172.5 186 Z " /><path fill="rgb(142,110,111)" stroke="rgb(142,110,111)" stroke-width="1" opacity="0.8901960784313725" d="M 112.5 187 L 114 189.5 L 113 189.5 L 112.5 187 Z " /><path fill="rgb(142,110,111)" stroke="rgb(142,110,111)" stroke-width="1" opacity="0.8901960784313725" d="M 32 188 Q 35 186.8 34 190.5 L 32 193.5 L 33 196.5 L 31 195.5 L 32 188 Z " /><path fill="rgb(142,110,111)" stroke="rgb(142,110,111)" stroke-width="1" opacity="0.8901960784313725" d="M 107 192 L 109 192.5 L 107 193.5 L 107 192 Z " /><path fill="rgb(142,110,111)" stroke="rgb(142,110,111)" stroke-width="1" opacity="0.8901960784313725" d="M 116.5 192 L 117.5 194 L 116.5 192 Z " /><path fill="rgb(142,110,111)" stroke="rgb(142,110,111)" stroke-width="1" opacity="0.8901960784313725" d="M 127.5 192 L 130 193.5 L 128.5 194 L 127.5 192 Z " /><path fill="rgb(142,110,111)" stroke="rgb(142,110,111)" stroke-width="1" opacity="0.8901960784313725" d="M 85.5 193 L 88 193.5 L 84.5 195 L 85.5 193 Z " /><path fill="rgb(142,110,111)" stroke="rgb(142,110,111)" stroke-width="1" opacity="0.8901960784313725" d="M 92.5 194 L 91.5 196 L 92.5 194 Z " /><path fill="rgb(142,110,111)" stroke="rgb(142,110,111)" stroke-width="1" opacity="0.8901960784313725" d="M 104.5 194 L 105.5 196 L 104.5 194 Z " /><path fill="rgb(142,110,111)" stroke="rgb(142,110,111)" stroke-width="1" opacity="0.8901960784313725" d="M 119.5 194 L 122 195.5 L 120.5 196 L 119.5 194 Z " /><path fill="rgb(142,110,111)" stroke="rgb(142,110,111)" stroke-width="1" opacity="0.8901960784313725" d="M 47.5 195 L 48 197 L 46 196.5 L 47.5 195 Z " /><path fill="rgb(142,110,111)" stroke="rgb(142,110,111)" stroke-width="1" opacity="0.8901960784313725" d="M 101.5 195 L 103.5 198 Q 101.3 198.8 102 196.5 L 101.5 195 Z " /><path fill="rgb(142,110,111)" stroke="rgb(142,110,111)" stroke-width="1" opacity="0.8901960784313725" d="M 167.5 197 L 168 198.5 L 166 199.5 L 167.5 197 Z " /><path fill="rgb(142,110,111)" stroke="rgb(142,110,111)" stroke-width="1" opacity="0.8901960784313725" d="M 129.5 203 Q 131.8 202.3 131 204.5 L 129.5 203 Z " /><path fill="rgb(142,110,111)" stroke="rgb(142,110,111)" stroke-width="1" opacity="0.8901960784313725" d="M 135.5 203 L 137 203.5 L 134.5 205 L 135.5 203 Z " /><path fill="rgb(142,110,111)" stroke="rgb(142,110,111)" stroke-width="1" opacity="0.8901960784313725" d="M 141.5 206 L 144 207.5 L 142.5 207 L 141.5 206 Z " /><path fill="rgb(142,110,111)" stroke="rgb(142,110,111)" stroke-width="1" opacity="0.8901960784313725" d="M 155.5 206 L 162 206.5 L 155.5 207 L 155.5 206 Z " /><path fill="rgb(136,149,157)" stroke="rgb(136,149,157)" stroke-width="1" opacity="0.7647058823529411" d="M 141.5 28 Q 143.8 27.3 143 29.5 Q 145.5 31 144 36.5 L 143 36.5 L 141.5 29 L 140 31.5 L 140.5 33 L 139 32.5 L 140 34.5 L 138 35 L 131.5 57 L 131 54.5 L 135 39.5 L 141.5 28 Z " /><path fill="rgb(136,149,157)" stroke="rgb(136,149,157)" stroke-width="1" opacity="0.7647058823529411" d="M 143 40 L 145 40.5 L 145 50.5 L 146 56 Q 143.3 57.1 144 54.5 L 145 52.5 L 143 40 Z " /><path fill="rgb(136,149,157)" stroke="rgb(136,149,157)" stroke-width="1" opacity="0.7647058823529411" d="M 130.5 58 L 129.5 60 L 117.5 61 L 116.5 62 L 117.5 60 L 129.5 59 L 130.5 58 Z " /><path fill="rgb(136,149,157)" stroke="rgb(136,149,157)" stroke-width="1" opacity="0.7647058823529411" d="M 113.5 61 L 114 63 Q 109.5 62.2 107.5 65 L 108.5 63 L 113.5 61 Z " /><path fill="rgb(136,149,157)" stroke="rgb(136,149,157)" stroke-width="1" opacity="0.7647058823529411" d="M 146.5 62 L 149 63.5 L 147.5 63 L 146.5 62 Z " /><path fill="rgb(136,149,157)" stroke="rgb(136,149,157)" stroke-width="1" opacity="0.7647058823529411" d="M 104.5 65 L 106 65.5 L 102.5 68 L 104.5 65 Z " /><path fill="rgb(136,149,157)" stroke="rgb(136,149,157)" stroke-width="1" opacity="0.7647058823529411" d="M 155.5 65 L 159 67.5 L 157.5 67 L 155.5 65 Z " /><path fill="rgb(136,149,157)" stroke="rgb(136,149,157)" stroke-width="1" opacity="0.7647058823529411" d="M 100.5 67 L 101 69 L 99 68.5 L 100.5 67 Z " /><path fill="rgb(136,149,157)" stroke="rgb(136,149,157)" stroke-width="1" opacity="0.7647058823529411" d="M 161.5 68 L 166 71.5 L 165.5 73 L 165 71 L 161 70 L 161.5 68 Z " /><path fill="rgb(136,149,157)" stroke="rgb(136,149,157)" stroke-width="1" opacity="0.7647058823529411" d="M 96.5 70 L 98 70.5 L 96 71 L 92.5 76 L 93 74.5 L 96.5 70 Z " /><path fill="rgb(136,149,157)" stroke="rgb(136,149,157)" stroke-width="1" opacity="0.7647058823529411" d="M 167.5 73 L 168.5 75 L 167.5 73 Z " /><path fill="rgb(136,149,157)" stroke="rgb(136,149,157)" stroke-width="1" opacity="0.7647058823529411" d="M 90.5 76 L 91 77.5 L 89 78.5 L 90.5 76 Z " /><path fill="rgb(136,149,157)" stroke="rgb(136,149,157)" stroke-width="1" opacity="0.7647058823529411" d="M 169.5 76 L 172 77 L 173 79.5 L 169.5 76 Z " /><path fill="rgb(136,149,157)" stroke="rgb(136,149,157)" stroke-width="1" opacity="0.7647058823529411" d="M 87.5 81 L 86 83.5 L 82.5 90 L 83 88.5 L 87.5 81 Z " /><path fill="rgb(136,149,157)" stroke="rgb(136,149,157)" stroke-width="1" opacity="0.7647058823529411" d="M 174.5 82 Q 176.8 81.3 176 83.5 L 177 85.5 L 176 85.5 L 174.5 82 Z " /><path fill="rgb(136,149,157)" stroke="rgb(136,149,157)" stroke-width="1" opacity="0.7647058823529411" d="M 177.5 87 Q 180.1 86.2 179 89.5 L 181 94.5 L 180 94.5 L 177.5 87 Z " /><path fill="rgb(136,149,157)" stroke="rgb(136,149,157)" stroke-width="1" opacity="0.7647058823529411" d="M 82.5 91 L 82 92.5 L 80.5 95 L 81 93.5 L 82.5 91 Z " /><path fill="rgb(136,149,157)" stroke="rgb(136,149,157)" stroke-width="1" opacity="0.7647058823529411" d="M 80.5 96 L 80 97.5 L 77.5 108 L 77 105.5 L 80.5 96 Z " /><path fill="rgb(136,149,157)" stroke="rgb(136,149,157)" stroke-width="1" opacity="0.7647058823529411" d="M 182.5 100 L 183 105.5 L 182 105.5 L 182.5 100 Z " /><path fill="rgb(136,149,157)" stroke="rgb(136,149,157)" stroke-width="1" opacity="0.7647058823529411" d="M 69.5 108 L 72 108.5 L 69.5 109 L 69.5 108 Z " /><path fill="rgb(136,149,157)" stroke="rgb(136,149,157)" stroke-width="1" opacity="0.7647058823529411" d="M 182.5 108 L 184 108.5 L 184 116.5 L 182 117.5 Q 184.7 115.8 183 109.5 L 182.5 108 Z " /><path fill="rgb(136,149,157)" stroke="rgb(136,149,157)" stroke-width="1" opacity="0.7647058823529411" d="M 154.5 111 L 155.5 113 L 154.5 111 Z " /><path fill="rgb(136,149,157)" stroke="rgb(136,149,157)" stroke-width="1" opacity="0.7647058823529411" d="M 52.5 114 L 51.5 116 L 52.5 114 Z " /><path fill="rgb(136,149,157)" stroke="rgb(136,149,157)" stroke-width="1" opacity="0.7647058823529411" d="M 45.5 123 Q 48.5 124.5 45.5 126 L 45.5 123 Z " /><path fill="rgb(136,149,157)" stroke="rgb(136,149,157)" stroke-width="1" opacity="0.7647058823529411" d="M 55.5 128 L 56.5 130 L 55.5 128 Z " /><path fill="rgb(136,149,157)" stroke="rgb(136,149,157)" stroke-width="1" opacity="0.7647058823529411" d="M 45.5 131 L 48 131.5 L 45.5 132 L 45.5 131 Z " /><path fill="rgb(136,149,157)" stroke="rgb(136,149,157)" stroke-width="1" opacity="0.7647058823529411" d="M 185.5 131 L 186.5 133 L 185.5 131 Z " /><path fill="rgb(136,149,157)" stroke="rgb(136,149,157)" stroke-width="1" opacity="0.7647058823529411" d="M 37.5 136 L 38 145.5 L 37 145.5 L 37.5 136 Z " /><path fill="rgb(136,149,157)" stroke="rgb(136,149,157)" stroke-width="1" opacity="0.7647058823529411" d="M 191.5 143 L 194 144.5 L 192 145.5 L 191.5 143 Z " /><path fill="rgb(136,149,157)" stroke="rgb(136,149,157)" stroke-width="1" opacity="0.7647058823529411" d="M 71.5 146 L 72 148.5 L 71 148.5 L 71.5 146 Z " /><path fill="rgb(136,149,157)" stroke="rgb(136,149,157)" stroke-width="1" opacity="0.7647058823529411" d="M 75.5 146 L 76 151.5 L 75 151.5 L 75.5 146 Z " /><path fill="rgb(136,149,157)" stroke="rgb(136,149,157)" stroke-width="1" opacity="0.7647058823529411" d="M 36.5 149 L 37 153.5 L 36 153.5 L 36.5 149 Z " /><path fill="rgb(136,149,157)" stroke="rgb(136,149,157)" stroke-width="1" opacity="0.7647058823529411" d="M 198.5 154 L 199 157.5 L 198 157.5 L 197 155.5 L 198.5 154 Z " /><path fill="rgb(136,149,157)" stroke="rgb(136,149,157)" stroke-width="1" opacity="0.7647058823529411" d="M 35.5 157 L 36 165.5 L 35 165.5 L 35.5 157 Z " /><path fill="rgb(136,149,157)" stroke="rgb(136,149,157)" stroke-width="1" opacity="0.7647058823529411" d="M 75.5 157 L 76 158.5 L 74 159.5 L 75.5 157 Z " /><path fill="rgb(136,149,157)" stroke="rgb(136,149,157)" stroke-width="1" opacity="0.7647058823529411" d="M 73 163 Q 76 162 75 165 Q 72 166 73 163 Z " /><path fill="rgb(136,149,157)" stroke="rgb(136,149,157)" stroke-width="1" opacity="0.7647058823529411" d="M 173.5 166 L 174 178.5 L 173 178.5 L 173.5 166 Z " /><path fill="rgb(136,149,157)" stroke="rgb(136,149,157)" stroke-width="1" opacity="0.7647058823529411" d="M 72.5 167 L 74 170.5 L 72.5 173 L 72 171.5 L 73 169.5 L 72.5 167 Z " /><path fill="rgb(136,149,157)" stroke="rgb(136,149,157)" stroke-width="1" opacity="0.7647058823529411" d="M 34.5 168 L 35 173.5 L 34 173.5 L 34.5 168 Z " /><path fill="rgb(136,149,157)" stroke="rgb(136,149,157)" stroke-width="1" opacity="0.7647058823529411" d="M 188.5 168 L 191 169.5 L 188 170 L 188.5 168 Z " /><path fill="rgb(136,149,157)" stroke="rgb(136,149,157)" stroke-width="1" opacity="0.7647058823529411" d="M 68.5 172 L 69 174.5 L 68 174.5 L 68.5 172 Z " /><path fill="rgb(136,149,157)" stroke="rgb(136,149,157)" stroke-width="1" opacity="0.7647058823529411" d="M 194.5 172 L 193.5 174 L 192 173.5 L 194.5 172 Z " /><path fill="rgb(136,149,157)" stroke="rgb(136,149,157)" stroke-width="1" opacity="0.7647058823529411" d="M 33.5 176 L 34 182.5 L 33 182.5 L 33.5 176 Z " /><path fill="rgb(136,149,157)" stroke="rgb(136,149,157)" stroke-width="1" opacity="0.7647058823529411" d="M 75 177 L 77 177.5 L 75 178.5 L 75 177 Z " /><path fill="rgb(136,149,157)" stroke="rgb(136,149,157)" stroke-width="1" opacity="0.7647058823529411" d="M 67.5 182 L 68 184.5 L 67 184.5 L 67.5 182 Z " /><path fill="rgb(136,149,157)" stroke="rgb(136,149,157)" stroke-width="1" opacity="0.7647058823529411" d="M 77.5 183 L 76.5 185 L 77.5 183 Z " /><path fill="rgb(136,149,157)" stroke="rgb(136,149,157)" stroke-width="1" opacity="0.7647058823529411" d="M 172.5 183 L 173 185.5 L 172 185.5 L 172.5 183 Z " /><path fill="rgb(136,149,157)" stroke="rgb(136,149,157)" stroke-width="1" opacity="0.7647058823529411" d="M 32.5 184 L 33 187.5 L 32 187.5 L 32.5 184 Z " /><path fill="rgb(136,149,157)" stroke="rgb(136,149,157)" stroke-width="1" opacity="0.7647058823529411" d="M 111.5 190 L 113 190.5 L 109.5 193 L 109 191 L 111.5 190 Z " /><path fill="rgb(136,149,157)" stroke="rgb(136,149,157)" stroke-width="1" opacity="0.7647058823529411" d="M 65.5 192 L 63.5 195 L 65.5 192 Z " /><path fill="rgb(136,149,157)" stroke="rgb(136,149,157)" stroke-width="1" opacity="0.7647058823529411" d="M 114.5 192 L 117.5 196 L 114.5 192 Z " /><path fill="rgb(136,149,157)" stroke="rgb(136,149,157)" stroke-width="1" opacity="0.7647058823529411" d="M 125.5 192 L 123.5 195 L 125.5 192 Z " /><path fill="rgb(136,149,157)" stroke="rgb(136,149,157)" stroke-width="1" opacity="0.7647058823529411" d="M 171.5 192 L 172 194 L 170 193.5 L 171.5 192 Z " /><path fill="rgb(136,149,157)" stroke="rgb(136,149,157)" stroke-width="1" opacity="0.7647058823529411" d="M 127.5 193 L 128.5 195 L 127.5 193 Z " /><path fill="rgb(136,149,157)" stroke="rgb(136,149,157)" stroke-width="1" opacity="0.7647058823529411" d="M 130.5 200 L 131 202.5 L 130 202.5 L 130.5 200 Z " /><path fill="rgb(136,149,157)" stroke="rgb(136,149,157)" stroke-width="1" opacity="0.7647058823529411" d="M 165.5 200 L 164.5 202 L 165.5 200 Z " /><path fill="rgb(136,149,157)" stroke="rgb(136,149,157)" stroke-width="1" opacity="0.7647058823529411" d="M 129.5 204 L 133 205.5 L 130.5 206 L 129.5 204 Z " /><path fill="rgb(240,245,241)" stroke="rgb(240,245,241)" stroke-width="1" opacity="0.8666666666666667" d="M 140.5 27 L 144 28.5 L 143.5 30 L 143 28 Q 139.2 26.5 140 29.5 L 138 30.5 L 140.5 27 Z " /><path fill="rgb(240,245,241)" stroke="rgb(240,245,241)" stroke-width="1" opacity="0.8666666666666667" d="M 144.5 31 L 145 34.5 L 144 34.5 L 144.5 31 Z " /><path fill="rgb(240,245,241)" stroke="rgb(240,245,241)" stroke-width="1" opacity="0.8666666666666667" d="M 137.5 32 L 138 33.5 L 136.5 36 L 136 34.5 L 137.5 32 Z " /><path fill="rgb(240,245,241)" stroke="rgb(240,245,241)" stroke-width="1" opacity="0.8666666666666667" d="M 135.5 37 L 136 38.5 L 134.5 42 L 134 39.5 L 135.5 37 Z " /><path fill="rgb(240,245,241)" stroke="rgb(240,245,241)" stroke-width="1" opacity="0.8666666666666667" d="M 145.5 40 L 146 45.5 L 145 45.5 L 145.5 40 Z " /><path fill="rgb(240,245,241)" stroke="rgb(240,245,241)" stroke-width="1" opacity="0.8666666666666667" d="M 132.5 46 L 133 48.5 L 130 59 L 122 58.5 L 129 58 L 132.5 46 Z " /><path fill="rgb(240,245,241)" stroke="rgb(240,245,241)" stroke-width="1" opacity="0.8666666666666667" d="M 146.5 52 L 147 61 L 151 62.5 L 149.5 63 L 146 60.5 L 146.5 52 Z " /><path fill="rgb(240,245,241)" stroke="rgb(240,245,241)" stroke-width="1" opacity="0.8666666666666667" d="M 116.5 59 L 121 59.5 L 113.5 61 L 113.5 60 L 116.5 59 Z " /><path fill="rgb(240,245,241)" stroke="rgb(240,245,241)" stroke-width="1" opacity="0.8666666666666667" d="M 110.5 61 L 112 61.5 L 108.5 63 L 108.5 62 L 110.5 61 Z " /><path fill="rgb(240,245,241)" stroke="rgb(240,245,241)" stroke-width="1" opacity="0.8666666666666667" d="M 120.5 61 L 124 61.5 L 120.5 62 L 120.5 61 Z " /><path fill="rgb(240,245,241)" stroke="rgb(240,245,241)" stroke-width="1" opacity="0.8666666666666667" d="M 105.5 63 L 107 63.5 L 102.5 66 L 103.5 64 L 105.5 63 Z " /><path fill="rgb(240,245,241)" stroke="rgb(240,245,241)" stroke-width="1" opacity="0.8666666666666667" d="M 152.5 63 L 156 64.5 L 152.5 66 L 152.5 65 L 154 64.5 L 152.5 63 Z " /><path fill="rgb(240,245,241)" stroke="rgb(240,245,241)" stroke-width="1" opacity="0.8666666666666667" d="M 109.5 64 L 111 64.5 L 107.5 66 L 107.5 65 L 109.5 64 Z " /><path fill="rgb(240,245,241)" stroke="rgb(240,245,241)" stroke-width="1" opacity="0.8666666666666667" d="M 100.5 66 L 98.5 69 L 88 78.5 L 84.5 84 L 85 82.5 Q 89 73 97.5 68 L 100.5 66 Z " /><path fill="rgb(240,245,241)" stroke="rgb(240,245,241)" stroke-width="1" opacity="0.8666666666666667" d="M 155.5 66 L 156.5 68 L 155.5 66 Z " /><path fill="rgb(240,245,241)" stroke="rgb(240,245,241)" stroke-width="1" opacity="0.8666666666666667" d="M 161.5 67 L 175 79.5 L 180 88.5 L 179 88.5 Q 174.1 76.9 164.5 70 L 161.5 67 Z " /><path fill="rgb(240,245,241)" stroke="rgb(240,245,241)" stroke-width="1" opacity="0.8666666666666667" d="M 100.5 69 L 98.5 72 L 100.5 69 Z " /><path fill="rgb(240,245,241)" stroke="rgb(240,245,241)" stroke-width="1" opacity="0.8666666666666667" d="M 160.5 69 L 162.5 72 L 160.5 69 Z " /><path fill="rgb(240,245,241)" stroke="rgb(240,245,241)" stroke-width="1" opacity="0.8666666666666667" d="M 96.5 72 L 91 78.5 L 90.5 80 L 90 78.5 L 96.5 72 Z " /><path fill="rgb(240,245,241)" stroke="rgb(240,245,241)" stroke-width="1" opacity="0.8666666666666667" d="M 164.5 72 L 165.5 74 L 164.5 72 Z " /><path fill="rgb(240,245,241)" stroke="rgb(240,245,241)" stroke-width="1" opacity="0.8666666666666667" d="M 167.5 75 L 170.5 79 L 167.5 75 Z " /><path fill="rgb(240,245,241)" stroke="rgb(240,245,241)" stroke-width="1" opacity="0.8666666666666667" d="M 87.5 83 L 87 84.5 L 85.5 87 L 86 85.5 L 87.5 83 Z " /><path fill="rgb(240,245,241)" stroke="rgb(240,245,241)" stroke-width="1" opacity="0.8666666666666667" d="M 81.5 89 L 82 90.5 L 78.5 100 L 78 97.5 L 81.5 89 Z " /><path fill="rgb(240,245,241)" stroke="rgb(240,245,241)" stroke-width="1" opacity="0.8666666666666667" d="M 180.5 90 L 183 97.5 L 182 97.5 L 180.5 90 Z " /><path fill="rgb(240,245,241)" stroke="rgb(240,245,241)" stroke-width="1" opacity="0.8666666666666667" d="M 179.5 94 L 181 97.5 L 180 97.5 L 179.5 94 Z " /><path fill="rgb(240,245,241)" stroke="rgb(240,245,241)" stroke-width="1" opacity="0.8666666666666667" d="M 181.5 100 L 182 107.5 L 181 107.5 L 181.5 100 Z " /><path fill="rgb(240,245,241)" stroke="rgb(240,245,241)" stroke-width="1" opacity="0.8666666666666667" d="M 183.5 100 L 184 102.5 L 183 102.5 L 183.5 100 Z " /><path fill="rgb(240,245,241)" stroke="rgb(240,245,241)" stroke-width="1" opacity="0.8666666666666667" d="M 77.5 101 L 78 103.5 L 77 103.5 L 77.5 101 Z " /><path fill="rgb(240,245,241)" stroke="rgb(240,245,241)" stroke-width="1" opacity="0.8666666666666667" d="M 76.5 105 L 77 106.5 Q 76 109 71.5 108 L 71.5 107 Q 76.9 108.7 76.5 105 Z " /><path fill="rgb(240,245,241)" stroke="rgb(240,245,241)" stroke-width="1" opacity="0.8666666666666667" d="M 65.5 108 L 68 108.5 L 65.5 109 L 65.5 108 Z " /><path fill="rgb(240,245,241)" stroke="rgb(240,245,241)" stroke-width="1" opacity="0.8666666666666667" d="M 91.5 108 Q 102 108 109.5 111 L 116.5 111 Q 122.7 106.2 135.5 108 L 147.5 115 L 167.5 117 L 173.5 119 L 176 121.5 L 169 135.5 L 174 131.5 L 177.5 125 L 178 127.5 L 173 136 L 165.5 138 L 150.5 139 L 149.5 140 L 147.5 139 L 146.5 140 L 131.5 140 L 128.5 138 L 117.5 138 L 110.5 136 L 87 127 L 85 112.5 L 87.5 109 L 91.5 108 Z M 125 111 L 124 112 Q 121 111 122 114 L 126 112 L 125 111 Z M 138 113 L 137 115 L 140 116 L 138 113 Z M 94 114 L 93 115 Q 89 114 90 117 L 94 116 L 96 122 L 100 122 L 107 118 L 122 127 L 131 129 L 138 129 L 154 124 L 155 127 L 161 131 L 167 126 L 169 127 Q 171 128 170 125 L 165 123 L 162 124 L 165 125 L 162 129 L 156 125 L 161 124 L 161 123 L 153 123 L 140 127 L 124 126 L 103 115 L 94 114 Z " /><path fill="rgb(240,245,241)" stroke="rgb(240,245,241)" stroke-width="1" opacity="0.8666666666666667" d="M 60.5 109 L 64 109.5 Q 52.9 110.9 48 118.5 L 44.5 126 L 44 123.5 Q 47 116 53.5 112 L 60.5 109 Z " /><path fill="rgb(240,245,241)" stroke="rgb(240,245,241)" stroke-width="1" opacity="0.8666666666666667" d="M 184.5 109 L 185 116.5 L 184 116.5 L 184.5 109 Z " /><path fill="rgb(240,245,241)" stroke="rgb(240,245,241)" stroke-width="1" opacity="0.8666666666666667" d="M 83.5 115 L 86 125.5 L 84 126 L 82 116.5 L 83.5 115 Z " /><path fill="rgb(240,245,241)" stroke="rgb(240,245,241)" stroke-width="1" opacity="0.8666666666666667" d="M 95.5 115 L 104 117.5 L 97.5 120 Q 93.8 118.2 95.5 115 Z " /><path fill="rgb(240,245,241)" stroke="rgb(240,245,241)" stroke-width="1" opacity="0.8666666666666667" d="M 52.5 117 L 49 121.5 L 48.5 123 L 48 121.5 L 52.5 117 Z " /><path fill="rgb(240,245,241)" stroke="rgb(240,245,241)" stroke-width="1" opacity="0.8666666666666667" d="M 45.5 127 L 48 130.5 L 39.5 131 L 38.5 132 L 39.5 130 Q 46.5 131.5 46 128.5 L 45.5 127 Z " /><path fill="rgb(240,245,241)" stroke="rgb(240,245,241)" stroke-width="1" opacity="0.8666666666666667" d="M 185.5 129 L 188 132.5 L 186 131.5 L 185.5 129 Z " /><path fill="rgb(240,245,241)" stroke="rgb(240,245,241)" stroke-width="1" opacity="0.8666666666666667" d="M 177.5 131 L 178 132.5 L 176 133.5 L 177.5 131 Z " /><path fill="rgb(240,245,241)" stroke="rgb(240,245,241)" stroke-width="1" opacity="0.8666666666666667" d="M 36.5 136 L 37 144.5 L 36 144.5 L 36.5 136 Z " /><path fill="rgb(240,245,241)" stroke="rgb(240,245,241)" stroke-width="1" opacity="0.8666666666666667" d="M 190.5 138 L 191.5 140 L 190.5 138 Z " /><path fill="rgb(240,245,241)" stroke="rgb(240,245,241)" stroke-width="1" opacity="0.8666666666666667" d="M 99.5 139 L 117.5 143 L 119.5 143 L 122 144.5 L 119 151 Q 106.6 146.9 99.5 139 Z " /><path fill="rgb(240,245,241)" stroke="rgb(240,245,241)" stroke-width="1" opacity="0.8666666666666667" d="M 72.5 142 Q 75.3 143.3 73 144.5 L 72.5 146 L 72.5 142 Z " /><path fill="rgb(240,245,241)" stroke="rgb(240,245,241)" stroke-width="1" opacity="0.8666666666666667" d="M 193.5 143 L 199 153.5 L 198 153.5 L 193.5 143 Z " /><path fill="rgb(240,245,241)" stroke="rgb(240,245,241)" stroke-width="1" opacity="0.8666666666666667" d="M 131.5 144 L 154 146.5 L 138.5 152 L 130 153 L 129 145 L 131.5 144 Z " /><path fill="rgb(240,245,241)" stroke="rgb(240,245,241)" stroke-width="1" opacity="0.8666666666666667" d="M 35.5 146 L 36 154.5 L 35 154.5 L 35.5 146 Z " /><path fill="rgb(240,245,241)" stroke="rgb(240,245,241)" stroke-width="1" opacity="0.8666666666666667" d="M 74.5 148 L 75 156.5 L 74 156.5 L 74.5 148 Z " /><path fill="rgb(240,245,241)" stroke="rgb(240,245,241)" stroke-width="1" opacity="0.8666666666666667" d="M 71.5 149 L 72 153.5 L 71 153.5 L 71.5 149 Z " /><path fill="rgb(240,245,241)" stroke="rgb(240,245,241)" stroke-width="1" opacity="0.8666666666666667" d="M 199.5 155 L 200 158.5 L 199 158.5 L 199.5 155 Z " /><path fill="rgb(240,245,241)" stroke="rgb(240,245,241)" stroke-width="1" opacity="0.8666666666666667" d="M 34.5 156 L 35 164.5 L 34 164.5 L 34.5 156 Z " /><path fill="rgb(240,245,241)" stroke="rgb(240,245,241)" stroke-width="1" opacity="0.8666666666666667" d="M 73.5 159 L 74 161.5 L 73 161.5 L 73.5 159 Z " /><path fill="rgb(240,245,241)" stroke="rgb(240,245,241)" stroke-width="1" opacity="0.8666666666666667" d="M 33.5 166 L 34 173.5 L 33 173.5 L 33.5 166 Z " /><path fill="rgb(240,245,241)" stroke="rgb(240,245,241)" stroke-width="1" opacity="0.8666666666666667" d="M 174.5 170 L 175 178.5 L 172.5 182 L 173 180.5 L 174.5 170 Z " /><path fill="rgb(240,245,241)" stroke="rgb(240,245,241)" stroke-width="1" opacity="0.8666666666666667" d="M 188.5 171 L 192 172 Q 190.9 174.7 193.5 174 L 196.5 173 L 196.5 174 L 192.5 175 L 188.5 171 Z " /><path fill="rgb(240,245,241)" stroke="rgb(240,245,241)" stroke-width="1" opacity="0.8666666666666667" d="M 73.5 175 L 74.5 177 L 73.5 175 Z " /><path fill="rgb(240,245,241)" stroke="rgb(240,245,241)" stroke-width="1" opacity="0.8666666666666667" d="M 121.5 175 L 129 190 L 155.5 186 L 164.5 183 L 165 184.5 L 160.5 190 L 147.5 195 L 137.5 196 L 132.5 193 L 112 186.5 L 121.5 175 Z " /><path fill="rgb(240,245,241)" stroke="rgb(240,245,241)" stroke-width="1" opacity="0.8666666666666667" d="M 32.5 176 L 33 180.5 L 32 180.5 L 32.5 176 Z " /><path fill="rgb(240,245,241)" stroke="rgb(240,245,241)" stroke-width="1" opacity="0.8666666666666667" d="M 68.5 177 L 69 180.5 L 68 180.5 L 68.5 177 Z " /><path fill="rgb(240,245,241)" stroke="rgb(240,245,241)" stroke-width="1" opacity="0.8666666666666667" d="M 91.5 183 L 102 186.5 Q 101.3 188.8 97.5 188 L 91.5 184 L 91.5 183 Z " /><path fill="rgb(240,245,241)" stroke="rgb(240,245,241)" stroke-width="1" opacity="0.8666666666666667" d="M 173.5 183 L 174 190.5 L 171.5 195 L 172 193.5 L 173.5 183 Z " /><path fill="rgb(240,245,241)" stroke="rgb(240,245,241)" stroke-width="1" opacity="0.8666666666666667" d="M 31.5 184 L 32 187.5 L 31 187.5 L 31.5 184 Z " /><path fill="rgb(240,245,241)" stroke="rgb(240,245,241)" stroke-width="1" opacity="0.8666666666666667" d="M 67.5 187 L 68 189.5 L 67 189.5 L 67.5 187 Z " /><path fill="rgb(240,245,241)" stroke="rgb(240,245,241)" stroke-width="1" opacity="0.8666666666666667" d="M 30.5 190 L 31 195.5 L 30 195.5 L 30.5 190 Z " /><path fill="rgb(240,245,241)" stroke="rgb(240,245,241)" stroke-width="1" opacity="0.8666666666666667" d="M 110.5 192 L 109.5 194 L 110.5 192 Z " /><path fill="rgb(240,245,241)" stroke="rgb(240,245,241)" stroke-width="1" opacity="0.8666666666666667" d="M 114.5 193 L 116.5 196 L 114.5 193 Z " /><path fill="rgb(240,245,241)" stroke="rgb(240,245,241)" stroke-width="1" opacity="0.8666666666666667" d="M 125.5 193 L 127 193.5 L 124.5 195 L 125.5 193 Z " /><path fill="rgb(240,245,241)" stroke="rgb(240,245,241)" stroke-width="1" opacity="0.8666666666666667" d="M 107.5 194 L 104.5 198 L 107.5 194 Z " /><path fill="rgb(240,245,241)" stroke="rgb(240,245,241)" stroke-width="1" opacity="0.8666666666666667" d="M 89.5 195 L 92 196.5 L 90.5 196 L 89.5 195 Z " /><path fill="rgb(240,245,241)" stroke="rgb(240,245,241)" stroke-width="1" opacity="0.8666666666666667" d="M 127.5 195 L 128 197.5 L 127 197.5 L 127.5 195 Z " /><path fill="rgb(240,245,241)" stroke="rgb(240,245,241)" stroke-width="1" opacity="0.8666666666666667" d="M 170.5 196 L 164 203.5 L 161.5 208 L 162 206.5 L 163 203.5 L 170.5 196 Z " /><path fill="rgb(240,245,241)" stroke="rgb(240,245,241)" stroke-width="1" opacity="0.8666666666666667" d="M 47.5 200 L 52 200.5 L 47.5 201 L 47.5 200 Z " /><path fill="rgb(240,245,241)" stroke="rgb(240,245,241)" stroke-width="1" opacity="0.8666666666666667" d="M 128.5 201 L 129 203.5 L 128 203.5 L 128.5 201 Z " /><path fill="rgb(240,245,241)" stroke="rgb(240,245,241)" stroke-width="1" opacity="0.8666666666666667" d="M 134.5 205 L 138 205.5 L 134.5 206 L 134.5 205 Z " /><path fill="rgb(240,245,241)" stroke="rgb(240,245,241)" stroke-width="1" opacity="0.8666666666666667" d="M 150.5 207 L 154 207.5 L 150.5 208 L 150.5 207 Z " /></svg>